SplineFontDB: 1.0
FontName: THBaijam-Bold
FullName: THBaijam-Bold
FamilyName: TH Baijam
Weight: Bold
Copyright: Copyright (c) 2006 by Department of Intellectual Property (DIP), Ministry of Commerce and Software Industry Promotion Agency (Public Organization) (SIPA). All rights reserved.
Version: 1.1
ItalicAngle: 0
UnderlinePosition: -35
UnderlineWidth: 30
Ascent: 800
Descent: 200
Order2: 1
XUID: [1021 375 425136265 6626681]
FSType: 0
OS2Version: 3
OS2_WeightWidthSlopeOnly: 0
OS2_UseTypoMetrics: 1
CreationTime: 1154326861
ModificationTime: 1174381582
PfmFamily: 17
TTFWeight: 700
TTFWidth: 5
LineGap: 60
VLineGap: 0
Panose: 2 0 5 6 0 0 0 2 0 4
OS2TypoAscent: 0
OS2TypoAOffset: 1
OS2TypoDescent: 0
OS2TypoDOffset: 1
OS2TypoLinegap: 0
OS2WinAscent: 0
OS2WinAOffset: 1
OS2WinDescent: -104
OS2WinDOffset: 1
HheadAscent: 0
HheadAOffset: 1
HheadDescent: 104
HheadDOffset: 1
OS2SubXSize: 700
OS2SubYSize: 650
OS2SubXOff: 0
OS2SubYOff: 140
OS2SupXSize: 700
OS2SupYSize: 650
OS2SupXOff: 0
OS2SupYOff: 477
OS2StrikeYSize: 30
OS2StrikeYPos: 250
OS2FamilyClass: 773
OS2Vendor: 'IPTH'
ScriptLang: 2
 1 latn 1 dflt 
 0 
ChainSub: coverage 0 0 'liga' 0 0 0 1
 1 0 1
  Coverage: 64 uni0E48.alt2 uni0E49.alt2 uni0E4A.alt2 uni0E4B.alt2 uni0E4C.alt2
  FCoverage: 7 uni0E33
 1
  SeqLookup: 0 'L027'
EndFPST
ChainSub: coverage 0 0 'liga' 0 0 0 1
 1 1 0
  Coverage: 7 uni0E47
  BCoverage: 12 uni0E2C.alt1
 1
  SeqLookup: 0 'L026'
EndFPST
ChainSub: coverage 0 0 'liga' 0 0 0 1
 1 0 1
  Coverage: 7 uni0E2C
  FCoverage: 39 uni0E34 uni0E35 uni0E36 uni0E37 uni0E47
 1
  SeqLookup: 0 'L026'
EndFPST
ChainSub: coverage 0 0 'liga' 0 0 0 1
 1 0 1
  Coverage: 15 uni0E0E uni0E0F
  FCoverage: 38 uni0E38.alt1 uni0E39.alt1 uni0E3A.alt1
 1
  SeqLookup: 0 'L026'
EndFPST
ChainSub: coverage 0 0 'liga' 0 0 0 1
 1 1 0
  Coverage: 5 a b c
  BCoverage: 23 uni0E1B uni0E1D uni0E1F
 1
  SeqLookup: 0 'L026'
EndFPST
ChainSub: coverage 0 0 'liga' 0 0 0 1
 1 0 1
  Coverage: 5 a b c

StartChar: .notdef
Encoding: 65536 -1 0
Width: 540
Flags: W
Fore
394 68 m 1,0,-1
 394 644 l 1,1,-1
 138 644 l 1,2,-1
 138 68 l 1,3,-1
 394 68 l 1,0,-1
473 0 m 1,4,-1
 60 0 l 1,5,-1
 60 709 l 1,6,-1
 473 709 l 1,7,-1
 473 0 l 1,4,-1
EndSplineSet
EndChar
StartChar: numbersign
Encoding: 35 35 4
Width: 473
Flags: W
Fore
290 131 m 1,0,-1
 186 131 l 1,1,-1
 186 0 l 1,2,-1
 115 0 l 1,3,-1
 115 131 l 1,4,-1
 34 131 l 1,5,-1
 34 187 l 1,6,-1
 115 187 l 1,7,-1
 115 308 l 1,8,-1
 34 308 l 1,9,-1
 34 365 l 1,10,-1
 115 365 l 1,11,-1
 115 484 l 1,12,-1
 186 484 l 1,13,-1
 186 365 l 1,14,-1
 290 365 l 1,15,-1
 290 484 l 1,16,-1
 360 484 l 1,17,-1
 360 365 l 1,18,-1
 434 365 l 1,19,-1
 434 308 l 1,20,-1
 360 308 l 1,21,-1
 360 187 l 1,22,-1
 434 187 l 1,23,-1
 434 131 l 1,24,-1
 360 131 l 1,25,-1
 360 0 l 1,26,-1
 290 0 l 1,27,-1
 290 131 l 1,0,-1
186 187 m 1,28,-1
 290 187 l 1,29,-1
 290 308 l 1,30,-1
 186 308 l 1,31,-1
 186 187 l 1,28,-1
EndSplineSet
EndChar
StartChar: dollar
Encoding: 36 36 5
Width: 395
Flags: W
Fore
166 0 m 1,0,-1
 141 0 l 2,1,2
 114 0 114 0 90.5 8 c 128,-1,3
 67 16 67 16 50 31 c 128,-1,4
 33 46 33 46 23 67.5 c 128,-1,5
 13 89 13 89 13 115 c 1,6,-1
 86 115 l 1,7,8
 86 88 86 88 102.5 74 c 128,-1,9
 119 60 119 60 141 60 c 2,10,-1
 166 60 l 1,11,-1
 166 229 l 1,12,-1
 118 248 l 2,13,14
 66 271 66 271 47.5 302 c 128,-1,15
 29 333 29 333 29 365 c 0,16,17
 29 392 29 392 40.5 413.5 c 128,-1,18
 52 435 52 435 71.5 451 c 128,-1,19
 91 467 91 467 115.5 475.5 c 128,-1,20
 140 484 140 484 166 484 c 1,21,-1
 166 534 l 1,22,-1
 237 534 l 1,23,-1
 237 484 l 1,24,25
 264 484 264 484 287 476 c 128,-1,26
 310 468 310 468 327.5 453.5 c 128,-1,27
 345 439 345 439 355 417.5 c 128,-1,28
 365 396 365 396 365 369 c 1,29,-1
 291 369 l 1,30,31
 291 396 291 396 275.5 410.5 c 128,-1,32
 260 425 260 425 237 425 c 1,33,-1
 237 261 l 1,34,35
 249 256 249 256 261.5 251 c 128,-1,36
 274 246 274 246 285 241 c 0,37,38
 313 229 313 229 330 217 c 128,-1,39
 347 205 347 205 357 190.5 c 128,-1,40
 367 176 367 176 370.5 160 c 128,-1,41
 374 144 374 144 374 125 c 0,42,43
 374 102 374 102 363.5 80 c 128,-1,44
 353 58 353 58 334 40 c 128,-1,45
 315 22 315 22 290 11 c 128,-1,46
 265 0 265 0 237 0 c 1,47,-1
 237 -52 l 1,48,-1
 166 -52 l 1,49,-1
 166 0 l 1,0,-1
237 200 m 1,50,-1
 237 60 l 1,51,52
 244 60 244 60 255 65.5 c 128,-1,53
 266 71 266 71 276.5 80 c 128,-1,54
 287 89 287 89 294 100.5 c 128,-1,55
 301 112 301 112 301 124 c 0,56,57
 301 150 301 150 293 164 c 128,-1,58
 285 178 285 178 263 188 c 1,59,-1
 264 188 l 1,60,-1
 237 200 l 1,50,-1
103 366 m 0,61,62
 103 347 103 347 109 329.5 c 128,-1,63
 115 312 115 312 139 301 c 0,64,65
 145 298 145 298 151.5 296 c 128,-1,66
 158 294 158 294 166 290 c 1,67,-1
 166 425 l 1,68,69
 143 425 143 425 123 408 c 128,-1,70
 103 391 103 391 103 366 c 0,61,62
EndSplineSet
EndChar
StartChar: percent
Encoding: 37 37 6
Width: 626
Flags: W
Fore
131 -16 m 1,0,-1
 403 500 l 1,1,-1
 475 500 l 1,2,-1
 205 -16 l 1,3,-1
 131 -16 l 1,0,-1
133 459 m 2,4,5
 115 459 115 459 98.5 451.5 c 128,-1,6
 82 444 82 444 69.5 432 c 128,-1,7
 57 420 57 420 50 404 c 128,-1,8
 43 388 43 388 43 372 c 2,9,-1
 43 289 l 2,10,11
 43 254 43 254 65 234.5 c 128,-1,12
 87 215 87 215 127 215 c 2,13,-1
 150 215 l 2,14,15
 169 215 169 215 185.5 222 c 128,-1,16
 202 229 202 229 214.5 241 c 128,-1,17
 227 253 227 253 234.5 268.5 c 128,-1,18
 242 284 242 284 242 301 c 2,19,-1
 242 387 l 2,20,21
 242 421 242 421 220.5 440 c 128,-1,22
 199 459 199 459 157 459 c 2,23,-1
 133 459 l 2,4,5
112 364 m 2,24,25
 112 379 112 379 121.5 391 c 128,-1,26
 131 403 131 403 146 403 c 1,27,-1
 154 399 l 1,28,29
 178 399 178 399 178 373 c 2,30,-1
 174 308 l 2,31,32
 174 294 174 294 164 283 c 128,-1,33
 154 272 154 272 140 272 c 2,34,-1
 136 272 l 2,35,36
 112 272 112 272 112 299 c 2,37,-1
 112 364 l 2,24,25
434 247 m 2,38,39
 416 247 416 247 399.5 239.5 c 128,-1,40
 383 232 383 232 371 219.5 c 128,-1,41
 359 207 359 207 352 191.5 c 128,-1,42
 345 176 345 176 345 160 c 2,43,-1
 345 76 l 2,44,45
 345 43 345 43 366.5 23.5 c 128,-1,46
 388 4 388 4 428 4 c 2,47,-1
 450 4 l 2,48,49
 469 4 469 4 486 11 c 128,-1,50
 503 18 503 18 515.5 29.5 c 128,-1,51
 528 41 528 41 535.5 56.5 c 128,-1,52
 543 72 543 72 543 89 c 2,53,-1
 543 175 l 2,54,55
 543 209 543 209 521.5 228 c 128,-1,56
 500 247 500 247 458 247 c 2,57,-1
 434 247 l 2,38,39
413 152 m 2,58,59
 413 167 413 167 422.5 179 c 128,-1,60
 432 191 432 191 446 191 c 2,61,-1
 450 191 l 2,62,63
 475 191 475 191 475 166 c 2,64,-1
 475 97 l 2,65,66
 475 82 475 82 465 71 c 128,-1,67
 455 60 455 60 441 60 c 2,68,-1
 437 60 l 2,69,70
 413 60 413 60 413 87 c 2,71,-1
 413 152 l 2,58,59
EndSplineSet
EndChar
StartChar: ampersand
Encoding: 38 38 7
Width: 472
Flags: W
Fore
409 224 m 1,0,1
 409 191 409 191 399 157.5 c 128,-1,2
 389 124 389 124 371 95 c 1,3,4
 386 77 386 77 400.5 60.5 c 128,-1,5
 415 44 415 44 427 30 c 0,6,7
 441 14 441 14 454 0 c 1,8,-1
 370 1 l 1,9,10
 365 5 365 5 359 11 c 0,11,12
 354 16 354 16 346.5 24 c 128,-1,13
 339 32 339 32 329 44 c 1,14,15
 304 21 304 21 272 7.5 c 128,-1,16
 240 -6 240 -6 203 -6 c 2,17,-1
 173 -6 l 2,18,19
 147 -6 147 -6 121.5 5.5 c 128,-1,20
 96 17 96 17 76 35.5 c 128,-1,21
 56 54 56 54 44 77.5 c 128,-1,22
 32 101 32 101 32 125 c 2,23,-1
 32 147 l 2,24,25
 32 166 32 166 40.5 183.5 c 128,-1,26
 49 201 49 201 63.5 216 c 128,-1,27
 78 231 78 231 96.5 243.5 c 128,-1,28
 115 256 115 256 136 267 c 1,29,-1
 123 282 l 2,30,31
 108 297 108 297 97 316 c 128,-1,32
 86 335 86 335 86 358 c 2,33,-1
 86 365 l 2,34,35
 86 390 86 390 96 411.5 c 128,-1,36
 106 433 106 433 124 449 c 128,-1,37
 142 465 142 465 165.5 474.5 c 128,-1,38
 189 484 189 484 216 484 c 2,39,-1
 243 484 l 2,40,41
 266 484 266 484 286 476.5 c 128,-1,42
 306 469 306 469 320.5 456 c 128,-1,43
 335 443 335 443 343.5 425 c 128,-1,44
 352 407 352 407 352 386 c 2,45,-1
 352 376 l 2,46,47
 352 352 352 352 342.5 333.5 c 128,-1,48
 333 315 333 315 317 300 c 128,-1,49
 301 285 301 285 280 273 c 128,-1,50
 259 261 259 261 235 251 c 1,51,-1
 248 236 l 2,52,53
 267 213 267 213 282 195 c 128,-1,54
 297 177 297 177 320 152 c 1,55,56
 327 169 327 169 331 188 c 128,-1,57
 335 207 335 207 335 224 c 1,58,-1
 409 224 l 1,0,1
174 223 m 1,59,60
 148 208 148 208 127 189 c 128,-1,61
 106 170 106 170 106 147 c 2,62,-1
 106 125 l 2,63,64
 106 113 106 113 112 100.5 c 128,-1,65
 118 88 118 88 128 77.5 c 128,-1,66
 138 67 138 67 149.5 60.5 c 128,-1,67
 161 54 161 54 173 54 c 2,68,-1
 203 54 l 2,69,70
 226 54 226 54 247 66 c 128,-1,71
 268 78 268 78 285 97 c 1,72,-1
 174 223 l 1,59,60
208 303 m 2,73,74
 237 316 237 316 258.5 333 c 128,-1,75
 280 350 280 350 280 376 c 2,76,-1
 280 385 l 2,77,78
 280 402 280 402 268.5 414.5 c 128,-1,79
 257 427 257 427 241 427 c 2,80,-1
 216 427 l 2,81,82
 192 427 192 427 175.5 409 c 128,-1,83
 159 391 159 391 159 365 c 2,84,-1
 159 359 l 2,85,86
 159 350 159 350 163 342 c 128,-1,87
 167 334 167 334 172 328 c 2,88,-1
 181 314 l 1,89,90
 181 313 181 313 195 297 c 1,91,-1
 196 297 l 1,92,-1
 208 303 l 2,73,74
EndSplineSet
EndChar
StartChar: quotesingle
Encoding: 39 39 8
Width: 142
Flags: W
Fore
29 515 m 1,0,-1
 105 515 l 1,1,-1
 105 355 l 1,2,-1
 29 355 l 1,3,-1
 29 515 l 1,0,-1
EndSplineSet
KernsSLIFO: 135 -70 0 0 34 -70 0 0
EndChar
StartChar: parenleft
Encoding: 40 40 9
Width: 240
Flags: W
Fore
140 -136 m 1,0,1
 94 -64 94 -64 68 14.5 c 128,-1,2
 42 93 42 93 42 174 c 0,3,4
 42 259 42 259 66 335 c 128,-1,5
 90 411 90 411 140 484 c 1,6,-1
 219 484 l 1,7,8
 167 409 167 409 141 333 c 128,-1,9
 115 257 115 257 115 174 c 0,10,11
 115 94 115 94 143 15 c 128,-1,12
 171 -64 171 -64 218 -136 c 1,13,-1
 140 -136 l 1,0,1
EndSplineSet
KernsSLIFO: 75 70 0 0
EndChar
StartChar: parenright
Encoding: 41 41 10
Width: 240
Flags: W
Fore
36 -136 m 1,0,1
 83 -63 83 -63 111.5 15.5 c 128,-1,2
 140 94 140 94 140 174 c 0,3,4
 140 258 140 258 113.5 333.5 c 128,-1,5
 87 409 87 409 35 484 c 1,6,-1
 114 484 l 1,7,8
 164 411 164 411 188 335 c 128,-1,9
 212 259 212 259 212 174 c 0,10,11
 212 93 212 93 186 14.5 c 128,-1,12
 160 -64 160 -64 114 -136 c 1,13,-1
 36 -136 l 1,0,1
EndSplineSet
EndChar
StartChar: asterisk
Encoding: 42 42 11
Width: 342
Flags: W
Fore
134 476 m 1,0,-1
 134 563 l 1,1,-1
 197 563 l 1,2,-1
 197 477 l 1,3,-1
 275 521 l 1,4,5
 280 513 280 513 285 506 c 256,6,7
 290 499 290 499 294.5 492 c 128,-1,8
 299 485 299 485 304 477 c 1,9,-1
 221 430 l 1,10,-1
 304 384 l 1,11,-1
 276 338 l 1,12,-1
 197 381 l 1,13,-1
 197 297 l 1,14,-1
 134 297 l 1,15,-1
 134 382 l 1,16,-1
 56 339 l 1,17,-1
 28 385 l 1,18,-1
 109 430 l 1,19,-1
 28 475 l 1,20,21
 33 482 33 482 37 490 c 0,22,23
 45 504 45 504 56 520 c 1,24,-1
 134 476 l 1,0,-1
EndSplineSet
EndChar
StartChar: plus
Encoding: 43 43 12
Width: 414
Flags: W
Fore
240 197 m 1,0,-1
 240 65 l 1,1,-1
 169 65 l 1,2,-1
 169 197 l 1,3,-1
 32 197 l 1,4,-1
 32 254 l 1,5,-1
 169 254 l 1,6,-1
 169 385 l 1,7,-1
 240 385 l 1,8,-1
 240 254 l 1,9,-1
 376 254 l 1,10,-1
 376 197 l 1,11,-1
 240 197 l 1,0,-1
EndSplineSet
EndChar
StartChar: comma
Encoding: 44 44 13
Width: 173
Flags: W
Fore
61 77 m 1,0,-1
 130 77 l 1,1,-1
 130 43 l 2,2,3
 130 17 130 17 123.5 -1 c 128,-1,4
 117 -19 117 -19 107 -32.5 c 128,-1,5
 97 -46 97 -46 85 -55 c 128,-1,6
 73 -64 73 -64 63 -71 c 2,7,-1
 41 -86 l 1,8,-1
 7 -39 l 1,9,-1
 26 -23 l 2,10,11
 39 -14 39 -14 50 0 c 128,-1,12
 61 14 61 14 61 43 c 2,13,-1
 61 77 l 1,0,-1
EndSplineSet
KernsSLIFO: 24 -50 0 0
EndChar
StartChar: hyphen
Encoding: 45 45 14
Width: 261
Flags: W
Fore
22 185 m 1,0,-1
 22 246 l 1,1,-1
 234 246 l 1,2,-1
 234 185 l 1,3,-1
 22 185 l 1,0,-1
EndSplineSet
EndChar
StartChar: period
Encoding: 46 46 15
Width: 202
Flags: W
Fore
54 38 m 0,0,1
 54 56 54 56 67.5 67.5 c 128,-1,2
 81 79 81 79 103 79 c 256,3,4
 125 79 125 79 139 67.5 c 128,-1,5
 153 56 153 56 153 38 c 0,6,7
 153 19 153 19 139 7 c 128,-1,8
 125 -5 125 -5 103 -5 c 256,9,10
 81 -5 81 -5 67.5 7 c 128,-1,11
 54 19 54 19 54 38 c 0,0,1
EndSplineSet
KernsSLIFO: 24 -50 0 0
EndChar
StartChar: slash
Encoding: 47 47 16
Width: 329
Flags: W
Fore
-11 -16 m 1,0,-1
 260 500 l 1,1,-1
 333 500 l 1,2,-1
 64 -16 l 1,3,-1
 -11 -16 l 1,0,-1
EndSplineSet
EndChar
StartChar: zero
Encoding: 48 48 17
Width: 414
Flags: W
Fore
224 490 m 2,0,1
 300 490 300 490 340.5 450 c 128,-1,2
 381 410 381 410 381 345 c 2,3,-1
 381 169 l 2,4,5
 381 136 381 136 367 104.5 c 128,-1,6
 353 73 353 73 329 48.5 c 128,-1,7
 305 24 305 24 273.5 9.5 c 128,-1,8
 242 -5 242 -5 207 -5 c 2,9,-1
 184 -5 l 2,10,11
 109 -5 109 -5 68.5 35.5 c 128,-1,12
 28 76 28 76 28 142 c 2,13,-1
 28 312 l 2,14,15
 28 345 28 345 41.5 376.5 c 128,-1,16
 55 408 55 408 78 433.5 c 128,-1,17
 101 459 101 459 131.5 474.5 c 128,-1,18
 162 490 162 490 196 490 c 2,19,-1
 224 490 l 2,0,1
101 142 m 2,20,21
 101 103 101 103 122 76.5 c 128,-1,22
 143 50 143 50 183 50 c 2,23,-1
 200 50 l 2,24,25
 221 50 221 50 240.5 60.5 c 128,-1,26
 260 71 260 71 275 88.5 c 128,-1,27
 290 106 290 106 299 127 c 128,-1,28
 308 148 308 148 308 169 c 2,29,-1
 308 345 l 2,30,31
 308 384 308 384 286.5 409.5 c 128,-1,32
 265 435 265 435 225 435 c 2,33,-1
 208 435 l 2,34,35
 186 435 186 435 166.5 424 c 128,-1,36
 147 413 147 413 132.5 395.5 c 128,-1,37
 118 378 118 378 109.5 356 c 128,-1,38
 101 334 101 334 101 312 c 2,39,-1
 101 142 l 2,20,21
EndSplineSet
EndChar
StartChar: one
Encoding: 49 49 18
Width: 284
Flags: W
Fore
138 0 m 1,0,-1
 138 347 l 1,1,2
 117 335 117 335 88.5 329.5 c 128,-1,3
 60 324 60 324 27 323 c 1,4,-1
 27 378 l 1,5,6
 48 378 48 378 68 387 c 128,-1,7
 88 396 88 396 103.5 410.5 c 128,-1,8
 119 425 119 425 128.5 444 c 128,-1,9
 138 463 138 463 138 484 c 1,10,-1
 211 484 l 1,11,-1
 211 0 l 1,12,-1
 138 0 l 1,0,-1
EndSplineSet
EndChar
StartChar: two
Encoding: 50 50 19
Width: 421
Flags: W
Fore
221 498 m 2,0,1
 298 498 298 498 338.5 461 c 128,-1,2
 379 424 379 424 379 358 c 0,3,4
 379 324 379 324 366 299.5 c 128,-1,5
 353 275 353 275 312 246 c 2,6,-1
 141 124 l 2,7,8
 121 110 121 110 113.5 91 c 128,-1,9
 106 72 106 72 105 55 c 1,10,-1
 387 55 l 1,11,-1
 387 0 l 1,12,-1
 28 0 l 1,13,-1
 28 52 l 2,14,15
 28 87 28 87 44.5 116.5 c 128,-1,16
 61 146 61 146 88 166 c 2,17,-1
 282 305 l 2,18,19
 291 311 291 311 298.5 327 c 128,-1,20
 306 343 306 343 306 358 c 0,21,22
 306 443 306 443 223 443 c 2,23,-1
 206 443 l 2,24,25
 175 443 175 443 145.5 424.5 c 128,-1,26
 116 406 116 406 93 380 c 1,27,-1
 39 420 l 1,28,29
 69 456 69 456 112 477 c 128,-1,30
 155 498 155 498 206 498 c 2,31,-1
 221 498 l 2,0,1
EndSplineSet
EndChar
StartChar: three
Encoding: 51 51 20
Width: 426
Flags: W
Fore
135 307 m 1,0,-1
 245 307 l 2,1,2
 266 309 266 309 279.5 322 c 128,-1,3
 293 335 293 335 293 358 c 0,4,5
 293 443 293 443 211 443 c 2,6,-1
 193 443 l 2,7,8
 162 443 162 443 132.5 424.5 c 128,-1,9
 103 406 103 406 80 380 c 1,10,-1
 27 420 l 1,11,12
 56 456 56 456 99 477 c 128,-1,13
 142 498 142 498 193 498 c 2,14,-1
 210 498 l 2,15,16
 285 498 285 498 326 461 c 128,-1,17
 367 424 367 424 367 358 c 0,18,19
 367 311 367 311 335 282 c 1,20,21
 362 261 362 261 377 230.5 c 128,-1,22
 392 200 392 200 392 170 c 0,23,24
 392 131 392 131 377 99 c 128,-1,25
 362 67 362 67 335.5 44 c 128,-1,26
 309 21 309 21 273.5 8.5 c 128,-1,27
 238 -4 238 -4 196 -4 c 0,28,29
 135 -4 135 -4 93 18 c 128,-1,30
 51 40 51 40 15 85 c 1,31,-1
 67 128 l 1,32,33
 96 95 96 95 127.5 73 c 128,-1,34
 159 51 159 51 197 51 c 0,35,36
 221 51 221 51 243 60.5 c 128,-1,37
 265 70 265 70 281.5 86 c 128,-1,38
 298 102 298 102 308 124 c 128,-1,39
 318 146 318 146 318 170 c 0,40,41
 318 186 318 186 312 200.5 c 128,-1,42
 306 215 306 215 295.5 226.5 c 128,-1,43
 285 238 285 238 271 245 c 128,-1,44
 257 252 257 252 241 252 c 2,45,-1
 135 252 l 1,46,-1
 135 307 l 1,0,-1
EndSplineSet
EndChar
StartChar: four
Encoding: 52 52 21
Width: 424
Flags: W
Fore
262 0 m 1,0,-1
 262 97 l 1,1,-1
 88 97 l 2,2,3
 59 97 59 97 43.5 109 c 128,-1,4
 28 121 28 121 28 147 c 1,5,-1
 267 484 l 1,6,-1
 335 484 l 1,7,-1
 335 152 l 1,8,-1
 398 152 l 1,9,-1
 398 97 l 1,10,-1
 335 97 l 1,11,-1
 335 0 l 1,12,-1
 262 0 l 1,0,-1
262 359 m 1,13,14
 243 332 243 332 225.5 306.5 c 128,-1,15
 208 281 208 281 190.5 256 c 128,-1,16
 173 231 173 231 155 205.5 c 128,-1,17
 137 180 137 180 118 152 c 1,18,-1
 262 152 l 1,19,-1
 262 359 l 1,13,14
EndSplineSet
EndChar
StartChar: five
Encoding: 53 53 22
Width: 436
Flags: W
Fore
376 430 m 1,0,-1
 145 430 l 1,1,-1
 145 307 l 1,2,-1
 264 307 l 2,3,4
 294 307 294 307 319.5 295 c 128,-1,5
 345 283 345 283 363.5 264 c 128,-1,6
 382 245 382 245 392 220 c 128,-1,7
 402 195 402 195 402 170 c 0,8,9
 402 131 402 131 387 99 c 128,-1,10
 372 67 372 67 345.5 44 c 128,-1,11
 319 21 319 21 283.5 8.5 c 128,-1,12
 248 -4 248 -4 207 -4 c 0,13,14
 147 -4 147 -4 104.5 18 c 128,-1,15
 62 40 62 40 27 85 c 1,16,-1
 78 128 l 1,17,18
 107 95 107 95 138.5 73 c 128,-1,19
 170 51 170 51 208 51 c 0,20,21
 232 51 232 51 253.5 60.5 c 128,-1,22
 275 70 275 70 291.5 86 c 128,-1,23
 308 102 308 102 318 124 c 128,-1,24
 328 146 328 146 328 170 c 0,25,26
 328 186 328 186 322 200.5 c 128,-1,27
 316 215 316 215 305.5 226.5 c 128,-1,28
 295 238 295 238 281 245 c 128,-1,29
 267 252 267 252 251 252 c 2,30,-1
 71 252 l 1,31,-1
 71 484 l 1,32,-1
 376 484 l 1,33,-1
 376 430 l 1,0,-1
EndSplineSet
EndChar
StartChar: six
Encoding: 54 54 23
Width: 431
Flags: W
Fore
239 310 m 2,0,1
 316 310 316 310 356.5 274 c 128,-1,2
 397 238 397 238 397 172 c 2,3,-1
 397 165 l 2,4,5
 397 132 397 132 383 101 c 128,-1,6
 369 70 369 70 345 47 c 128,-1,7
 321 24 321 24 289 10 c 128,-1,8
 257 -4 257 -4 221 -4 c 2,9,-1
 199 -4 l 2,10,11
 142 -4 142 -4 107 18 c 128,-1,12
 72 40 72 40 54 77 c 0,13,14
 42 102 42 102 37 135.5 c 128,-1,15
 32 169 32 169 32 197 c 2,16,-1
 32 302 l 2,17,18
 32 343 32 343 48.5 378.5 c 128,-1,19
 65 414 65 414 93 440.5 c 128,-1,20
 121 467 121 467 158.5 482.5 c 128,-1,21
 196 498 196 498 239 498 c 0,22,23
 307 498 307 498 360 459 c 1,24,-1
 321 407 l 1,25,26
 302 421 302 421 280.5 432 c 128,-1,27
 259 443 259 443 239 443 c 0,28,29
 212 443 212 443 187.5 432 c 128,-1,30
 163 421 163 421 144.5 402 c 128,-1,31
 126 383 126 383 115.5 357.5 c 128,-1,32
 105 332 105 332 105 303 c 2,33,-1
 105 270 l 1,34,35
 127 291 127 291 152.5 300.5 c 128,-1,36
 178 310 178 310 212 310 c 2,37,-1
 239 310 l 2,0,1
117 140 m 0,38,39
 117 98 117 98 137.5 74.5 c 128,-1,40
 158 51 158 51 198 51 c 2,41,-1
 216 51 l 2,42,43
 237 51 237 51 256.5 61 c 128,-1,44
 276 71 276 71 291 87 c 128,-1,45
 306 103 306 103 314.5 123.5 c 128,-1,46
 323 144 323 144 323 165 c 2,47,-1
 323 172 l 2,48,49
 323 211 323 211 302 233 c 128,-1,50
 281 255 281 255 241 255 c 2,51,-1
 223 255 l 2,52,53
 201 255 201 255 182 245.5 c 128,-1,54
 163 236 163 236 148.5 220 c 128,-1,55
 134 204 134 204 125.5 183 c 128,-1,56
 117 162 117 162 117 140 c 0,38,39
EndSplineSet
EndChar
StartChar: seven
Encoding: 55 55 24
Width: 400
Flags: W
Fore
20 486 m 1,0,-1
 375 486 l 1,1,-1
 375 447 l 1,2,-1
 225 144 l 2,3,4
 211 112 211 112 203 75 c 128,-1,5
 195 38 195 38 195 0 c 1,6,-1
 120 0 l 1,7,8
 122 36 122 36 128 75 c 128,-1,9
 134 114 134 114 149 149 c 0,10,11
 156 164 156 164 164 182.5 c 128,-1,12
 172 201 172 201 186.5 232 c 128,-1,13
 201 263 201 263 224 310 c 128,-1,14
 247 357 247 357 284 431 c 1,15,-1
 20 431 l 1,16,-1
 20 486 l 1,0,-1
EndSplineSet
KernsSLIFO: 15 -70 0 0 13 -70 0 0
EndChar
StartChar: eight
Encoding: 56 56 25
Width: 427
Flags: W
Fore
375 361 m 0,0,1
 375 336 375 336 358.5 309.5 c 128,-1,2
 342 283 342 283 322 266 c 1,3,4
 354 249 354 249 373.5 217.5 c 128,-1,5
 393 186 393 186 393 151 c 0,6,7
 393 112 393 112 378 82.5 c 128,-1,8
 363 53 363 53 336.5 33.5 c 128,-1,9
 310 14 310 14 274.5 4.5 c 128,-1,10
 239 -5 239 -5 197 -5 c 2,11,-1
 184 -5 l 2,12,13
 151 -5 151 -5 122.5 4.5 c 128,-1,14
 94 14 94 14 73 31.5 c 128,-1,15
 52 49 52 49 40 74 c 128,-1,16
 28 99 28 99 28 131 c 0,17,18
 28 162 28 162 47.5 196.5 c 128,-1,19
 67 231 67 231 96 255 c 1,20,21
 73 271 73 271 60.5 293 c 128,-1,22
 48 315 48 315 48 345 c 256,23,24
 48 375 48 375 60.5 401.5 c 128,-1,25
 73 428 73 428 94.5 448 c 128,-1,26
 116 468 116 468 144 479.5 c 128,-1,27
 172 491 172 491 203 491 c 2,28,-1
 229 491 l 2,29,30
 299 491 299 491 337 456.5 c 128,-1,31
 375 422 375 422 375 361 c 0,0,1
208 234 m 2,32,33
 186 234 186 234 166.5 223.5 c 128,-1,34
 147 213 147 213 132.5 197.5 c 128,-1,35
 118 182 118 182 109.5 164 c 128,-1,36
 101 146 101 146 101 131 c 0,37,38
 101 93 101 93 124.5 71.5 c 128,-1,39
 148 50 148 50 183 50 c 2,40,-1
 196 50 l 2,41,42
 221 50 221 50 243 56.5 c 128,-1,43
 265 63 265 63 282 76 c 128,-1,44
 299 89 299 89 309 108 c 128,-1,45
 319 127 319 127 319 151 c 0,46,47
 319 167 319 167 312 182 c 128,-1,48
 305 197 305 197 294 208.5 c 128,-1,49
 283 220 283 220 269 227 c 128,-1,50
 255 234 255 234 242 234 c 2,51,-1
 208 234 l 2,32,33
219 289 m 2,52,53
 235 290 235 290 250 297 c 128,-1,54
 265 304 265 304 276 314.5 c 128,-1,55
 287 325 287 325 293.5 337.5 c 128,-1,56
 300 350 300 350 300 361 c 0,57,58
 300 395 300 395 282 415.5 c 128,-1,59
 264 436 264 436 229 436 c 2,60,-1
 214 436 l 2,61,62
 176 436 176 436 149 410 c 128,-1,63
 122 384 122 384 122 346 c 0,64,65
 122 328 122 328 129.5 317 c 128,-1,66
 137 306 137 306 146.5 300 c 128,-1,67
 156 294 156 294 166.5 291.5 c 128,-1,68
 177 289 177 289 183 289 c 2,69,-1
 219 289 l 2,52,53
EndSplineSet
EndChar
StartChar: nine
Encoding: 57 57 26
Width: 427
Flags: W
Fore
185 185 m 2,0,1
 109 185 109 185 68.5 220.5 c 128,-1,2
 28 256 28 256 28 322 c 2,3,-1
 28 328 l 2,4,5
 28 362 28 362 42 392.5 c 128,-1,6
 56 423 56 423 80 446.5 c 128,-1,7
 104 470 104 470 135.5 484 c 128,-1,8
 167 498 167 498 202 498 c 2,9,-1
 225 498 l 2,10,11
 282 498 282 498 317 476 c 128,-1,12
 352 454 352 454 370 416 c 1,13,-1
 370 417 l 1,14,15
 382 393 382 393 387.5 358.5 c 128,-1,16
 393 324 393 324 393 297 c 2,17,-1
 393 191 l 2,18,19
 393 150 393 150 376.5 114.5 c 128,-1,20
 360 79 360 79 332 52.5 c 128,-1,21
 304 26 304 26 266 11 c 128,-1,22
 228 -4 228 -4 185 -4 c 0,23,24
 150 -4 150 -4 120 6.5 c 128,-1,25
 90 17 90 17 64 35 c 1,26,-1
 104 86 l 1,27,28
 123 73 123 73 144.5 62 c 128,-1,29
 166 51 166 51 185 51 c 0,30,31
 212 51 212 51 236.5 62 c 128,-1,32
 261 73 261 73 279.5 92 c 128,-1,33
 298 111 298 111 308.5 136.5 c 128,-1,34
 319 162 319 162 319 191 c 2,35,-1
 319 223 l 1,36,37
 276 185 276 185 213 185 c 2,38,-1
 185 185 l 2,0,1
308 355 m 0,39,40
 308 395 308 395 287 419 c 128,-1,41
 266 443 266 443 226 443 c 2,42,-1
 209 443 l 2,43,44
 188 443 188 443 168.5 433 c 128,-1,45
 149 423 149 423 134 407 c 128,-1,46
 119 391 119 391 110 370 c 128,-1,47
 101 349 101 349 101 328 c 2,48,-1
 101 322 l 2,49,50
 101 240 101 240 184 240 c 2,51,-1
 201 240 l 2,52,53
 223 240 223 240 242.5 249.5 c 128,-1,54
 262 259 262 259 276.5 275 c 128,-1,55
 291 291 291 291 299.5 312 c 128,-1,56
 308 333 308 333 308 355 c 0,39,40
EndSplineSet
EndChar
StartChar: colon
Encoding: 58 58 27
Width: 222
Flags: W
Fore
66 60 m 256,0,1
 66 77 66 77 80 90 c 128,-1,2
 94 103 94 103 115 103 c 0,3,4
 137 103 137 103 151 90 c 128,-1,5
 165 77 165 77 165 60 c 256,6,7
 165 43 165 43 151 30 c 128,-1,8
 137 17 137 17 115 17 c 0,9,10
 94 17 94 17 80 30 c 128,-1,11
 66 43 66 43 66 60 c 256,0,1
66 302 m 0,12,13
 66 320 66 320 80 332.5 c 128,-1,14
 94 345 94 345 115 345 c 0,15,16
 137 345 137 345 151 332.5 c 128,-1,17
 165 320 165 320 165 302 c 0,18,19
 165 285 165 285 151 272.5 c 128,-1,20
 137 260 137 260 115 260 c 0,21,22
 94 260 94 260 80 272.5 c 128,-1,23
 66 285 66 285 66 302 c 0,12,13
EndSplineSet
EndChar
StartChar: semicolon
Encoding: 59 59 28
Width: 222
Flags: W
Fore
66 302 m 0,0,1
 66 320 66 320 80 332.5 c 128,-1,2
 94 345 94 345 115 345 c 0,3,4
 137 345 137 345 150.5 332.5 c 128,-1,5
 164 320 164 320 164 302 c 0,6,7
 164 285 164 285 150.5 272.5 c 128,-1,8
 137 260 137 260 115 260 c 0,9,10
 94 260 94 260 80 272.5 c 128,-1,11
 66 285 66 285 66 302 c 0,0,1
88 109 m 1,12,-1
 157 109 l 1,13,-1
 157 74 l 2,14,15
 157 44 157 44 149 24.5 c 128,-1,16
 141 5 141 5 128.5 -8.5 c 128,-1,17
 116 -22 116 -22 100.5 -32 c 128,-1,18
 85 -42 85 -42 71 -52 c 2,19,-1
 68 -54 l 1,20,-1
 33 -7 l 1,21,22
 42 2 42 2 51.5 8 c 128,-1,23
 61 14 61 14 69 22 c 128,-1,24
 77 30 77 30 82 42 c 128,-1,25
 87 54 87 54 88 74 c 2,26,-1
 88 109 l 1,12,-1
EndSplineSet
EndChar
StartChar: less
Encoding: 60 60 29
Width: 447
Flags: W
Fore
412 429 m 1,0,-1
 412 363 l 1,1,-1
 140 205 l 1,2,-1
 412 48 l 1,3,-1
 412 -17 l 1,4,-1
 23 205 l 1,5,-1
 412 429 l 1,0,-1
EndSplineSet
EndChar
StartChar: equal
Encoding: 61 61 30
Width: 381
Flags: W
Fore
23 121 m 1,0,-1
 23 182 l 1,1,-1
 337 182 l 1,2,-1
 337 121 l 1,3,-1
 23 121 l 1,0,-1
23 248 m 1,4,-1
 23 309 l 1,5,-1
 337 309 l 1,6,-1
 337 248 l 1,7,-1
 23 248 l 1,4,-1
EndSplineSet
EndChar
StartChar: greater
Encoding: 62 62 31
Width: 448
Flags: W
Fore
417 205 m 1,0,-1
 28 -17 l 1,1,-1
 28 48 l 1,2,-1
 299 205 l 1,3,-1
 28 363 l 1,4,-1
 28 429 l 1,5,-1
 417 205 l 1,0,-1
EndSplineSet
EndChar
StartChar: question
Encoding: 63 63 32
Width: 389
Flags: W
Fore
116 38 m 0,0,1
 116 56 116 56 130.5 67.5 c 128,-1,2
 145 79 145 79 166 79 c 256,3,4
 187 79 187 79 201 67.5 c 128,-1,5
 215 56 215 56 215 38 c 0,6,7
 215 19 215 19 201 7 c 128,-1,8
 187 -5 187 -5 166 -5 c 256,9,10
 145 -5 145 -5 130.5 7 c 128,-1,11
 116 19 116 19 116 38 c 0,0,1
9 443 m 1,12,13
 26 461 26 461 59.5 473.5 c 128,-1,14
 93 486 93 486 136 486 c 2,15,-1
 193 486 l 2,16,17
 225 486 225 486 254 477.5 c 128,-1,18
 283 469 283 469 305 452 c 128,-1,19
 327 435 327 435 340 410.5 c 128,-1,20
 353 386 353 386 353 353 c 0,21,22
 353 315 353 315 326 282 c 128,-1,23
 299 249 299 249 233 221 c 0,24,25
 222 216 222 216 215 207.5 c 128,-1,26
 208 199 208 199 204.5 189 c 128,-1,27
 201 179 201 179 200 169.5 c 128,-1,28
 199 160 199 160 199 154 c 2,29,-1
 199 108 l 1,30,-1
 126 108 l 1,31,-1
 126 154 l 2,32,33
 126 166 126 166 129.5 182.5 c 128,-1,34
 133 199 133 199 143 216 c 128,-1,35
 153 233 153 233 171 249.5 c 128,-1,36
 189 266 189 266 218 278 c 1,37,-1
 217 278 l 1,38,39
 254 295 254 295 267 313.5 c 128,-1,40
 280 332 280 332 280 353 c 0,41,42
 280 389 280 389 254 408 c 128,-1,43
 228 427 228 427 193 427 c 2,44,-1
 136 427 l 2,45,46
 109 427 109 427 83 413.5 c 128,-1,47
 57 400 57 400 40 383 c 1,48,-1
 9 443 l 1,12,13
EndSplineSet
EndChar
StartChar: at
Encoding: 64 64 33
Width: 647
Flags: W
Fore
367 294 m 2,0,1
 365 312 365 312 352 324.5 c 128,-1,2
 339 337 339 337 322 337 c 2,3,-1
 288 337 l 2,4,5
 261 337 261 337 242.5 317.5 c 128,-1,6
 224 298 224 298 224 269 c 2,7,-1
 224 192 l 2,8,9
 224 172 224 172 236.5 158.5 c 128,-1,10
 249 145 249 145 267 145 c 2,11,-1
 302 145 l 2,12,13
 329 145 329 145 347.5 163 c 128,-1,14
 366 181 366 181 367 209 c 2,15,-1
 367 294 l 2,0,1
511 29 m 1,16,17
 480 7 480 7 445 -5 c 128,-1,18
 410 -17 410 -17 372 -17 c 2,19,-1
 226 -17 l 2,20,21
 187 -17 187 -17 153 -3.5 c 128,-1,22
 119 10 119 10 94 33 c 128,-1,23
 69 56 69 56 54.5 88 c 128,-1,24
 40 120 40 120 40 156 c 2,25,-1
 40 294 l 2,26,27
 40 338 40 338 57.5 376 c 128,-1,28
 75 414 75 414 105.5 442.5 c 128,-1,29
 136 471 136 471 176.5 487 c 128,-1,30
 217 503 217 503 263 503 c 2,31,-1
 408 503 l 2,32,33
 447 503 447 503 481 489.5 c 128,-1,34
 515 476 515 476 540 452 c 128,-1,35
 565 428 565 428 579.5 396 c 128,-1,36
 594 364 594 364 594 328 c 2,37,-1
 594 260 l 2,38,39
 594 214 594 214 586 182.5 c 128,-1,40
 578 151 578 151 562 131.5 c 128,-1,41
 546 112 546 112 523.5 103 c 128,-1,42
 501 94 501 94 473 94 c 0,43,44
 448 94 448 94 428.5 103.5 c 128,-1,45
 409 113 409 113 398 125 c 1,46,47
 378 106 378 106 350.5 98.5 c 128,-1,48
 323 91 323 91 302 91 c 2,49,-1
 267 91 l 2,50,51
 244 91 244 91 223.5 99 c 128,-1,52
 203 107 203 107 188 120.5 c 128,-1,53
 173 134 173 134 164.5 152.5 c 128,-1,54
 156 171 156 171 156 192 c 2,55,-1
 156 269 l 2,56,57
 156 295 156 295 166.5 317.5 c 128,-1,58
 177 340 177 340 195 356.5 c 128,-1,59
 213 373 213 373 237 382 c 128,-1,60
 261 391 261 391 288 391 c 2,61,-1
 322 391 l 2,62,63
 349 391 349 391 367 384 c 1,64,-1
 367 391 l 1,65,-1
 433 391 l 1,66,-1
 433 210 l 2,67,68
 433 185 433 185 443.5 167.5 c 128,-1,69
 454 150 454 150 473 150 c 0,70,71
 503 150 503 150 514 182.5 c 128,-1,72
 525 215 525 215 525 261 c 2,73,-1
 525 332 l 2,74,75
 525 356 525 356 516 377 c 128,-1,76
 507 398 507 398 492 413.5 c 128,-1,77
 477 429 477 429 456 438 c 128,-1,78
 435 447 435 447 411 447 c 2,79,-1
 261 447 l 2,80,81
 230 447 230 447 202.5 435.5 c 128,-1,82
 175 424 175 424 154 403.5 c 128,-1,83
 133 383 133 383 121 355.5 c 128,-1,84
 109 328 109 328 109 296 c 2,85,-1
 109 153 l 2,86,87
 109 129 109 129 118 108 c 128,-1,88
 127 87 127 87 142 71.5 c 128,-1,89
 157 56 157 56 177.5 47 c 128,-1,90
 198 38 198 38 222 38 c 2,91,-1
 374 38 l 2,92,93
 398 38 398 38 424 48.5 c 128,-1,94
 450 59 450 59 476 78 c 1,95,-1
 511 29 l 1,16,17
EndSplineSet
EndChar
StartChar: A
Encoding: 65 65 34
Width: 564
Flags: W
Fore
242 491 m 1,0,1
 274 491 274 491 298.5 480.5 c 128,-1,2
 323 470 323 470 334 450 c 2,3,-1
 542 0 l 1,4,-1
 462 0 l 1,5,-1
 401 133 l 1,6,-1
 157 133 l 1,7,8
 142 101 142 101 126 66.5 c 128,-1,9
 110 32 110 32 96 0 c 1,10,-1
 16 0 l 1,11,-1
 242 491 l 1,0,1
181 188 m 1,12,-1
 375 188 l 1,13,14
 362 216 362 216 350 241.5 c 128,-1,15
 338 267 338 267 327 291.5 c 128,-1,16
 316 316 316 316 304 342 c 128,-1,17
 292 368 292 368 279 397 c 1,18,-1
 181 188 l 1,12,-1
EndSplineSet
KernsSLIFO: 309 -50 0 0 306 -50 0 0 90 -10 0 0 88 -60 0 0 87 -60 0 0 86 -10 0 0 85 -10 0 0 58 -90 0 0 56 -110 0 0 55 -110 0 0 54 -20 0 0 53 -70 0 0 52 -30 0 0 14 -30 0 0
EndChar
StartChar: B
Encoding: 66 66 35
Width: 512
Flags: W
Fore
341 56 m 2,0,1
 354 56 354 56 366 64 c 128,-1,2
 378 72 378 72 387 85 c 128,-1,3
 396 98 396 98 401 113.5 c 128,-1,4
 406 129 406 129 406 143 c 256,5,6
 406 157 406 157 401 172 c 128,-1,7
 396 187 396 187 387 199.5 c 128,-1,8
 378 212 378 212 366 220 c 128,-1,9
 354 228 354 228 341 228 c 2,10,-1
 113 228 l 1,11,-1
 113 56 l 1,12,-1
 341 56 l 2,0,1
113 434 m 1,13,-1
 113 283 l 1,14,-1
 292 283 l 2,15,16
 319 283 319 283 338 306 c 128,-1,17
 357 329 357 329 357 357 c 0,18,19
 357 371 357 371 352 384.5 c 128,-1,20
 347 398 347 398 338 409 c 128,-1,21
 329 420 329 420 317 427 c 128,-1,22
 305 434 305 434 292 434 c 2,23,-1
 113 434 l 1,13,-1
40 489 m 1,24,-1
 292 489 l 2,25,26
 322 489 322 489 347.5 478 c 128,-1,27
 373 467 373 467 392 449 c 128,-1,28
 411 431 411 431 422 407 c 128,-1,29
 433 383 433 383 433 357 c 0,30,31
 433 334 433 334 423.5 313 c 128,-1,32
 414 292 414 292 397 273 c 1,33,34
 434 255 434 255 458 218.5 c 128,-1,35
 482 182 482 182 482 143 c 0,36,37
 482 116 482 116 471 90.5 c 128,-1,38
 460 65 460 65 441 45 c 128,-1,39
 422 25 422 25 396 12.5 c 128,-1,40
 370 0 370 0 341 0 c 2,41,-1
 97 0 l 2,42,43
 74 0 74 0 57 15.5 c 128,-1,44
 40 31 40 31 40 51 c 2,45,-1
 40 489 l 1,24,-1
EndSplineSet
KernsSLIFO: 53 -40 0 0
EndChar
StartChar: C
Encoding: 67 67 36
Width: 506
Flags: W
Fore
395 332 m 1,0,1
 395 354 395 354 387 374.5 c 128,-1,2
 379 395 379 395 365.5 410.5 c 128,-1,3
 352 426 352 426 334 435 c 128,-1,4
 316 444 316 444 295 444 c 2,5,-1
 238 444 l 2,6,7
 211 444 211 444 186.5 431 c 128,-1,8
 162 418 162 418 143.5 397 c 128,-1,9
 125 376 125 376 114.5 349 c 128,-1,10
 104 322 104 322 104 293 c 2,11,-1
 104 162 l 2,12,13
 104 141 104 141 112 120 c 128,-1,14
 120 99 120 99 133.5 82.5 c 128,-1,15
 147 66 147 66 165 56 c 128,-1,16
 183 46 183 46 203 46 c 2,17,-1
 262 46 l 2,18,19
 289 46 289 46 313.5 56.5 c 128,-1,20
 338 67 338 67 356.5 86 c 128,-1,21
 375 105 375 105 386 130 c 128,-1,22
 397 155 397 155 397 184 c 1,23,-1
 471 184 l 1,24,25
 471 141 471 141 454.5 105 c 128,-1,26
 438 69 438 69 409.5 43.5 c 128,-1,27
 381 18 381 18 343 4 c 128,-1,28
 305 -10 305 -10 262 -10 c 2,29,-1
 203 -10 l 2,30,31
 167 -10 167 -10 135.5 4 c 128,-1,32
 104 18 104 18 80 42 c 128,-1,33
 56 66 56 66 42.5 97 c 128,-1,34
 29 128 29 128 29 162 c 2,35,-1
 29 293 l 2,36,37
 29 334 29 334 45.5 371.5 c 128,-1,38
 62 409 62 409 90.5 437.5 c 128,-1,39
 119 466 119 466 157 483 c 128,-1,40
 195 500 195 500 238 500 c 2,41,-1
 295 500 l 2,42,43
 332 500 332 500 363.5 487 c 128,-1,44
 395 474 395 474 418.5 451.5 c 128,-1,45
 442 429 442 429 455.5 398.5 c 128,-1,46
 469 368 469 368 469 332 c 1,47,-1
 395 332 l 1,0,1
EndSplineSet
EndChar
StartChar: D
Encoding: 68 68 37
Width: 527
Flags: W
Fore
97 0 m 2,0,1
 74 0 74 0 57 15.5 c 128,-1,2
 40 31 40 31 40 51 c 2,3,-1
 40 489 l 1,4,-1
 306 489 l 2,5,6
 343 489 343 489 375 476 c 128,-1,7
 407 463 407 463 431 441 c 128,-1,8
 455 419 455 419 468.5 389.5 c 128,-1,9
 482 360 482 360 482 326 c 2,10,-1
 482 197 l 2,11,12
 482 156 482 156 465 120 c 128,-1,13
 448 84 448 84 419.5 57.5 c 128,-1,14
 391 31 391 31 353 15.5 c 128,-1,15
 315 0 315 0 272 0 c 2,16,-1
 97 0 l 2,0,1
113 56 m 1,17,-1
 272 56 l 2,18,19
 299 56 299 56 324 67 c 128,-1,20
 349 78 349 78 367.5 97 c 128,-1,21
 386 116 386 116 397 142 c 128,-1,22
 408 168 408 168 408 197 c 2,23,-1
 408 326 l 2,24,25
 408 348 408 348 400 367.5 c 128,-1,26
 392 387 392 387 378.5 402 c 128,-1,27
 365 417 365 417 346 425.5 c 128,-1,28
 327 434 327 434 306 434 c 2,29,-1
 113 434 l 1,30,-1
 113 56 l 1,17,-1
EndSplineSet
KernsSLIFO: 314 -40 0 0 59 -20 0 0 58 -20 0 0 57 -20 0 0 56 -20 0 0 53 -30 0 0 43 -20 0 0 15 -40 0 0 13 -40 0 0
EndChar
StartChar: E
Encoding: 69 69 38
Width: 506
Flags: W
Fore
97 0 m 2,0,1
 74 0 74 0 57 15.5 c 128,-1,2
 40 31 40 31 40 51 c 2,3,-1
 40 489 l 1,4,-1
 460 489 l 1,5,-1
 460 434 l 1,6,-1
 113 434 l 1,7,-1
 113 283 l 1,8,-1
 410 283 l 1,9,-1
 410 228 l 1,10,-1
 113 228 l 1,11,-1
 113 56 l 1,12,-1
 460 56 l 1,13,-1
 460 0 l 1,14,-1
 97 0 l 2,0,1
EndSplineSet
EndChar
StartChar: F
Encoding: 70 70 39
Width: 506
Flags: W
Fore
113 228 m 1,0,-1
 113 0 l 1,1,-1
 40 0 l 1,2,-1
 40 489 l 1,3,-1
 460 489 l 1,4,-1
 460 434 l 1,5,-1
 113 434 l 1,6,-1
 113 283 l 1,7,-1
 410 283 l 1,8,-1
 410 228 l 1,9,-1
 113 228 l 1,0,-1
EndSplineSet
KernsSLIFO: 314 -40 0 0 196 -50 0 0 185 -50 0 0 167 -50 0 0 135 -90 0 0 80 -50 0 0 70 -50 0 0 66 -50 0 0 43 -60 0 0 34 -90 0 0 15 -40 0 0 13 -40 0 0
EndChar
StartChar: G
Encoding: 71 71 40
Width: 506
Flags: W
Fore
471 176 m 2,0,1
 471 135 471 135 454.5 100.5 c 128,-1,2
 438 66 438 66 409.5 41.5 c 128,-1,3
 381 17 381 17 343 3.5 c 128,-1,4
 305 -10 305 -10 262 -10 c 2,5,-1
 203 -10 l 2,6,7
 167 -10 167 -10 135.5 4 c 128,-1,8
 104 18 104 18 80 42 c 128,-1,9
 56 66 56 66 42.5 97 c 128,-1,10
 29 128 29 128 29 162 c 2,11,-1
 29 293 l 2,12,13
 29 334 29 334 45.5 371.5 c 128,-1,14
 62 409 62 409 90.5 437.5 c 128,-1,15
 119 466 119 466 157 483 c 128,-1,16
 195 500 195 500 238 500 c 2,17,-1
 295 500 l 2,18,19
 332 500 332 500 363.5 487 c 128,-1,20
 395 474 395 474 418.5 451.5 c 128,-1,21
 442 429 442 429 455.5 398.5 c 128,-1,22
 469 368 469 368 469 332 c 1,23,-1
 395 332 l 1,24,25
 395 354 395 354 387 374.5 c 128,-1,26
 379 395 379 395 365.5 410.5 c 128,-1,27
 352 426 352 426 334 435 c 128,-1,28
 316 444 316 444 295 444 c 2,29,-1
 238 444 l 2,30,31
 211 444 211 444 186.5 431 c 128,-1,32
 162 418 162 418 143.5 397 c 128,-1,33
 125 376 125 376 114.5 349 c 128,-1,34
 104 322 104 322 104 293 c 2,35,-1
 104 162 l 2,36,37
 104 141 104 141 112 120 c 128,-1,38
 120 99 120 99 133.5 82.5 c 128,-1,39
 147 66 147 66 165 56 c 128,-1,40
 183 46 183 46 203 46 c 2,41,-1
 262 46 l 2,42,43
 288 46 288 46 312 55 c 128,-1,44
 336 64 336 64 354.5 80.5 c 128,-1,45
 373 97 373 97 384 119.5 c 128,-1,46
 395 142 395 142 397 168 c 1,47,-1
 250 168 l 1,48,-1
 250 224 l 1,49,-1
 471 224 l 1,50,-1
 471 176 l 2,0,1
EndSplineSet
EndChar
StartChar: H
Encoding: 72 72 41
Width: 506
Flags: W
Fore
387 228 m 1,0,-1
 113 228 l 1,1,-1
 113 0 l 1,2,-1
 40 0 l 1,3,-1
 40 489 l 1,4,-1
 113 489 l 1,5,-1
 113 283 l 1,6,-1
 387 283 l 1,7,-1
 387 489 l 1,8,-1
 460 489 l 1,9,-1
 460 0 l 1,10,-1
 387 0 l 1,11,-1
 387 228 l 1,0,-1
EndSplineSet
EndChar
StartChar: I
Encoding: 73 73 42
Width: 151
Flags: W
Fore
38 489 m 1,0,-1
 111 489 l 1,1,-1
 111 0 l 1,2,-1
 38 0 l 1,3,-1
 38 489 l 1,0,-1
EndSplineSet
KernsSLIFO: 84 -10 0 0 83 -10 0 0 81 -10 0 0 80 -10 0 0 79 -10 0 0 78 -10 0 0 72 -20 0 0 70 -20 0 0 69 -20 0 0 68 -10 0 0 66 -20 0 0
EndChar
StartChar: J
Encoding: 74 74 43
Width: 442
Flags: W
Fore
88 170 m 1,0,1
 88 147 88 147 96 125.5 c 128,-1,2
 104 104 104 104 117.5 87.5 c 128,-1,3
 131 71 131 71 149 61 c 128,-1,4
 167 51 167 51 188 51 c 0,5,6
 215 51 215 51 240 60.5 c 128,-1,7
 265 70 265 70 283.5 86.5 c 128,-1,8
 302 103 302 103 313 126 c 128,-1,9
 324 149 324 149 324 176 c 2,10,-1
 324 489 l 1,11,-1
 398 489 l 1,12,-1
 398 176 l 2,13,14
 398 135 398 135 381.5 100.5 c 128,-1,15
 365 66 365 66 336.5 41.5 c 128,-1,16
 308 17 308 17 269.5 3.5 c 128,-1,17
 231 -10 231 -10 188 -10 c 0,18,19
 152 -10 152 -10 120 5 c 128,-1,20
 88 20 88 20 64.5 45 c 128,-1,21
 41 70 41 70 27.5 102.5 c 128,-1,22
 14 135 14 135 14 170 c 1,23,-1
 88 170 l 1,0,1
EndSplineSet
KernsSLIFO: 135 -10 0 0 34 -20 0 0
EndChar
StartChar: K
Encoding: 75 75 44
Width: 485
Flags: W
Fore
373 0 m 1,0,-1
 192 176 l 2,1,2
 172 193 172 193 150 202.5 c 128,-1,3
 128 212 128 212 113 214 c 1,4,-1
 113 0 l 1,5,-1
 40 0 l 1,6,-1
 40 489 l 1,7,-1
 113 489 l 1,8,-1
 113 298 l 1,9,10
 176 346 176 346 241.5 394 c 128,-1,11
 307 442 307 442 371 489 c 1,12,-1
 471 489 l 1,13,-1
 169 260 l 1,14,15
 201 253 201 253 226 233 c 128,-1,16
 251 213 251 213 274 193 c 0,17,18
 275 192 275 192 282.5 184.5 c 128,-1,19
 290 177 290 177 310.5 156 c 128,-1,20
 331 135 331 135 369 98 c 128,-1,21
 407 61 407 61 469 0 c 1,22,-1
 373 0 l 1,0,-1
EndSplineSet
KernsSLIFO: 196 -25 0 0 195 -20 0 0 185 -25 0 0 167 -25 0 0 153 -20 0 0 90 -25 0 0 88 -50 0 0 87 -50 0 0 86 -25 0 0 80 -25 0 0 70 -25 0 0 66 -30 0 0 48 -20 0 0 14 -30 0 0
EndChar
StartChar: L
Encoding: 76 76 45
Width: 444
Flags: W
Fore
97 0 m 2,0,1
 74 0 74 0 57 15.5 c 128,-1,2
 40 31 40 31 40 51 c 2,3,-1
 40 489 l 1,4,-1
 113 489 l 1,5,-1
 113 56 l 1,6,-1
 419 56 l 1,7,-1
 419 0 l 1,8,-1
 97 0 l 2,0,1
EndSplineSet
KernsSLIFO: 309 -100 0 0 306 -100 0 0 195 -18 0 0 153 -18 0 0 136 -18 0 0 90 -20 0 0 87 -60 0 0 58 -100 0 0 56 -94 0 0 55 -104 0 0 53 -100 0 0 50 -18 0 0 48 -18 0 0 40 -18 0 0 36 -18 0 0 14 -40 0 0 8 -40 0 0
EndChar
StartChar: M
Encoding: 77 77 46
Width: 629
Flags: W
Fore
312 -23 m 1,0,-1
 114 332 l 1,1,-1
 114 0 l 1,2,-1
 41 0 l 1,3,-1
 41 491 l 1,4,-1
 110 491 l 1,5,-1
 312 133 l 1,6,-1
 512 491 l 1,7,-1
 581 491 l 1,8,-1
 581 0 l 1,9,-1
 508 0 l 1,10,-1
 508 330 l 1,11,-1
 312 -23 l 1,0,-1
EndSplineSet
EndChar
StartChar: N
Encoding: 78 78 47
Width: 527
Flags: W
Fore
406 119 m 1,0,-1
 406 491 l 1,1,-1
 482 491 l 1,2,-1
 482 0 l 1,3,-1
 413 0 l 1,4,-1
 113 372 l 1,5,-1
 113 0 l 1,6,-1
 40 0 l 1,7,-1
 40 491 l 1,8,-1
 109 491 l 1,9,-1
 406 119 l 1,0,-1
EndSplineSet
EndChar
StartChar: O
Encoding: 79 79 48
Width: 507
Flags: W
Fore
472 197 m 2,0,1
 472 156 472 156 455.5 118.5 c 128,-1,2
 439 81 439 81 410.5 52.5 c 128,-1,3
 382 24 382 24 344 7 c 128,-1,4
 306 -10 306 -10 263 -10 c 2,5,-1
 205 -10 l 2,6,7
 169 -10 169 -10 137 4 c 128,-1,8
 105 18 105 18 81 42 c 128,-1,9
 57 66 57 66 43.5 97.5 c 128,-1,10
 30 129 30 129 30 163 c 2,11,-1
 30 292 l 2,12,13
 30 334 30 334 46.5 371.5 c 128,-1,14
 63 409 63 409 91.5 437.5 c 128,-1,15
 120 466 120 466 158.5 483 c 128,-1,16
 197 500 197 500 240 500 c 2,17,-1
 297 500 l 2,18,19
 334 500 334 500 366 485.5 c 128,-1,20
 398 471 398 471 421.5 447 c 128,-1,21
 445 423 445 423 458.5 391.5 c 128,-1,22
 472 360 472 360 472 326 c 2,23,-1
 472 197 l 2,0,1
398 326 m 2,24,25
 398 348 398 348 390 369 c 128,-1,26
 382 390 382 390 368.5 406.5 c 128,-1,27
 355 423 355 423 336.5 433.5 c 128,-1,28
 318 444 318 444 297 444 c 2,29,-1
 240 444 l 2,30,31
 213 444 213 444 188.5 431 c 128,-1,32
 164 418 164 418 145.5 397 c 128,-1,33
 127 376 127 376 116 348.5 c 128,-1,34
 105 321 105 321 105 292 c 2,35,-1
 105 163 l 2,36,37
 105 142 105 142 113 121 c 128,-1,38
 121 100 121 100 134.5 83.5 c 128,-1,39
 148 67 148 67 166 56.5 c 128,-1,40
 184 46 184 46 205 46 c 2,41,-1
 263 46 l 2,42,43
 290 46 290 46 314.5 58.5 c 128,-1,44
 339 71 339 71 357.5 92 c 128,-1,45
 376 113 376 113 387 140.5 c 128,-1,46
 398 168 398 168 398 197 c 2,47,-1
 398 326 l 2,24,25
EndSplineSet
KernsSLIFO: 314 -29 0 0 59 -18 0 0 58 -18 0 0 57 -10 0 0 43 20 0 0 15 -29 0 0 13 -29 0 0
EndChar
StartChar: P
Encoding: 80 80 49
Width: 486
Flags: W
Fore
40 489 m 1,0,-1
 318 489 l 2,1,2
 348 489 348 489 373.5 478.5 c 128,-1,3
 399 468 399 468 418.5 450 c 128,-1,4
 438 432 438 432 449 408 c 128,-1,5
 460 384 460 384 460 357 c 256,6,7
 460 330 460 330 449 306 c 128,-1,8
 438 282 438 282 418.5 265 c 128,-1,9
 399 248 399 248 373.5 238 c 128,-1,10
 348 228 348 228 318 228 c 2,11,-1
 113 228 l 1,12,-1
 113 0 l 1,13,-1
 40 0 l 1,14,-1
 40 489 l 1,0,-1
113 434 m 1,15,-1
 113 283 l 1,16,-1
 318 283 l 2,17,18
 347 283 347 283 367 305 c 128,-1,19
 387 327 387 327 387 357 c 256,20,21
 387 387 387 387 367 410.5 c 128,-1,22
 347 434 347 434 318 434 c 2,23,-1
 113 434 l 1,15,-1
EndSplineSet
KernsSLIFO: 314 -100 0 0 196 -47 0 0 185 -47 0 0 167 -47 0 0 135 -100 0 0 80 -47 0 0 70 -47 0 0 66 -40 0 0 58 -30 0 0 43 -70 0 0 34 -100 0 0 15 -100 0 0 13 -100 0 0
EndChar
StartChar: Q
Encoding: 81 81 50
Width: 506
Flags: W
Fore
384 30 m 1,0,1
 359 11 359 11 328 0.5 c 128,-1,2
 297 -10 297 -10 262 -10 c 2,3,-1
 204 -10 l 2,4,5
 168 -10 168 -10 136 4 c 128,-1,6
 104 18 104 18 80 42 c 128,-1,7
 56 66 56 66 42.5 97.5 c 128,-1,8
 29 129 29 129 29 163 c 2,9,-1
 29 292 l 2,10,11
 29 334 29 334 45.5 371.5 c 128,-1,12
 62 409 62 409 91 437.5 c 128,-1,13
 120 466 120 466 158 483 c 128,-1,14
 196 500 196 500 240 500 c 2,15,-1
 296 500 l 2,16,17
 333 500 333 500 365 485.5 c 128,-1,18
 397 471 397 471 420.5 447 c 128,-1,19
 444 423 444 423 457.5 391.5 c 128,-1,20
 471 360 471 360 471 326 c 2,21,-1
 471 197 l 2,22,23
 471 165 471 165 460.5 134.5 c 128,-1,24
 450 104 450 104 431 77 c 1,25,26
 442 66 442 66 454.5 53.5 c 128,-1,27
 467 41 467 41 477 30 c 1,28,-1
 428 -16 l 1,29,-1
 384 30 l 1,0,1
397 326 m 2,30,31
 397 348 397 348 389 369 c 128,-1,32
 381 390 381 390 367.5 406.5 c 128,-1,33
 354 423 354 423 335.5 433.5 c 128,-1,34
 317 444 317 444 296 444 c 2,35,-1
 240 444 l 2,36,37
 212 444 212 444 187.5 431 c 128,-1,38
 163 418 163 418 144.5 397 c 128,-1,39
 126 376 126 376 115 348.5 c 128,-1,40
 104 321 104 321 104 292 c 2,41,-1
 104 163 l 2,42,43
 104 142 104 142 112 121 c 128,-1,44
 120 100 120 100 133.5 83.5 c 128,-1,45
 147 67 147 67 165 56.5 c 128,-1,46
 183 46 183 46 204 46 c 2,47,-1
 262 46 l 2,48,49
 301 46 301 46 337 74 c 1,50,-1
 264 147 l 1,51,-1
 314 193 l 1,52,-1
 381 127 l 1,53,54
 397 161 397 161 397 197 c 2,55,-1
 397 326 l 2,30,31
EndSplineSet
KernsSLIFO: 314 -29 0 0 13 20 0 0
EndChar
StartChar: R
Encoding: 82 82 51
Width: 495
Flags: W
Fore
40 489 m 1,0,-1
 318 489 l 2,1,2
 348 489 348 489 374 478.5 c 128,-1,3
 400 468 400 468 419.5 450 c 128,-1,4
 439 432 439 432 450 408 c 128,-1,5
 461 384 461 384 461 357 c 256,6,7
 461 330 461 330 451 307.5 c 128,-1,8
 441 285 441 285 423 268 c 128,-1,9
 405 251 405 251 381 240.5 c 128,-1,10
 357 230 357 230 330 228 c 1,11,12
 340 217 340 217 350 202 c 2,13,-1
 487 0 l 1,14,-1
 403 0 l 1,15,-1
 271 195 l 1,16,-1
 272 194 l 1,17,18
 263 206 263 206 251 217 c 128,-1,19
 239 228 239 228 231 228 c 2,20,-1
 114 228 l 1,21,-1
 114 0 l 1,22,-1
 40 0 l 1,23,-1
 40 489 l 1,0,-1
114 434 m 1,24,-1
 114 283 l 1,25,-1
 318 283 l 2,26,27
 347 283 347 283 367 305 c 128,-1,28
 387 327 387 327 387 357 c 256,29,30
 387 387 387 387 367 410.5 c 128,-1,31
 347 434 347 434 318 434 c 2,32,-1
 114 434 l 1,24,-1
EndSplineSet
KernsSLIFO: 309 -10 0 0 306 -10 0 0 196 -55 0 0 185 -20 0 0 167 -20 0 0 90 -10 0 0 86 -10 0 0 80 -10 0 0 70 -10 0 0 66 -10 0 0 58 -40 0 0
EndChar
StartChar: S
Encoding: 83 83 52
Width: 548
Flags: W
Fore
104 164 m 1,0,1
 104 140 104 140 112.5 119 c 128,-1,2
 121 98 121 98 135.5 81.5 c 128,-1,3
 150 65 150 65 169.5 55.5 c 128,-1,4
 189 46 189 46 212 46 c 2,5,-1
 316 46 l 2,6,7
 341 46 341 46 363.5 54 c 128,-1,8
 386 62 386 62 402.5 76 c 128,-1,9
 419 90 419 90 428.5 108 c 128,-1,10
 438 126 438 126 438 146 c 0,11,12
 438 156 438 156 435.5 168.5 c 128,-1,13
 433 181 433 181 425.5 193 c 128,-1,14
 418 205 418 205 405.5 214.5 c 128,-1,15
 393 224 393 224 373 228 c 2,16,-1
 167 252 l 2,17,18
 124 259 124 259 100.5 273.5 c 128,-1,19
 77 288 77 288 65.5 304.5 c 128,-1,20
 54 321 54 321 52 338 c 128,-1,21
 50 355 50 355 50 368 c 0,22,23
 50 404 50 404 69 429.5 c 128,-1,24
 88 455 88 455 115.5 470.5 c 128,-1,25
 143 486 143 486 173 493.5 c 128,-1,26
 203 501 203 501 225 501 c 2,27,-1
 330 501 l 2,28,29
 363 501 363 501 392 490 c 128,-1,30
 421 479 421 479 443 459 c 128,-1,31
 465 439 465 439 478 411 c 128,-1,32
 491 383 491 383 491 348 c 1,33,-1
 417 348 l 1,34,35
 417 368 417 368 410 386 c 128,-1,36
 403 404 403 404 391 417.5 c 128,-1,37
 379 431 379 431 363.5 438.5 c 128,-1,38
 348 446 348 446 330 446 c 2,39,-1
 225 446 l 2,40,41
 213 446 213 446 195.5 441 c 128,-1,42
 178 436 178 436 162 426 c 128,-1,43
 146 416 146 416 135 401.5 c 128,-1,44
 124 387 124 387 124 368 c 0,45,46
 124 362 124 362 125.5 353.5 c 128,-1,47
 127 345 127 345 132.5 337 c 128,-1,48
 138 329 138 329 149 322.5 c 128,-1,49
 160 316 160 316 179 313 c 2,50,-1
 382 287 l 2,51,52
 425 281 425 281 451 264.5 c 128,-1,53
 477 248 477 248 490 228 c 128,-1,54
 503 208 503 208 507 186 c 128,-1,55
 511 164 511 164 511 146 c 0,56,57
 511 113 511 113 496 84.5 c 128,-1,58
 481 56 481 56 454.5 35 c 128,-1,59
 428 14 428 14 392.5 2 c 128,-1,60
 357 -10 357 -10 316 -10 c 2,61,-1
 212 -10 l 2,62,63
 174 -10 174 -10 140.5 3.5 c 128,-1,64
 107 17 107 17 82.5 40 c 128,-1,65
 58 63 58 63 44 95 c 128,-1,66
 30 127 30 127 30 164 c 1,67,-1
 104 164 l 1,0,1
EndSplineSet
KernsSLIFO: 314 -40 0 0 135 -18 0 0 90 -10 0 0 88 -18 0 0 87 -20 0 0 82 6 0 0 80 4 0 0 70 4 0 0 68 4 0 0 52 -10 0 0 34 -14 0 0 15 -30 0 0 13 -30 0 0
EndChar
StartChar: T
Encoding: 84 84 53
Width: 423
Flags: W
Fore
173 434 m 1,0,-1
 19 434 l 1,1,-1
 19 489 l 1,2,-1
 399 489 l 1,3,-1
 399 434 l 1,4,-1
 247 434 l 1,5,-1
 247 0 l 1,6,-1
 173 0 l 1,7,-1
 173 434 l 1,0,-1
EndSplineSet
KernsSLIFO: 314 -120 0 0 196 -100 0 0 195 -47 0 0 185 -100 0 0 167 -100 0 0 153 -47 0 0 136 -47 0 0 135 -100 0 0 91 -60 0 0 90 -60 0 0 88 -60 0 0 87 -60 0 0 86 -60 0 0 84 -60 0 0 83 -40 0 0 80 -100 0 0 72 -100 0 0 70 -100 0 0 68 -100 0 0 66 -100 0 0 53 10 0 0 52 -30 0 0 48 -47 0 0 43 -80 0 0 40 -39 0 0 36 -39 0 0 34 -115 0 0 32 20 0 0 28 -50 0 0 27 -50 0 0 15 -100 0 0 13 -40 0 0 10 20 0 0
EndChar
StartChar: U
Encoding: 85 85 54
Width: 517
Flags: W
Fore
109 489 m 1,0,-1
 109 163 l 2,1,2
 109 142 109 142 117 121 c 128,-1,3
 125 100 125 100 138.5 83.5 c 128,-1,4
 152 67 152 67 170.5 56.5 c 128,-1,5
 189 46 189 46 210 46 c 2,6,-1
 267 46 l 2,7,8
 294 46 294 46 319 58.5 c 128,-1,9
 344 71 344 71 362.5 92 c 128,-1,10
 381 113 381 113 392 140.5 c 128,-1,11
 403 168 403 168 403 197 c 2,12,-1
 403 489 l 1,13,-1
 476 489 l 1,14,-1
 476 197 l 2,15,16
 476 156 476 156 459.5 118.5 c 128,-1,17
 443 81 443 81 414.5 52.5 c 128,-1,18
 386 24 386 24 348 7 c 128,-1,19
 310 -10 310 -10 267 -10 c 2,20,-1
 210 -10 l 2,21,22
 173 -10 173 -10 141 4 c 128,-1,23
 109 18 109 18 85 42 c 128,-1,24
 61 66 61 66 47.5 97.5 c 128,-1,25
 34 129 34 129 34 163 c 2,26,-1
 34 489 l 1,27,-1
 109 489 l 1,0,-1
EndSplineSet
KernsSLIFO: 314 -40 0 0 135 -40 0 0 34 -40 0 0 15 -40 0 0 13 -40 0 0
EndChar
StartChar: V
Encoding: 86 86 55
Width: 510
Flags: W
Fore
411 489 m 1,0,-1
 488 489 l 1,1,-1
 289 -5 l 1,2,3
 246 -5 246 -5 224 9 c 128,-1,4
 202 23 202 23 190 50 c 2,5,-1
 17 489 l 1,6,-1
 94 489 l 1,7,-1
 250 93 l 1,8,-1
 411 489 l 1,0,-1
EndSplineSet
KernsSLIFO: 314 -100 0 0 196 -50 0 0 185 -94 0 0 167 -94 0 0 135 -140 0 0 90 -50 0 0 86 -50 0 0 80 -50 0 0 70 -50 0 0 66 -50 0 0 34 -140 0 0 28 -70 0 0 27 -70 0 0 15 -100 0 0 14 -47 0 0 13 -100 0 0
EndChar
StartChar: W
Encoding: 87 87 56
Width: 758
Flags: W
Fore
273 -5 m 1,0,1
 229 -5 229 -5 206 9 c 128,-1,2
 183 23 183 23 170 50 c 2,3,-1
 18 489 l 1,4,-1
 95 489 l 1,5,-1
 229 103 l 1,6,7
 257 205 257 205 283.5 299 c 128,-1,8
 310 393 310 393 339 495 c 1,9,10
 348 495 348 495 360 494 c 128,-1,11
 372 493 372 493 383.5 489.5 c 128,-1,12
 395 486 395 486 405 478.5 c 128,-1,13
 415 471 415 471 420 459 c 2,14,-1
 520 103 l 1,15,16
 554 202 554 202 587.5 296.5 c 128,-1,17
 621 391 621 391 654 489 c 1,18,-1
 732 489 l 1,19,-1
 579 50 l 2,20,21
 567 23 567 23 543.5 9 c 128,-1,22
 520 -5 520 -5 477 -5 c 1,23,-1
 376 367 l 1,24,-1
 273 -5 l 1,0,1
EndSplineSet
KernsSLIFO: 314 -100 0 0 196 -76 0 0 185 -76 0 0 167 -76 0 0 135 -120 0 0 90 -37 0 0 86 -37 0 0 83 -37 0 0 80 -76 0 0 70 -76 0 0 66 -76 0 0 34 -120 0 0 28 -76 0 0 27 -76 0 0 15 -100 0 0 14 -47 0 0 13 -100 0 0
EndChar
StartChar: X
Encoding: 88 88 57
Width: 500
Flags: W
Fore
102 0 m 1,0,-1
 13 0 l 1,1,-1
 202 244 l 1,2,3
 157 303 157 303 107.5 367 c 128,-1,4
 58 431 58 431 13 489 c 1,5,-1
 102 489 l 1,6,-1
 246 300 l 1,7,-1
 393 489 l 1,8,-1
 481 489 l 1,9,-1
 291 244 l 1,10,11
 337 186 337 186 386.5 122 c 128,-1,12
 436 58 436 58 481 0 c 1,13,-1
 393 0 l 1,14,-1
 247 188 l 1,15,-1
 102 0 l 1,0,-1
EndSplineSet
KernsSLIFO: 196 -30 0 0 195 -45 0 0 185 -30 0 0 167 -47 0 0 153 -30 0 0 136 -30 0 0 90 -45 0 0 86 -45 0 0 80 -45 0 0 70 -45 0 0 66 -37 0 0 48 -30 0 0 40 -30 0 0 36 -30 0 0 14 -40 0 0
EndChar
StartChar: Y
Encoding: 89 89 58
Width: 487
Flags: W
Fore
277 0 m 1,0,-1
 203 0 l 1,1,-1
 203 243 l 1,2,-1
 13 489 l 1,3,-1
 96 489 l 1,4,-1
 239 300 l 1,5,-1
 386 489 l 1,6,-1
 468 489 l 1,7,-1
 277 243 l 1,8,-1
 277 0 l 1,0,-1
EndSplineSet
KernsSLIFO: 314 -140 0 0 196 -123 0 0 195 -40 0 0 185 -123 0 0 167 -131 0 0 153 -40 0 0 135 -120 0 0 87 -94 0 0 86 -104 0 0 84 -104 0 0 83 -60 0 0 82 -123 0 0 81 -60 0 0 80 -123 0 0 79 -60 0 0 78 -60 0 0 72 -123 0 0 70 -123 0 0 69 -115 0 0 66 -131 0 0 48 -40 0 0 43 -120 0 0 34 -120 0 0 28 -70 0 0 27 -70 0 0 15 -100 0 0 14 -70 0 0 13 -100 0 0
EndChar
StartChar: Z
Encoding: 90 90 59
Width: 504
Flags: W
Fore
36 434 m 1,0,-1
 36 489 l 1,1,-1
 485 489 l 1,2,-1
 149 56 l 1,3,-1
 461 56 l 1,4,-1
 461 0 l 1,5,-1
 13 0 l 1,6,-1
 351 434 l 1,7,-1
 36 434 l 1,0,-1
EndSplineSet
KernsSLIFO: 196 -20 0 0 195 -40 0 0 185 -20 0 0 167 -47 0 0 153 -18 0 0 136 -18 0 0 88 -60 0 0 70 -20 0 0 59 10 0 0 48 -40 0 0 40 -40 0 0 36 -40 0 0 14 -55 0 0
EndChar
StartChar: bracketleft
Encoding: 91 91 60
Width: 216
Flags: W
Fore
102 -58 m 2,0,1
 102 -75 102 -75 116.5 -81.5 c 128,-1,2
 131 -88 131 -88 147 -88 c 2,3,-1
 186 -88 l 1,4,-1
 186 -141 l 1,5,-1
 147 -141 l 2,6,7
 124 -141 124 -141 103 -136.5 c 128,-1,8
 82 -132 82 -132 66 -122.5 c 128,-1,9
 50 -113 50 -113 40.5 -98 c 128,-1,10
 31 -83 31 -83 31 -61 c 2,11,-1
 31 459 l 2,12,13
 31 481 31 481 40.5 496.5 c 128,-1,14
 50 512 50 512 66 522 c 128,-1,15
 82 532 82 532 103 536.5 c 128,-1,16
 124 541 124 541 147 541 c 2,17,-1
 186 541 l 1,18,-1
 186 488 l 1,19,-1
 147 488 l 2,20,21
 131 488 131 488 116.5 481 c 128,-1,22
 102 474 102 474 102 456 c 2,23,-1
 102 -58 l 2,0,1
EndSplineSet
KernsSLIFO: 75 70 0 0
EndChar
StartChar: bracketright
Encoding: 93 93 62
Width: 216
Flags: W
Fore
115 456 m 2,0,1
 115 474 115 474 100.5 481 c 128,-1,2
 86 488 86 488 70 488 c 2,3,-1
 31 488 l 1,4,-1
 31 541 l 1,5,-1
 70 541 l 2,6,7
 93 541 93 541 114 536.5 c 128,-1,8
 135 532 135 532 151 522 c 128,-1,9
 167 512 167 512 176.5 496.5 c 128,-1,10
 186 481 186 481 186 459 c 2,11,-1
 186 -61 l 2,12,13
 186 -83 186 -83 176.5 -98 c 128,-1,14
 167 -113 167 -113 151 -122.5 c 128,-1,15
 135 -132 135 -132 114 -136.5 c 128,-1,16
 93 -141 93 -141 70 -141 c 2,17,-1
 31 -141 l 1,18,-1
 31 -88 l 1,19,-1
 70 -88 l 2,20,21
 86 -88 86 -88 100.5 -81.5 c 128,-1,22
 115 -75 115 -75 115 -58 c 2,23,-1
 115 456 l 2,0,1
EndSplineSet
EndChar
StartChar: asciicircum
Encoding: 94 94 63
Width: 489
Flags: W
Fore
238 422 m 1,0,-1
 122 245 l 1,1,-1
 47 245 l 1,2,-1
 238 543 l 1,3,-1
 432 245 l 1,4,-1
 357 245 l 1,5,-1
 238 422 l 1,0,-1
EndSplineSet
EndChar
StartChar: underscore
Encoding: 95 95 64
Width: 389
Flags: W
Fore
-7 -90 m 1,0,-1
 -7 -35 l 1,1,-1
 391 -35 l 1,2,-1
 391 -90 l 1,3,-1
 -7 -90 l 1,0,-1
EndSplineSet
EndChar
StartChar: grave
Encoding: 96 96 65
Width: 239
Flags: W
Fore
50 472 m 1,0,-1
 86 504 l 1,1,-1
 191 410 l 1,2,3
 184 404 184 404 178 398 c 0,4,5
 173 393 173 393 166.5 387.5 c 128,-1,6
 160 382 160 382 156 378 c 1,7,-1
 50 472 l 1,0,-1
EndSplineSet
EndChar
StartChar: a
Encoding: 97 97 66
Width: 383
Flags: W
Fore
274 25 m 1,0,1
 254 11 254 11 230 3 c 128,-1,2
 206 -5 206 -5 185 -5 c 2,3,-1
 144 -5 l 2,4,5
 117 -5 117 -5 95.5 5 c 128,-1,6
 74 15 74 15 58.5 31.5 c 128,-1,7
 43 48 43 48 35 70.5 c 128,-1,8
 27 93 27 93 27 117 c 2,9,-1
 27 209 l 2,10,11
 27 239 27 239 39 265.5 c 128,-1,12
 51 292 51 292 72 312.5 c 128,-1,13
 93 333 93 333 120.5 344.5 c 128,-1,14
 148 356 148 356 179 356 c 2,15,-1
 220 356 l 2,16,17
 240 356 240 356 252.5 347.5 c 128,-1,18
 265 339 265 339 274 333 c 1,19,-1
 274 351 l 1,20,-1
 348 351 l 1,21,-1
 348 -2 l 1,22,-1
 274 -2 l 1,23,-1
 274 25 l 1,0,1
274 227 m 2,24,25
 273 238 273 238 268 251 c 128,-1,26
 263 264 263 264 256 275 c 128,-1,27
 249 286 249 286 239.5 293 c 128,-1,28
 230 300 230 300 220 300 c 2,29,-1
 179 300 l 2,30,31
 163 300 163 300 148.5 292.5 c 128,-1,32
 134 285 134 285 123.5 272 c 128,-1,33
 113 259 113 259 107 243 c 128,-1,34
 101 227 101 227 101 209 c 2,35,-1
 101 117 l 2,36,37
 101 93 101 93 112 71.5 c 128,-1,38
 123 50 123 50 144 50 c 2,39,-1
 185 50 l 2,40,41
 201 50 201 50 216.5 57.5 c 128,-1,42
 232 65 232 65 244.5 77 c 128,-1,43
 257 89 257 89 265 105 c 128,-1,44
 273 121 273 121 274 138 c 2,45,-1
 274 227 l 2,24,25
EndSplineSet
KernsSLIFO: 90 -14 0 0 88 -10 0 0 87 -14 0 0
Substitution: 0 65534 'L026' uni0E38
Substitution: 0 65534 'L026' uni0E38
EndChar
StartChar: b
Encoding: 98 98 67
Width: 384
Flags: W
Fore
31 484 m 1,0,-1
 105 484 l 1,1,-1
 105 328 l 1,2,3
 120 339 120 339 139.5 347.5 c 128,-1,4
 159 356 159 356 185 356 c 2,5,-1
 227 356 l 2,6,7
 254 356 254 356 276.5 346 c 128,-1,8
 299 336 299 336 315.5 319 c 128,-1,9
 332 302 332 302 341.5 280 c 128,-1,10
 351 258 351 258 351 234 c 2,11,-1
 351 141 l 2,12,13
 351 111 351 111 339.5 84.5 c 128,-1,14
 328 58 328 58 308 38 c 128,-1,15
 288 18 288 18 260.5 6.5 c 128,-1,16
 233 -5 233 -5 202 -5 c 2,17,-1
 161 -5 l 2,18,19
 142 -5 142 -5 129 0 c 128,-1,20
 116 5 116 5 105 12 c 1,21,-1
 105 0 l 1,22,-1
 31 0 l 1,23,-1
 31 484 l 1,0,-1
278 235 m 2,24,25
 278 247 278 247 274 258.5 c 128,-1,26
 270 270 270 270 263.5 279 c 128,-1,27
 257 288 257 288 247.5 294 c 128,-1,28
 238 300 238 300 227 300 c 2,29,-1
 185 300 l 2,30,31
 156 300 156 300 133 277 c 128,-1,32
 110 254 110 254 105 225 c 1,33,-1
 105 109 l 1,34,35
 109 88 109 88 125 69 c 128,-1,36
 141 50 141 50 161 50 c 2,37,-1
 202 50 l 2,38,39
 218 50 218 50 232 58 c 128,-1,40
 246 66 246 66 256 79 c 128,-1,41
 266 92 266 92 272 109 c 128,-1,42
 278 126 278 126 278 143 c 2,43,-1
 278 235 l 2,24,25
EndSplineSet
KernsSLIFO: 314 -18 0 0 90 -4 0 0 15 -18 0 0 13 -29 0 0
Substitution: 0 65534 'L026' uni0E39
Substitution: 0 65534 'L026' uni0E39
EndChar
StartChar: c
Encoding: 99 99 68
Width: 380
Flags: W
Fore
273 235 m 1,0,1
 273 261 273 261 257.5 280.5 c 128,-1,2
 242 300 242 300 219 300 c 2,3,-1
 179 300 l 2,4,5
 163 300 163 300 148.5 292.5 c 128,-1,6
 134 285 134 285 123.5 272 c 128,-1,7
 113 259 113 259 107 243 c 128,-1,8
 101 227 101 227 101 209 c 2,9,-1
 101 117 l 2,10,11
 101 93 101 93 116.5 71.5 c 128,-1,12
 132 50 132 50 155 50 c 2,13,-1
 196 50 l 2,14,15
 228 50 228 50 251 73.5 c 128,-1,16
 274 97 274 97 274 135 c 1,17,-1
 348 135 l 1,18,19
 348 103 348 103 336 77 c 128,-1,20
 324 51 324 51 303 33 c 128,-1,21
 282 15 282 15 254.5 5 c 128,-1,22
 227 -5 227 -5 196 -5 c 2,23,-1
 155 -5 l 2,24,25
 128 -5 128 -5 104.5 5 c 128,-1,26
 81 15 81 15 64 31.5 c 128,-1,27
 47 48 47 48 37 70.5 c 128,-1,28
 27 93 27 93 27 117 c 2,29,-1
 27 209 l 2,30,31
 27 239 27 239 39 265.5 c 128,-1,32
 51 292 51 292 72 312.5 c 128,-1,33
 93 333 93 333 120.5 344.5 c 128,-1,34
 148 356 148 356 179 356 c 2,35,-1
 219 356 l 2,36,37
 246 356 246 356 269.5 347 c 128,-1,38
 293 338 293 338 310 322 c 128,-1,39
 327 306 327 306 337 283.5 c 128,-1,40
 347 261 347 261 347 235 c 1,41,-1
 273 235 l 1,0,1
EndSplineSet
KernsSLIFO: 168 -6 0 0 68 -6 0 0 53 -96 0 0 14 -18 0 0
Substitution: 0 65534 'L026' uni0E3A
Substitution: 0 65534 'L026' uni0E3A
EndChar
StartChar: d
Encoding: 100 100 69
Width: 385
Flags: W
Fore
274 25 m 1,0,1
 258 14 258 14 234.5 4.5 c 128,-1,2
 211 -5 211 -5 185 -5 c 2,3,-1
 144 -5 l 2,4,5
 117 -5 117 -5 95.5 5 c 128,-1,6
 74 15 74 15 58.5 31.5 c 128,-1,7
 43 48 43 48 35 70.5 c 128,-1,8
 27 93 27 93 27 117 c 2,9,-1
 27 209 l 2,10,11
 27 239 27 239 39 265.5 c 128,-1,12
 51 292 51 292 72 312.5 c 128,-1,13
 93 333 93 333 120.5 344.5 c 128,-1,14
 148 356 148 356 179 356 c 2,15,-1
 220 356 l 2,16,17
 240 356 240 356 253 353 c 128,-1,18
 266 350 266 350 274 345 c 1,19,-1
 274 484 l 1,20,-1
 348 484 l 1,21,-1
 348 -2 l 1,22,-1
 274 -2 l 1,23,-1
 274 25 l 1,0,1
274 237 m 2,24,25
 273 248 273 248 268 259.5 c 128,-1,26
 263 271 263 271 256 280 c 128,-1,27
 249 289 249 289 239.5 294.5 c 128,-1,28
 230 300 230 300 220 300 c 2,29,-1
 179 300 l 2,30,31
 163 300 163 300 148.5 292.5 c 128,-1,32
 134 285 134 285 123.5 272 c 128,-1,33
 113 259 113 259 107 243 c 128,-1,34
 101 227 101 227 101 209 c 2,35,-1
 101 117 l 2,36,37
 101 93 101 93 112 71.5 c 128,-1,38
 123 50 123 50 144 50 c 2,39,-1
 185 50 l 2,40,41
 201 50 201 50 216.5 57.5 c 128,-1,42
 232 65 232 65 244.5 77 c 128,-1,43
 257 89 257 89 265 105 c 128,-1,44
 273 121 273 121 274 138 c 2,45,-1
 274 237 l 2,24,25
EndSplineSet
EndChar
StartChar: e
Encoding: 101 101 70
Width: 381
Flags: W
Fore
101 117 m 2,0,1
 101 93 101 93 116.5 71.5 c 128,-1,2
 132 50 132 50 155 50 c 2,3,-1
 196 50 l 2,4,5
 228 50 228 50 251 75.5 c 128,-1,6
 274 101 274 101 274 139 c 1,7,-1
 348 139 l 1,8,9
 348 107 348 107 336 81 c 128,-1,10
 324 55 324 55 303 35.5 c 128,-1,11
 282 16 282 16 254.5 5.5 c 128,-1,12
 227 -5 227 -5 196 -5 c 2,13,-1
 155 -5 l 2,14,15
 128 -5 128 -5 104.5 5 c 128,-1,16
 81 15 81 15 64 31.5 c 128,-1,17
 47 48 47 48 37 70.5 c 128,-1,18
 27 93 27 93 27 117 c 2,19,-1
 27 209 l 2,20,21
 27 239 27 239 39 265.5 c 128,-1,22
 51 292 51 292 72 312.5 c 128,-1,23
 93 333 93 333 120.5 344.5 c 128,-1,24
 148 356 148 356 179 356 c 2,25,-1
 220 356 l 2,26,27
 247 356 247 356 270.5 346 c 128,-1,28
 294 336 294 336 311 319 c 128,-1,29
 328 302 328 302 338 280 c 128,-1,30
 348 258 348 258 348 234 c 2,31,-1
 348 175 l 1,32,-1
 101 175 l 1,33,-1
 101 117 l 2,0,1
179 300 m 2,34,35
 149 300 149 300 127 278 c 128,-1,36
 105 256 105 256 101 225 c 1,37,-1
 274 225 l 1,38,-1
 274 234 l 2,39,40
 274 246 274 246 270 257.5 c 128,-1,41
 266 269 266 269 258.5 278.5 c 128,-1,42
 251 288 251 288 241 294 c 128,-1,43
 231 300 231 300 220 300 c 2,44,-1
 179 300 l 2,34,35
EndSplineSet
KernsSLIFO: 53 -80 0 0
EndChar
StartChar: f
Encoding: 102 102 71
Width: 235
Flags: W
Fore
81 300 m 1,0,-1
 14 300 l 1,1,-1
 14 351 l 1,2,-1
 81 351 l 1,3,4
 83 379 83 379 96.5 403 c 128,-1,5
 110 427 110 427 132.5 445 c 128,-1,6
 155 463 155 463 184 473.5 c 128,-1,7
 213 484 213 484 246 484 c 1,8,-1
 246 424 l 1,9,10
 210 424 210 424 184.5 402.5 c 128,-1,11
 159 381 159 381 154 351 c 1,12,-1
 218 351 l 1,13,-1
 218 300 l 1,14,-1
 154 300 l 1,15,-1
 154 0 l 1,16,-1
 81 0 l 1,17,-1
 81 300 l 1,0,-1
EndSplineSet
KernsSLIFO: 314 -50 0 0 309 40 0 0 306 40 0 0 185 -20 0 0 175 80 0 0 170 -20 0 0 167 -25 0 0 97 40 0 0 94 40 0 0 90 -25 0 0 86 -20 0 0 84 -23 0 0 83 -10 0 0 82 -10 0 0 81 -10 0 0 80 -20 0 0 79 20 0 0 78 20 0 0 75 30 0 0 72 -10 0 0 71 -40 0 0 70 -20 0 0 68 -20 0 0 66 -25 0 0 62 30 0 0 61 60 0 0 32 50 0 0 15 -50 0 0 11 40 0 0 10 40 0 0 8 40 0 0
EndChar
StartChar: g
Encoding: 103 103 72
Width: 385
Flags: W
Fore
274 44 m 1,0,1
 257 32 257 32 238 25.5 c 128,-1,2
 219 19 219 19 196 19 c 2,3,-1
 155 19 l 2,4,5
 128 19 128 19 104.5 29 c 128,-1,6
 81 39 81 39 64 56 c 128,-1,7
 47 73 47 73 37 95.5 c 128,-1,8
 27 118 27 118 27 142 c 2,9,-1
 27 209 l 2,10,11
 27 239 27 239 39 265.5 c 128,-1,12
 51 292 51 292 72 312.5 c 128,-1,13
 93 333 93 333 120.5 344.5 c 128,-1,14
 148 356 148 356 179 356 c 2,15,-1
 220 356 l 2,16,17
 237 356 237 356 250 352 c 128,-1,18
 263 348 263 348 274 341 c 1,19,-1
 274 351 l 1,20,-1
 348 351 l 1,21,-1
 348 2 l 2,22,23
 348 -24 348 -24 334 -46.5 c 128,-1,24
 320 -69 320 -69 297.5 -85.5 c 128,-1,25
 275 -102 275 -102 248 -112 c 128,-1,26
 221 -122 221 -122 194 -122 c 2,27,-1
 152 -122 l 2,28,29
 110 -122 110 -122 76 -97 c 128,-1,30
 42 -72 42 -72 28 -34 c 1,31,-1
 109 -34 l 1,32,33
 118 -48 118 -48 130.5 -59 c 128,-1,34
 143 -70 143 -70 156 -70 c 2,35,-1
 197 -70 l 2,36,37
 227 -70 227 -70 250.5 -49 c 128,-1,38
 274 -28 274 -28 274 2 c 2,39,-1
 274 44 l 1,0,1
274 237 m 2,40,41
 272 260 272 260 256 279.5 c 128,-1,42
 240 299 240 299 220 299 c 2,43,-1
 179 299 l 2,44,45
 163 299 163 299 148.5 291.5 c 128,-1,46
 134 284 134 284 123.5 271.5 c 128,-1,47
 113 259 113 259 107 243 c 128,-1,48
 101 227 101 227 101 209 c 2,49,-1
 101 142 l 2,50,51
 101 118 101 118 116.5 96.5 c 128,-1,52
 132 75 132 75 155 75 c 2,53,-1
 196 75 l 2,54,55
 228 75 228 75 250 101.5 c 128,-1,56
 272 128 272 128 274 162 c 2,57,-1
 274 237 l 2,40,41
EndSplineSet
KernsSLIFO: 75 60 0 0
EndChar
StartChar: h
Encoding: 104 104 73
Width: 388
Flags: W
Fore
278 235 m 2,0,1
 278 247 278 247 274 258.5 c 128,-1,2
 270 270 270 270 263.5 279 c 128,-1,3
 257 288 257 288 247.5 294 c 128,-1,4
 238 300 238 300 227 300 c 2,5,-1
 185 300 l 2,6,7
 156 300 156 300 133 277 c 128,-1,8
 110 254 110 254 105 225 c 1,9,-1
 105 0 l 1,10,-1
 31 0 l 1,11,-1
 31 484 l 1,12,-1
 105 484 l 1,13,-1
 105 330 l 1,14,15
 122 341 122 341 142 348.5 c 128,-1,16
 162 356 162 356 185 356 c 2,17,-1
 227 356 l 2,18,19
 254 356 254 356 276.5 346 c 128,-1,20
 299 336 299 336 315.5 319 c 128,-1,21
 332 302 332 302 341.5 280 c 128,-1,22
 351 258 351 258 351 234 c 2,23,-1
 351 0 l 1,24,-1
 278 0 l 1,25,-1
 278 235 l 2,0,1
EndSplineSet
KernsSLIFO: 90 -18 0 0 88 -10 0 0 87 -18 0 0
EndChar
StartChar: i
Encoding: 105 105 74
Width: 185
Flags: W
Fore
55 351 m 1,0,-1
 127 351 l 1,1,-1
 127 0 l 1,2,-1
 55 0 l 1,3,-1
 55 351 l 1,0,-1
43 436 m 0,4,5
 43 454 43 454 56.5 465.5 c 128,-1,6
 70 477 70 477 92 477 c 256,7,8
 114 477 114 477 128 465.5 c 128,-1,9
 142 454 142 454 142 436 c 0,10,11
 142 417 142 417 128 405 c 128,-1,12
 114 393 114 393 92 393 c 256,13,14
 70 393 70 393 56.5 405 c 128,-1,15
 43 417 43 417 43 436 c 0,4,5
EndSplineSet
KernsSLIFO: 85 -20 0 0 77 2 0 0 74 2 0 0 71 -20 0 0
EndChar
StartChar: j
Encoding: 106 106 75
Width: 185
Flags: W
Fore
54 351 m 1,0,-1
 127 351 l 1,1,-1
 127 8 l 2,2,3
 127 -21 127 -21 115 -47 c 128,-1,4
 103 -73 103 -73 82.5 -92.5 c 128,-1,5
 62 -112 62 -112 34 -123 c 128,-1,6
 6 -134 6 -134 -25 -134 c 2,7,-1
 -80 -134 l 1,8,-1
 -80 -74 l 1,9,-1
 -25 -74 l 2,10,11
 -9 -74 -9 -74 5.5 -67.5 c 128,-1,12
 20 -61 20 -61 30.5 -50 c 128,-1,13
 41 -39 41 -39 47.5 -24 c 128,-1,14
 54 -9 54 -9 54 8 c 2,15,-1
 54 351 l 1,0,-1
43 436 m 0,16,17
 43 454 43 454 56.5 465.5 c 128,-1,18
 70 477 70 477 92 477 c 256,19,20
 114 477 114 477 128 465.5 c 128,-1,21
 142 454 142 454 142 436 c 0,22,23
 142 417 142 417 128 405 c 128,-1,24
 114 393 114 393 92 393 c 256,25,26
 70 393 70 393 56.5 405 c 128,-1,27
 43 417 43 417 43 436 c 0,16,17
EndSplineSet
EndChar
StartChar: k
Encoding: 107 107 76
Width: 366
Flags: W
Fore
160 208 m 1,0,1
 169 203 169 203 177.5 196 c 128,-1,2
 186 189 186 189 192 183 c 1,3,-1
 192 184 l 1,4,-1
 375 0 l 1,5,-1
 281 0 l 1,6,-1
 137 144 l 2,7,8
 121 159 121 159 105 165 c 1,9,-1
 105 0 l 1,10,-1
 31 0 l 1,11,-1
 31 484 l 1,12,-1
 105 484 l 1,13,-1
 105 243 l 1,14,15
 142 271 142 271 179 297.5 c 128,-1,16
 216 324 216 324 252 351 c 1,17,-1
 354 351 l 1,18,-1
 160 208 l 1,0,1
EndSplineSet
KernsSLIFO: 196 -18 0 0 185 -18 0 0 80 -18 0 0 70 -18 0 0 14 -40 0 0
EndChar
StartChar: l
Encoding: 108 108 77
Width: 185
Flags: W
Fore
55 484 m 1,0,-1
 127 484 l 1,1,-1
 127 0 l 1,2,-1
 55 0 l 1,3,-1
 55 484 l 1,0,-1
EndSplineSet
KernsSLIFO: 176 10 0 0 175 10 0 0 85 -20 0 0 77 6 0 0 74 2 0 0 71 -20 0 0
EndChar
StartChar: m
Encoding: 109 109 78
Width: 564
Flags: W
Fore
241 0 m 1,0,-1
 241 234 l 2,1,2
 241 246 241 246 237 257.5 c 128,-1,3
 233 269 233 269 225.5 278.5 c 128,-1,4
 218 288 218 288 208 294 c 128,-1,5
 198 300 198 300 187 300 c 0,6,7
 172 300 172 300 157.5 294 c 128,-1,8
 143 288 143 288 131.5 278 c 128,-1,9
 120 268 120 268 113 254.5 c 128,-1,10
 106 241 106 241 106 226 c 2,11,-1
 106 0 l 1,12,-1
 33 0 l 1,13,-1
 33 351 l 1,14,-1
 106 351 l 1,15,-1
 106 330 l 1,16,17
 123 341 123 341 143.5 348.5 c 128,-1,18
 164 356 164 356 187 356 c 0,19,20
 216 356 216 356 240 344 c 128,-1,21
 264 332 264 332 281 314 c 1,22,23
 302 331 302 331 333 343.5 c 128,-1,24
 364 356 364 356 396 356 c 0,25,26
 423 356 423 356 446 346 c 128,-1,27
 469 336 469 336 486 319 c 128,-1,28
 503 302 503 302 513 280 c 128,-1,29
 523 258 523 258 523 234 c 2,30,-1
 523 0 l 1,31,-1
 450 0 l 1,32,-1
 450 235 l 2,33,34
 450 247 450 247 445.5 258.5 c 128,-1,35
 441 270 441 270 433.5 279 c 128,-1,36
 426 288 426 288 416.5 294 c 128,-1,37
 407 300 407 300 396 300 c 0,38,39
 381 300 381 300 366.5 295 c 128,-1,40
 352 290 352 290 340.5 281 c 128,-1,41
 329 272 329 272 322 259.5 c 128,-1,42
 315 247 315 247 315 233 c 2,43,-1
 315 0 l 1,44,-1
 241 0 l 1,0,-1
EndSplineSet
KernsSLIFO: 88 -10 0 0 87 -18 0 0
EndChar
StartChar: n
Encoding: 110 110 79
Width: 392
Flags: W
Fore
281 235 m 2,0,1
 281 247 281 247 276.5 258.5 c 128,-1,2
 272 270 272 270 264.5 279 c 128,-1,3
 257 288 257 288 247.5 294 c 128,-1,4
 238 300 238 300 227 300 c 2,5,-1
 185 300 l 2,6,7
 156 300 156 300 133 277 c 128,-1,8
 110 254 110 254 105 225 c 1,9,-1
 105 0 l 1,10,-1
 31 0 l 1,11,-1
 31 351 l 1,12,-1
 105 351 l 1,13,-1
 105 330 l 1,14,15
 122 341 122 341 142 348.5 c 128,-1,16
 162 356 162 356 185 356 c 2,17,-1
 227 356 l 2,18,19
 254 356 254 356 277 346 c 128,-1,20
 300 336 300 336 317 319 c 128,-1,21
 334 302 334 302 344 280 c 128,-1,22
 354 258 354 258 354 234 c 2,23,-1
 354 0 l 1,24,-1
 281 0 l 1,25,-1
 281 235 l 2,0,1
EndSplineSet
KernsSLIFO: 90 -18 0 0 88 -10 0 0 87 -18 0 0
EndChar
StartChar: o
Encoding: 111 111 80
Width: 381
Flags: W
Fore
348 141 m 2,0,1
 348 111 348 111 336 84.5 c 128,-1,2
 324 58 324 58 303 38 c 128,-1,3
 282 18 282 18 254.5 6.5 c 128,-1,4
 227 -5 227 -5 196 -5 c 2,5,-1
 155 -5 l 2,6,7
 128 -5 128 -5 104.5 5 c 128,-1,8
 81 15 81 15 64 31.5 c 128,-1,9
 47 48 47 48 37 70.5 c 128,-1,10
 27 93 27 93 27 117 c 2,11,-1
 27 209 l 2,12,13
 27 239 27 239 39 265.5 c 128,-1,14
 51 292 51 292 72 312.5 c 128,-1,15
 93 333 93 333 120.5 344.5 c 128,-1,16
 148 356 148 356 179 356 c 2,17,-1
 220 356 l 2,18,19
 247 356 247 356 270.5 346 c 128,-1,20
 294 336 294 336 311 319 c 128,-1,21
 328 302 328 302 338 280 c 128,-1,22
 348 258 348 258 348 234 c 2,23,-1
 348 141 l 2,0,1
274 234 m 2,24,25
 274 246 274 246 270 257.5 c 128,-1,26
 266 269 266 269 258.5 278.5 c 128,-1,27
 251 288 251 288 241 294 c 128,-1,28
 231 300 231 300 220 300 c 2,29,-1
 179 300 l 2,30,31
 163 300 163 300 148.5 292.5 c 128,-1,32
 134 285 134 285 123.5 272 c 128,-1,33
 113 259 113 259 107 243 c 128,-1,34
 101 227 101 227 101 209 c 2,35,-1
 101 117 l 2,36,37
 101 93 101 93 116.5 71.5 c 128,-1,38
 132 50 132 50 155 50 c 2,39,-1
 196 50 l 2,40,41
 212 50 212 50 226.5 57.5 c 128,-1,42
 241 65 241 65 251.5 78 c 128,-1,43
 262 91 262 91 268 107.5 c 128,-1,44
 274 124 274 124 274 141 c 2,45,-1
 274 234 l 2,24,25
EndSplineSet
KernsSLIFO: 314 -40 0 0 90 -12 0 0 89 -18 0 0 87 -12 0 0 15 -40 0 0 13 -29 0 0
EndChar
StartChar: p
Encoding: 112 112 81
Width: 385
Flags: W
Fore
31 351 m 1,0,-1
 105 351 l 1,1,-1
 105 331 l 1,2,3
 120 342 120 342 140 349 c 128,-1,4
 160 356 160 356 183 356 c 2,5,-1
 225 356 l 2,6,7
 252 356 252 356 275 346 c 128,-1,8
 298 336 298 336 315 319 c 128,-1,9
 332 302 332 302 342 280 c 128,-1,10
 352 258 352 258 352 234 c 2,11,-1
 352 141 l 2,12,13
 352 111 352 111 340 84.5 c 128,-1,14
 328 58 328 58 307.5 38 c 128,-1,15
 287 18 287 18 259 6.5 c 128,-1,16
 231 -5 231 -5 200 -5 c 2,17,-1
 159 -5 l 2,18,19
 141 -5 141 -5 128.5 -1.5 c 128,-1,20
 116 2 116 2 105 10 c 1,21,-1
 105 -123 l 1,22,-1
 31 -123 l 1,23,-1
 31 351 l 1,0,-1
279 234 m 2,24,25
 279 246 279 246 274.5 257.5 c 128,-1,26
 270 269 270 269 262.5 278.5 c 128,-1,27
 255 288 255 288 245.5 294 c 128,-1,28
 236 300 236 300 225 300 c 2,29,-1
 183 300 l 2,30,31
 167 300 167 300 153 292.5 c 128,-1,32
 139 285 139 285 128.5 273 c 128,-1,33
 118 261 118 261 111.5 245.5 c 128,-1,34
 105 230 105 230 105 213 c 2,35,-1
 105 117 l 2,36,37
 105 93 105 93 121 71.5 c 128,-1,38
 137 50 137 50 159 50 c 2,39,-1
 200 50 l 2,40,41
 216 50 216 50 230.5 57.5 c 128,-1,42
 245 65 245 65 255.5 78 c 128,-1,43
 266 91 266 91 272.5 107.5 c 128,-1,44
 279 124 279 124 279 141 c 2,45,-1
 279 234 l 2,24,25
EndSplineSet
KernsSLIFO: 314 -18 0 0 90 -4 0 0 15 -18 0 0 13 -29 0 0
EndChar
StartChar: q
Encoding: 113 113 82
Width: 385
Flags: W
Fore
274 21 m 1,0,1
 257 10 257 10 236.5 2.5 c 128,-1,2
 216 -5 216 -5 196 -5 c 2,3,-1
 155 -5 l 2,4,5
 128 -5 128 -5 104.5 5 c 128,-1,6
 81 15 81 15 64 31.5 c 128,-1,7
 47 48 47 48 37 70.5 c 128,-1,8
 27 93 27 93 27 117 c 2,9,-1
 27 209 l 2,10,11
 27 239 27 239 39 265.5 c 128,-1,12
 51 292 51 292 72 312.5 c 128,-1,13
 93 333 93 333 120.5 344.5 c 128,-1,14
 148 356 148 356 179 356 c 2,15,-1
 220 356 l 2,16,17
 237 356 237 356 251 352 c 128,-1,18
 265 348 265 348 274 342 c 1,19,-1
 274 351 l 1,20,-1
 348 351 l 1,21,-1
 348 -123 l 1,22,-1
 274 -123 l 1,23,-1
 274 21 l 1,0,1
274 237 m 2,24,25
 272 260 272 260 256 279.5 c 128,-1,26
 240 299 240 299 220 299 c 2,27,-1
 179 299 l 2,28,29
 163 299 163 299 148.5 291.5 c 128,-1,30
 134 284 134 284 123.5 271.5 c 128,-1,31
 113 259 113 259 107 243 c 128,-1,32
 101 227 101 227 101 209 c 2,33,-1
 101 117 l 2,34,35
 101 93 101 93 116.5 71.5 c 128,-1,36
 132 50 132 50 155 50 c 2,37,-1
 196 50 l 2,38,39
 212 50 212 50 225.5 57.5 c 128,-1,40
 239 65 239 65 249.5 77 c 128,-1,41
 260 89 260 89 266.5 105 c 128,-1,42
 273 121 273 121 274 138 c 2,43,-1
 274 237 l 2,24,25
EndSplineSet
EndChar
StartChar: r
Encoding: 114 114 83
Width: 256
Flags: W
Fore
31 351 m 1,0,-1
 105 351 l 1,1,-1
 105 331 l 1,2,3
 120 341 120 341 141.5 348.5 c 128,-1,4
 163 356 163 356 183 356 c 2,5,-1
 239 356 l 1,6,-1
 239 300 l 1,7,-1
 183 300 l 2,8,9
 167 300 167 300 153 292 c 128,-1,10
 139 284 139 284 128.5 271 c 128,-1,11
 118 258 118 258 111.5 241.5 c 128,-1,12
 105 225 105 225 105 209 c 2,13,-1
 105 0 l 1,14,-1
 31 0 l 1,15,-1
 31 351 l 1,0,-1
EndSplineSet
KernsSLIFO: 314 -100 0 0 309 29 0 0 306 29 0 0 196 -10 0 0 185 -10 0 0 170 -10 0 0 168 -10 0 0 167 -39 0 0 82 -10 0 0 80 -10 0 0 72 -10 0 0 70 -10 0 0 69 -10 0 0 68 -10 0 0 66 -20 0 0 15 -80 0 0 14 -25 0 0 13 -60 0 0
EndChar
StartChar: s
Encoding: 115 115 84
Width: 413
Flags: W
Fore
136 161 m 2,0,1
 106 165 106 165 88 174.5 c 128,-1,2
 70 184 70 184 60 196.5 c 128,-1,3
 50 209 50 209 47 223 c 128,-1,4
 44 237 44 237 44 250 c 0,5,6
 44 276 44 276 57 296 c 128,-1,7
 70 316 70 316 90 329.5 c 128,-1,8
 110 343 110 343 134 349.5 c 128,-1,9
 158 356 158 356 181 356 c 2,10,-1
 251 356 l 2,11,12
 278 356 278 356 301.5 347 c 128,-1,13
 325 338 325 338 342 322 c 128,-1,14
 359 306 359 306 369 283.5 c 128,-1,15
 379 261 379 261 379 235 c 1,16,-1
 306 235 l 1,17,18
 306 261 306 261 289.5 280.5 c 128,-1,19
 273 300 273 300 251 300 c 2,20,-1
 181 300 l 2,21,22
 173 300 173 300 162 297 c 128,-1,23
 151 294 151 294 141.5 288 c 128,-1,24
 132 282 132 282 125 272.5 c 128,-1,25
 118 263 118 263 118 251 c 0,26,27
 118 243 118 243 123.5 232 c 128,-1,28
 129 221 129 221 151 216 c 0,29,30
 186 212 186 212 223.5 207.5 c 128,-1,31
 261 203 261 203 296 200 c 0,32,33
 327 195 327 195 345 183 c 128,-1,34
 363 171 363 171 372.5 157 c 128,-1,35
 382 143 382 143 385 128 c 128,-1,36
 388 113 388 113 388 101 c 0,37,38
 388 78 388 78 377.5 58.5 c 128,-1,39
 367 39 367 39 348.5 25 c 128,-1,40
 330 11 330 11 305 3 c 128,-1,41
 280 -5 280 -5 251 -5 c 2,42,-1
 155 -5 l 2,43,44
 128 -5 128 -5 105 4 c 128,-1,45
 82 13 82 13 65 29 c 128,-1,46
 48 45 48 45 38 67 c 128,-1,47
 28 89 28 89 28 115 c 1,48,-1
 101 115 l 1,49,50
 101 88 101 88 116.5 69 c 128,-1,51
 132 50 132 50 155 50 c 2,52,-1
 251 50 l 2,53,54
 259 50 259 50 270 53.5 c 128,-1,55
 281 57 281 57 291 63 c 128,-1,56
 301 69 301 69 308 78.5 c 128,-1,57
 315 88 315 88 315 100 c 0,58,59
 315 116 315 116 309 129 c 128,-1,60
 303 142 303 142 281 144 c 2,61,-1
 136 161 l 2,0,1
EndSplineSet
EndChar
StartChar: t
Encoding: 116 116 85
Width: 235
Flags: W
Fore
80 300 m 1,0,-1
 14 300 l 1,1,-1
 14 351 l 1,2,-1
 80 351 l 1,3,-1
 80 484 l 1,4,-1
 154 484 l 1,5,-1
 154 351 l 1,6,-1
 218 351 l 1,7,-1
 218 300 l 1,8,-1
 154 300 l 1,9,-1
 154 0 l 1,10,-1
 80 0 l 1,11,-1
 80 300 l 1,0,-1
EndSplineSet
KernsSLIFO: 309 18 0 0 306 18 0 0 85 -40 0 0
EndChar
StartChar: u
Encoding: 117 117 86
Width: 388
Flags: W
Fore
105 115 m 2,0,1
 105 91 105 91 119 70.5 c 128,-1,2
 133 50 133 50 156 50 c 2,3,-1
 197 50 l 2,4,5
 226 50 226 50 249.5 73 c 128,-1,6
 273 96 273 96 278 125 c 1,7,-1
 278 351 l 1,8,-1
 351 351 l 1,9,-1
 351 0 l 1,10,-1
 278 0 l 1,11,-1
 278 21 l 1,12,13
 261 10 261 10 240 2.5 c 128,-1,14
 219 -5 219 -5 197 -5 c 2,15,-1
 156 -5 l 2,16,17
 129 -5 129 -5 106 5 c 128,-1,18
 83 15 83 15 66.5 31.5 c 128,-1,19
 50 48 50 48 40.5 70.5 c 128,-1,20
 31 93 31 93 31 117 c 2,21,-1
 31 351 l 1,22,-1
 105 351 l 1,23,-1
 105 115 l 2,0,1
EndSplineSet
EndChar
StartChar: v
Encoding: 118 118 87
Width: 380
Flags: W
Fore
223 -5 m 1,0,1
 191 -5 191 -5 166 5.5 c 128,-1,2
 141 16 141 16 132 36 c 2,3,-1
 12 351 l 1,4,-1
 87 351 l 1,5,-1
 186 92 l 1,6,7
 211 156 211 156 237 221.5 c 128,-1,8
 263 287 263 287 287 351 c 1,9,-1
 363 351 l 1,10,-1
 223 -5 l 1,0,1
EndSplineSet
KernsSLIFO: 314 -100 0 0 306 31 0 0 196 -12 0 0 185 -16 0 0 167 -39 0 0 80 -16 0 0 70 -16 0 0 66 -39 0 0 15 -100 0 0 13 -80 0 0
EndChar
StartChar: w
Encoding: 119 119 88
Width: 605
Flags: W
Fore
297 245 m 1,0,1
 275 183 275 183 252 120 c 128,-1,2
 229 57 229 57 208 -5 c 1,3,4
 183 -5 183 -5 163.5 3.5 c 128,-1,5
 144 12 144 12 137 27 c 2,6,-1
 13 351 l 1,7,-1
 90 351 l 1,8,-1
 179 100 l 1,9,-1
 268 357 l 1,10,11
 293 357 293 357 313.5 348.5 c 128,-1,12
 334 340 334 340 341 323 c 2,13,-1
 417 101 l 1,14,-1
 506 351 l 1,15,-1
 581 351 l 1,16,-1
 460 27 l 2,17,18
 453 11 453 11 432.5 3 c 128,-1,19
 412 -5 412 -5 388 -5 c 1,20,-1
 297 245 l 1,0,1
EndSplineSet
KernsSLIFO: 314 -68 0 0 306 20 0 0 167 -18 0 0 66 -18 0 0 15 -68 0 0 14 -18 0 0 13 -68 0 0
EndChar
StartChar: x
Encoding: 120 120 89
Width: 405
Flags: W
Fore
292 351 m 1,0,-1
 378 351 l 1,1,-1
 245 185 l 1,2,3
 280 141 280 141 321.5 92.5 c 128,-1,4
 363 44 363 44 399 0 c 1,5,-1
 310 0 l 1,6,-1
 199 133 l 1,7,8
 172 100 172 100 143.5 66.5 c 128,-1,9
 115 33 115 33 89 0 c 1,10,-1
 1 0 l 1,11,-1
 153 185 l 1,12,13
 123 223 123 223 86.5 268 c 128,-1,14
 50 313 50 313 21 351 c 1,15,-1
 107 351 l 1,16,-1
 199 236 l 1,17,-1
 292 351 l 1,0,-1
EndSplineSet
KernsSLIFO: 196 -18 0 0 185 -25 0 0 168 -18 0 0 80 -25 0 0 72 -10 0 0 70 -25 0 0 69 -10 0 0 68 -18 0 0 14 -20 0 0
EndChar
StartChar: y
Encoding: 121 121 90
Width: 389
Flags: W
Fore
112 -34 m 1,0,1
 120 -48 120 -48 132.5 -59 c 128,-1,2
 145 -70 145 -70 159 -70 c 2,3,-1
 200 -70 l 2,4,5
 230 -70 230 -70 254 -49 c 128,-1,6
 278 -28 278 -28 278 2 c 2,7,-1
 278 45 l 1,8,9
 261 34 261 34 240.5 26.5 c 128,-1,10
 220 19 220 19 197 19 c 2,11,-1
 156 19 l 2,12,13
 129 19 129 19 106 29 c 128,-1,14
 83 39 83 39 66.5 56 c 128,-1,15
 50 73 50 73 40.5 95.5 c 128,-1,16
 31 118 31 118 31 142 c 2,17,-1
 31 351 l 1,18,-1
 105 351 l 1,19,-1
 105 141 l 2,20,21
 105 117 105 117 119 96.5 c 128,-1,22
 133 76 133 76 156 76 c 2,23,-1
 197 76 l 2,24,25
 226 76 226 76 249.5 98.5 c 128,-1,26
 273 121 273 121 278 150 c 1,27,-1
 278 351 l 1,28,-1
 351 351 l 1,29,-1
 351 2 l 2,30,31
 351 -24 351 -24 337 -46.5 c 128,-1,32
 323 -69 323 -69 300.5 -85.5 c 128,-1,33
 278 -102 278 -102 251 -112 c 128,-1,34
 224 -122 224 -122 197 -122 c 2,35,-1
 156 -122 l 2,36,37
 113 -122 113 -122 79 -97 c 128,-1,38
 45 -72 45 -72 31 -34 c 1,39,-1
 112 -34 l 1,0,1
EndSplineSet
KernsSLIFO: 314 -40 0 0 306 31 0 0 196 -12 0 0 185 -16 0 0 168 -16 0 0 167 -20 0 0 80 -16 0 0 15 -30 0 0
EndChar
StartChar: z
Encoding: 122 122 91
Width: 407
Flags: W
Fore
367 0 m 1,0,-1
 21 0 l 1,1,-1
 251 300 l 1,2,-1
 38 300 l 1,3,-1
 38 351 l 1,4,-1
 381 351 l 1,5,-1
 149 50 l 1,6,-1
 367 50 l 1,7,-1
 367 0 l 1,0,-1
EndSplineSet
KernsSLIFO: 185 -10 0 0 168 -10 0 0 82 -10 0 0 80 -10 0 0 72 -10 0 0 70 -10 0 0 69 -10 0 0 68 -10 0 0 14 -18 0 0
EndChar
StartChar: braceleft
Encoding: 123 123 92
Width: 311
Flags: W
Fore
185 -58 m 2,0,1
 185 -75 185 -75 199 -81.5 c 128,-1,2
 213 -88 213 -88 230 -88 c 2,3,-1
 268 -88 l 1,4,-1
 268 -141 l 1,5,-1
 230 -141 l 2,6,7
 207 -141 207 -141 186 -136.5 c 128,-1,8
 165 -132 165 -132 149 -122.5 c 128,-1,9
 133 -113 133 -113 123.5 -98 c 128,-1,10
 114 -83 114 -83 114 -61 c 2,11,-1
 114 86 l 2,12,13
 114 101 114 101 104.5 117 c 128,-1,14
 95 133 95 133 81 146 c 128,-1,15
 67 159 67 159 52 167.5 c 128,-1,16
 37 176 37 176 26 176 c 1,17,-1
 26 192 l 1,18,19
 37 192 37 192 52 199 c 128,-1,20
 67 206 67 206 81 218.5 c 128,-1,21
 95 231 95 231 104.5 247.5 c 128,-1,22
 114 264 114 264 114 283 c 2,23,-1
 114 459 l 2,24,25
 114 481 114 481 123.5 496.5 c 128,-1,26
 133 512 133 512 149 522 c 128,-1,27
 165 532 165 532 186 536.5 c 128,-1,28
 207 541 207 541 230 541 c 2,29,-1
 268 541 l 1,30,-1
 268 488 l 1,31,-1
 230 488 l 2,32,33
 213 488 213 488 199 481 c 128,-1,34
 185 474 185 474 185 456 c 2,35,-1
 185 283 l 2,36,37
 185 245 185 245 165.5 219 c 128,-1,38
 146 193 146 193 126 182 c 1,39,40
 145 168 145 168 165 143 c 128,-1,41
 185 118 185 118 185 86 c 2,42,-1
 185 -58 l 2,0,1
EndSplineSet
KernsSLIFO: 75 80 0 0
EndChar
StartChar: bar
Encoding: 124 124 93
Width: 184
Flags: W
Fore
55 583 m 1,0,-1
 127 583 l 1,1,-1
 127 -99 l 1,2,-1
 55 -99 l 1,3,-1
 55 583 l 1,0,-1
EndSplineSet
EndChar
StartChar: braceright
Encoding: 125 125 94
Width: 311
Flags: W
Fore
121 86 m 2,0,1
 121 102 121 102 126.5 117 c 128,-1,2
 132 132 132 132 141 144.5 c 128,-1,3
 150 157 150 157 160 166.5 c 128,-1,4
 170 176 170 176 179 183 c 1,5,6
 160 194 160 194 140.5 220 c 128,-1,7
 121 246 121 246 121 283 c 2,8,-1
 121 456 l 2,9,10
 121 474 121 474 106.5 481 c 128,-1,11
 92 488 92 488 75 488 c 2,12,-1
 37 488 l 1,13,-1
 37 541 l 1,14,-1
 75 541 l 2,15,16
 98 541 98 541 119 536.5 c 128,-1,17
 140 532 140 532 156.5 522 c 128,-1,18
 173 512 173 512 182.5 496.5 c 128,-1,19
 192 481 192 481 192 459 c 2,20,-1
 192 283 l 2,21,22
 192 264 192 264 201.5 247.5 c 128,-1,23
 211 231 211 231 225 218.5 c 128,-1,24
 239 206 239 206 254 199 c 128,-1,25
 269 192 269 192 280 192 c 1,26,-1
 280 176 l 1,27,28
 269 176 269 176 254 167.5 c 128,-1,29
 239 159 239 159 225 146 c 128,-1,30
 211 133 211 133 201.5 117 c 128,-1,31
 192 101 192 101 192 86 c 2,32,-1
 192 -61 l 2,33,34
 192 -83 192 -83 182.5 -98 c 128,-1,35
 173 -113 173 -113 156.5 -122.5 c 128,-1,36
 140 -132 140 -132 119 -136.5 c 128,-1,37
 98 -141 98 -141 75 -141 c 2,38,-1
 37 -141 l 1,39,-1
 37 -88 l 1,40,-1
 75 -88 l 2,41,42
 92 -88 92 -88 106.5 -81.5 c 128,-1,43
 121 -75 121 -75 121 -58 c 2,44,-1
 121 86 l 2,0,1
EndSplineSet
EndChar
StartChar: asciitilde
Encoding: 126 126 95
Width: 424
Flags: W
Fore
287 230 m 0,0,1
 304 230 304 230 317.5 251.5 c 128,-1,2
 331 273 331 273 336 306 c 1,3,-1
 399 306 l 1,4,5
 399 271 399 271 387.5 245.5 c 128,-1,6
 376 220 376 220 359 203 c 128,-1,7
 342 186 342 186 322.5 178 c 128,-1,8
 303 170 303 170 287 170 c 0,9,10
 243 170 243 170 219.5 187.5 c 128,-1,11
 196 205 196 205 180 223 c 0,12,13
 169 234 169 234 158.5 243.5 c 128,-1,14
 148 253 148 253 136 253 c 0,15,16
 119 253 119 253 105 231.5 c 128,-1,17
 91 210 91 210 87 177 c 1,18,-1
 24 177 l 1,19,20
 24 211 24 211 35.5 237 c 128,-1,21
 47 263 47 263 64 279.5 c 128,-1,22
 81 296 81 296 100.5 304.5 c 128,-1,23
 120 313 120 313 136 313 c 0,24,25
 172 313 172 313 191 298.5 c 128,-1,26
 210 284 210 284 226 267 c 0,27,28
 240 253 240 253 253.5 241.5 c 128,-1,29
 267 230 267 230 287 230 c 0,0,1
EndSplineSet
EndChar
StartChar: quotedbl
Encoding: 34 34 97
Width: 256
Flags: W
Fore
30 515 m 1,0,-1
 106 515 l 1,1,-1
 106 355 l 1,2,-1
 30 355 l 1,3,-1
 30 515 l 1,0,-1
145 515 m 1,4,-1
 221 515 l 1,5,-1
 221 355 l 1,6,-1
 145 355 l 1,7,-1
 145 515 l 1,4,-1
EndSplineSet
EndChar
StartChar: exclam
Encoding: 33 33 98
Width: 202
Flags: W
Fore
66 486 m 1,0,-1
 139 486 l 1,1,-1
 139 108 l 1,2,-1
 66 108 l 1,3,-1
 66 486 l 1,0,-1
61 38 m 256,4,5
 61 21 61 21 73 10 c 128,-1,6
 85 -1 85 -1 103 -1 c 256,7,8
 121 -1 121 -1 133 10 c 128,-1,9
 145 21 145 21 145 38 c 256,10,11
 145 55 145 55 133 66 c 128,-1,12
 121 77 121 77 103 77 c 256,13,14
 85 77 85 77 73 66 c 128,-1,15
 61 55 61 55 61 38 c 256,4,5
EndSplineSet
EndChar
StartChar: cent
Encoding: 162 162 101
Width: 415
Flags: W
Fore
231 118 m 1,0,1
 259 122 259 122 278 145 c 128,-1,2
 297 168 297 168 297 203 c 1,3,-1
 370 203 l 1,4,5
 370 176 370 176 360 152.5 c 128,-1,6
 350 129 350 129 333.5 111.5 c 128,-1,7
 317 94 317 94 294.5 82 c 128,-1,8
 272 70 272 70 247 65 c 1,9,-1
 247 -14 l 1,10,-1
 173 -14 l 1,11,-1
 173 63 l 1,12,13
 147 64 147 64 124 74 c 128,-1,14
 101 84 101 84 84.5 101 c 128,-1,15
 68 118 68 118 58.5 140 c 128,-1,16
 49 162 49 162 49 186 c 2,17,-1
 49 277 l 2,18,19
 49 304 49 304 58 328.5 c 128,-1,20
 67 353 67 353 83.5 372 c 128,-1,21
 100 391 100 391 122.5 404 c 128,-1,22
 145 417 145 417 173 421 c 1,23,-1
 173 502 l 1,24,-1
 247 502 l 1,25,-1
 247 423 l 1,26,27
 272 422 272 422 294.5 413 c 128,-1,28
 317 404 317 404 333.5 388 c 128,-1,29
 350 372 350 372 359.5 350 c 128,-1,30
 369 328 369 328 369 303 c 1,31,-1
 296 303 l 1,32,33
 296 330 296 330 280 349 c 128,-1,34
 264 368 264 368 242 368 c 2,35,-1
 188 368 l 1,36,37
 162 361 162 361 142.5 335 c 128,-1,38
 123 309 123 309 123 277 c 2,39,-1
 123 186 l 2,40,41
 123 174 123 174 127.5 162 c 128,-1,42
 132 150 132 150 139.5 140 c 128,-1,43
 147 130 147 130 156.5 124 c 128,-1,44
 166 118 166 118 177 118 c 2,45,-1
 231 118 l 1,0,1
EndSplineSet
EndChar
StartChar: sterling
Encoding: 163 163 102
Width: 415
Flags: W
Fore
214 206 m 1,0,1
 220 171 220 171 225 137 c 1,2,3
 225 116 225 116 212.5 93 c 128,-1,4
 200 70 200 70 183 55 c 1,5,-1
 385 55 l 1,6,-1
 385 0 l 1,7,-1
 41 0 l 1,8,-1
 41 55 l 1,9,10
 56 55 56 55 75 62 c 128,-1,11
 94 69 94 69 111 80 c 128,-1,12
 128 91 128 91 140 106 c 128,-1,13
 152 121 152 121 152 137 c 0,14,15
 152 138 152 138 151 143 c 2,16,-1
 140 206 l 1,17,-1
 39 206 l 1,18,-1
 39 266 l 1,19,-1
 129 266 l 1,20,21
 126 292 126 292 125.5 306.5 c 128,-1,22
 125 321 125 321 125 344 c 0,23,24
 125 373 125 373 137 399.5 c 128,-1,25
 149 426 149 426 169.5 446 c 128,-1,26
 190 466 190 466 217.5 478 c 128,-1,27
 245 490 245 490 277 490 c 0,28,29
 302 490 302 490 325.5 480 c 128,-1,30
 349 470 349 470 368 453 c 1,31,-1
 323 400 l 1,32,33
 311 414 311 414 298.5 422 c 128,-1,34
 286 430 286 430 277 430 c 0,35,36
 260 430 260 430 245.5 423 c 128,-1,37
 231 416 231 416 220.5 404.5 c 128,-1,38
 210 393 210 393 203.5 377.5 c 128,-1,39
 197 362 197 362 197 344 c 0,40,41
 197 327 197 327 197.5 308 c 128,-1,42
 198 289 198 289 203 266 c 1,43,-1
 338 266 l 1,44,-1
 338 206 l 1,45,-1
 214 206 l 1,0,1
EndSplineSet
EndChar
StartChar: currency
Encoding: 164 164 103
Width: 525
Flags: W
Fore
92 122 m 1,0,1
 73 146 73 146 63 176 c 128,-1,2
 53 206 53 206 53 235 c 0,3,4
 53 266 53 266 62 295 c 128,-1,5
 71 324 71 324 92 350 c 1,6,-1
 51 391 l 1,7,-1
 97 436 l 1,8,-1
 142 393 l 1,9,10
 192 427 192 427 259 427 c 0,11,12
 324 427 324 427 376 392 c 1,13,-1
 422 436 l 1,14,-1
 467 391 l 1,15,-1
 424 349 l 1,16,17
 446 323 446 323 454.5 293.5 c 128,-1,18
 463 264 463 264 463 235 c 256,19,20
 463 206 463 206 453 177 c 128,-1,21
 443 148 443 148 424 123 c 1,22,-1
 467 80 l 1,23,-1
 421 36 l 1,24,-1
 377 79 l 1,25,26
 352 62 352 62 321 53 c 128,-1,27
 290 44 290 44 258 44 c 0,28,29
 225 44 225 44 194.5 52.5 c 128,-1,30
 164 61 164 61 141 79 c 1,31,-1
 97 36 l 1,32,-1
 51 80 l 1,33,-1
 92 122 l 1,0,1
258 369 m 0,34,35
 229 369 229 369 205 357.5 c 128,-1,36
 181 346 181 346 164 327 c 128,-1,37
 147 308 147 308 137 284 c 128,-1,38
 127 260 127 260 127 235 c 0,39,40
 127 208 127 208 137 184 c 128,-1,41
 147 160 147 160 165 141.5 c 128,-1,42
 183 123 183 123 207 112.5 c 128,-1,43
 231 102 231 102 258 102 c 256,44,45
 285 102 285 102 309 112.5 c 128,-1,46
 333 123 333 123 350.5 141.5 c 128,-1,47
 368 160 368 160 378.5 184 c 128,-1,48
 389 208 389 208 389 235 c 256,49,50
 389 262 389 262 378.5 286 c 128,-1,51
 368 310 368 310 350 328.5 c 128,-1,52
 332 347 332 347 308.5 358 c 128,-1,53
 285 369 285 369 258 369 c 0,34,35
EndSplineSet
EndChar
StartChar: yen
Encoding: 165 165 104
Width: 415
Flags: W
Fore
160 172 m 1,0,-1
 48 172 l 1,1,-1
 48 230 l 1,2,-1
 160 230 l 1,3,-1
 160 240 l 1,4,-1
 -8 484 l 1,5,-1
 73 484 l 1,6,-1
 196 300 l 1,7,-1
 321 484 l 1,8,-1
 401 484 l 1,9,-1
 233 241 l 1,10,-1
 233 230 l 1,11,-1
 347 230 l 1,12,-1
 347 172 l 1,13,-1
 233 172 l 1,14,-1
 233 0 l 1,15,-1
 160 0 l 1,16,-1
 160 172 l 1,0,-1
EndSplineSet
EndChar
StartChar: brokenbar
Encoding: 166 166 105
Width: 177
Flags: W
Fore
55 292 m 1,0,-1
 55 583 l 1,1,-1
 127 583 l 1,2,-1
 127 292 l 1,3,-1
 55 292 l 1,0,-1
127 218 m 1,4,-1
 127 -99 l 1,5,-1
 55 -99 l 1,6,-1
 55 218 l 1,7,-1
 127 218 l 1,4,-1
EndSplineSet
EndChar
StartChar: section
Encoding: 167 167 106
Width: 433
Flags: W
Fore
60 398 m 0,0,1
 60 424 60 424 73 444 c 128,-1,2
 86 464 86 464 105.5 477.5 c 128,-1,3
 125 491 125 491 149 497.5 c 128,-1,4
 173 504 173 504 196 504 c 2,5,-1
 267 504 l 2,6,7
 294 504 294 504 317.5 495 c 128,-1,8
 341 486 341 486 358 470 c 128,-1,9
 375 454 375 454 385 432 c 128,-1,10
 395 410 395 410 395 384 c 1,11,-1
 321 384 l 1,12,13
 321 410 321 410 305 429.5 c 128,-1,14
 289 449 289 449 267 449 c 2,15,-1
 196 449 l 2,16,17
 188 449 188 449 177.5 446 c 128,-1,18
 167 443 167 443 156.5 436.5 c 128,-1,19
 146 430 146 430 139 420.5 c 128,-1,20
 132 411 132 411 132 399 c 0,21,22
 132 392 132 392 139.5 382 c 128,-1,23
 147 372 147 372 168 364 c 2,24,-1
 314 316 l 2,25,26
 343 307 343 307 360.5 295 c 128,-1,27
 378 283 378 283 388 269.5 c 128,-1,28
 398 256 398 256 401 242.5 c 128,-1,29
 404 229 404 229 404 217 c 0,30,31
 404 165 404 165 355 137 c 1,32,33
 372 120 372 120 378 103 c 128,-1,34
 384 86 384 86 384 71 c 0,35,36
 384 48 384 48 373.5 28.5 c 128,-1,37
 363 9 363 9 344.5 -5 c 128,-1,38
 326 -19 326 -19 301 -27 c 128,-1,39
 276 -35 276 -35 248 -35 c 2,40,-1
 151 -35 l 2,41,42
 124 -35 124 -35 101 -26 c 128,-1,43
 78 -17 78 -17 61 -1 c 128,-1,44
 44 15 44 15 34 37 c 128,-1,45
 24 59 24 59 24 85 c 1,46,-1
 96 85 l 1,47,48
 96 59 96 59 112.5 39.5 c 128,-1,49
 129 20 129 20 151 20 c 2,50,-1
 248 20 l 2,51,52
 255 20 255 20 266 23.5 c 128,-1,53
 277 27 277 27 287 33.5 c 128,-1,54
 297 40 297 40 304 49 c 128,-1,55
 311 58 311 58 311 70 c 0,56,57
 311 87 311 87 303.5 97 c 128,-1,58
 296 107 296 107 276 114 c 2,59,-1
 129 163 l 2,60,61
 101 172 101 172 83.5 182.5 c 128,-1,62
 66 193 66 193 56.5 204.5 c 128,-1,63
 47 216 47 216 43.5 228 c 128,-1,64
 40 240 40 240 40 252 c 0,65,66
 40 279 40 279 55.5 300 c 128,-1,67
 71 321 71 321 94 335 c 1,68,69
 71 350 71 350 65.5 365.5 c 128,-1,70
 60 381 60 381 60 398 c 0,0,1
331 216 m 0,71,72
 331 233 331 233 323 243.5 c 128,-1,73
 315 254 315 254 295 261 c 0,74,75
 265 271 265 271 232.5 282 c 128,-1,76
 200 293 200 293 170 302 c 1,77,78
 162 300 162 300 152 296.5 c 128,-1,79
 142 293 142 293 133.5 287 c 128,-1,80
 125 281 125 281 119 272.5 c 128,-1,81
 113 264 113 264 113 253 c 0,82,83
 113 245 113 245 118.5 235.5 c 128,-1,84
 124 226 124 226 149 218 c 2,85,-1
 288 171 l 1,86,87
 302 177 302 177 316.5 189.5 c 128,-1,88
 331 202 331 202 331 216 c 0,71,72
EndSplineSet
EndChar
StartChar: dieresis
Encoding: 168 168 107
Width: 255
Flags: W
Fore
1 440 m 0,0,1
 1 458 1 458 15 470 c 128,-1,2
 29 482 29 482 51 482 c 256,3,4
 73 482 73 482 87 470 c 128,-1,5
 101 458 101 458 101 440 c 0,6,7
 101 421 101 421 87 409 c 128,-1,8
 73 397 73 397 51 397 c 256,9,10
 29 397 29 397 15 409 c 128,-1,11
 1 421 1 421 1 440 c 0,0,1
148 440 m 0,12,13
 148 458 148 458 162.5 470 c 128,-1,14
 177 482 177 482 198 482 c 256,15,16
 219 482 219 482 233 470 c 128,-1,17
 247 458 247 458 247 440 c 0,18,19
 247 421 247 421 233 409 c 128,-1,20
 219 397 219 397 198 397 c 256,21,22
 177 397 177 397 162.5 409 c 128,-1,23
 148 421 148 421 148 440 c 0,12,13
EndSplineSet
EndChar
StartChar: copyright
Encoding: 169 169 108
Width: 526
Flags: W
Fore
261 469 m 0,0,1
 310 469 310 469 353 450 c 128,-1,2
 396 431 396 431 428 399.5 c 128,-1,3
 460 368 460 368 478.5 327 c 128,-1,4
 497 286 497 286 497 241 c 0,5,6
 497 195 497 195 478.5 154 c 128,-1,7
 460 113 460 113 428 82 c 128,-1,8
 396 51 396 51 353 33 c 128,-1,9
 310 15 310 15 261 15 c 0,10,11
 211 15 211 15 168 33 c 128,-1,12
 125 51 125 51 93.5 82 c 128,-1,13
 62 113 62 113 43.5 154 c 128,-1,14
 25 195 25 195 25 241 c 0,15,16
 25 284 25 284 42.5 325 c 128,-1,17
 60 366 60 366 91.5 398 c 128,-1,18
 123 430 123 430 166 449.5 c 128,-1,19
 209 469 209 469 261 469 c 0,0,1
261 418 m 0,20,21
 223 418 223 418 191 403 c 128,-1,22
 159 388 159 388 136 363 c 128,-1,23
 113 338 113 338 100.5 306 c 128,-1,24
 88 274 88 274 88 241 c 0,25,26
 88 205 88 205 101.5 173.5 c 128,-1,27
 115 142 115 142 138.5 118 c 128,-1,28
 162 94 162 94 193.5 80 c 128,-1,29
 225 66 225 66 261 66 c 256,30,31
 297 66 297 66 328.5 80 c 128,-1,32
 360 94 360 94 383.5 118 c 128,-1,33
 407 142 407 142 420.5 173.5 c 128,-1,34
 434 205 434 205 434 241 c 0,35,36
 434 276 434 276 420.5 308 c 128,-1,37
 407 340 407 340 383.5 364.5 c 128,-1,38
 360 389 360 389 328.5 403.5 c 128,-1,39
 297 418 297 418 261 418 c 0,20,21
309 285 m 1,40,41
 309 302 309 302 300.5 314 c 128,-1,42
 292 326 292 326 280 326 c 2,43,-1
 252 326 l 2,44,45
 233 326 233 326 219.5 307.5 c 128,-1,46
 206 289 206 289 206 266 c 2,47,-1
 206 207 l 2,48,49
 206 193 206 193 214.5 179 c 128,-1,50
 223 165 223 165 236 165 c 2,51,-1
 264 165 l 2,52,53
 284 165 284 165 297.5 179.5 c 128,-1,54
 311 194 311 194 311 220 c 1,55,-1
 376 220 l 1,56,57
 376 172 376 172 343.5 144 c 128,-1,58
 311 116 311 116 264 116 c 2,59,-1
 235 116 l 2,60,61
 215 116 215 116 198.5 123.5 c 128,-1,62
 182 131 182 131 169 143 c 128,-1,63
 156 155 156 155 149 171 c 128,-1,64
 142 187 142 187 142 204 c 2,65,-1
 142 268 l 2,66,67
 142 290 142 290 150.5 309 c 128,-1,68
 159 328 159 328 174 342.5 c 128,-1,69
 189 357 189 357 209 365.5 c 128,-1,70
 229 374 229 374 252 374 c 2,71,-1
 281 374 l 2,72,73
 322 374 322 374 348 348.5 c 128,-1,74
 374 323 374 323 374 285 c 1,75,-1
 309 285 l 1,40,41
EndSplineSet
EndChar
StartChar: logicalnot
Encoding: 172 172 111
Width: 465
Flags: W
Fore
358 92 m 1,0,-1
 358 243 l 1,1,-1
 24 243 l 1,2,-1
 24 303 l 1,3,-1
 432 303 l 1,4,-1
 432 92 l 1,5,-1
 358 92 l 1,0,-1
EndSplineSet
EndChar
StartChar: registered
Encoding: 174 174 112
Width: 399
Flags: W
Fore
198 503 m 0,0,1
 235 503 235 503 268 489 c 128,-1,2
 301 475 301 475 326 451 c 128,-1,3
 351 427 351 427 365 395.5 c 128,-1,4
 379 364 379 364 379 330 c 256,5,6
 379 296 379 296 365 265 c 128,-1,7
 351 234 351 234 326.5 210.5 c 128,-1,8
 302 187 302 187 269 173 c 128,-1,9
 236 159 236 159 198 159 c 256,10,11
 160 159 160 159 127.5 173 c 128,-1,12
 95 187 95 187 70 210.5 c 128,-1,13
 45 234 45 234 31 265 c 128,-1,14
 17 296 17 296 17 330 c 0,15,16
 17 362 17 362 30.5 393 c 128,-1,17
 44 424 44 424 68.5 448.5 c 128,-1,18
 93 473 93 473 126 488 c 128,-1,19
 159 503 159 503 198 503 c 0,0,1
198 464 m 0,20,21
 170 464 170 464 146 452.5 c 128,-1,22
 122 441 122 441 105 422 c 128,-1,23
 88 403 88 403 78 379 c 128,-1,24
 68 355 68 355 68 330 c 0,25,26
 68 303 68 303 78.5 278.5 c 128,-1,27
 89 254 89 254 106.5 236 c 128,-1,28
 124 218 124 218 147.5 207 c 128,-1,29
 171 196 171 196 198 196 c 256,30,31
 225 196 225 196 249 207 c 128,-1,32
 273 218 273 218 291 236 c 128,-1,33
 309 254 309 254 319.5 278.5 c 128,-1,34
 330 303 330 303 330 330 c 256,35,36
 330 357 330 357 319.5 381.5 c 128,-1,37
 309 406 309 406 291 424 c 128,-1,38
 273 442 273 442 249 453 c 128,-1,39
 225 464 225 464 198 464 c 0,20,21
128 415 m 1,40,-1
 221 415 l 2,41,42
 244 415 244 415 259 400 c 128,-1,43
 274 385 274 385 274 365 c 0,44,45
 274 350 274 350 264 337.5 c 128,-1,46
 254 325 254 325 237 322 c 1,47,48
 237 321 237 321 239 319 c 1,49,-1
 238 320 l 1,50,-1
 287 250 l 1,51,-1
 233 250 l 1,52,-1
 190 312 l 1,53,-1
 191 311 l 1,54,55
 185 319 185 319 182 319 c 2,56,-1
 177 319 l 1,57,-1
 177 250 l 1,58,-1
 128 250 l 1,59,-1
 128 415 l 1,40,-1
174 384 m 1,60,-1
 174 352 l 1,61,-1
 221 352 l 2,62,63
 231 352 231 352 231 366 c 0,64,65
 231 372 231 372 228 378 c 128,-1,66
 225 384 225 384 221 384 c 2,67,-1
 174 384 l 1,60,-1
EndSplineSet
EndChar
StartChar: macron
Encoding: 175 175 113
Width: 261
Flags: W
Fore
22 417 m 1,0,-1
 22 472 l 1,1,-1
 234 472 l 1,2,-1
 234 417 l 1,3,-1
 22 417 l 1,0,-1
EndSplineSet
EndChar
StartChar: degree
Encoding: 176 176 114
Width: 239
Flags: W
Fore
14 412 m 0,0,1
 14 431 14 431 22 448.5 c 128,-1,2
 30 466 30 466 44 479 c 128,-1,3
 58 492 58 492 77 499.5 c 128,-1,4
 96 507 96 507 117 507 c 0,5,6
 139 507 139 507 158 499.5 c 128,-1,7
 177 492 177 492 191 479 c 128,-1,8
 205 466 205 466 213.5 448.5 c 128,-1,9
 222 431 222 431 222 412 c 0,10,11
 222 392 222 392 213.5 374.5 c 128,-1,12
 205 357 205 357 191 344.5 c 128,-1,13
 177 332 177 332 158 324.5 c 128,-1,14
 139 317 139 317 117 317 c 0,15,16
 74 317 74 317 44 344.5 c 128,-1,17
 14 372 14 372 14 412 c 0,0,1
72 412 m 0,18,19
 72 392 72 392 85.5 377 c 128,-1,20
 99 362 99 362 117 362 c 0,21,22
 136 362 136 362 150 377 c 128,-1,23
 164 392 164 392 164 412 c 0,24,25
 164 433 164 433 150 447 c 128,-1,26
 136 461 136 461 117 461 c 0,27,28
 99 461 99 461 85.5 447 c 128,-1,29
 72 433 72 433 72 412 c 0,18,19
EndSplineSet
EndChar
StartChar: plusminus
Encoding: 177 177 115
Width: 465
Flags: W
Fore
263 220 m 1,0,-1
 263 89 l 1,1,-1
 194 89 l 1,2,-1
 194 220 l 1,3,-1
 57 220 l 1,4,-1
 57 277 l 1,5,-1
 194 277 l 1,6,-1
 194 409 l 1,7,-1
 263 409 l 1,8,-1
 263 277 l 1,9,-1
 400 277 l 1,10,-1
 400 220 l 1,11,-1
 263 220 l 1,0,-1
57 4 m 1,12,-1
 57 59 l 1,13,-1
 400 59 l 1,14,-1
 400 4 l 1,15,-1
 57 4 l 1,12,-1
EndSplineSet
EndChar
StartChar: twosuperior
Encoding: 178 178 116
Width: 285
Flags: W
Fore
145 498 m 2,0,1
 193 498 193 498 218.5 474.5 c 128,-1,2
 244 451 244 451 244 409 c 0,3,4
 244 387 244 387 236 371.5 c 128,-1,5
 228 356 228 356 202 337 c 2,6,-1
 101 265 l 2,7,8
 90 258 90 258 86.5 250.5 c 128,-1,9
 83 243 83 243 82 234 c 1,10,-1
 249 234 l 1,11,-1
 249 189 l 1,12,-1
 24 189 l 1,13,-1
 24 227 l 2,14,15
 24 250 24 250 34.5 268 c 128,-1,16
 45 286 45 286 62 299 c 2,17,-1
 178 382 l 2,18,19
 183 385 183 385 186 393 c 128,-1,20
 189 401 189 401 189 409 c 0,21,22
 189 430 189 430 178 442 c 128,-1,23
 167 454 167 454 146 454 c 2,24,-1
 136 454 l 2,25,26
 119 454 119 454 101.5 442 c 128,-1,27
 84 430 84 430 70 413 c 1,28,-1
 28 444 l 1,29,30
 49 470 49 470 77 484 c 128,-1,31
 105 498 105 498 136 498 c 2,32,-1
 145 498 l 2,0,1
EndSplineSet
EndChar
StartChar: threesuperior
Encoding: 179 179 117
Width: 270
Flags: W
Fore
82 384 m 1,0,-1
 153 384 l 2,1,2
 163 385 163 385 169.5 391 c 128,-1,3
 176 397 176 397 176 408 c 0,4,5
 176 453 176 453 133 453 c 2,6,-1
 122 453 l 2,7,8
 105 453 105 453 87 441.5 c 128,-1,9
 69 430 69 430 55 414 c 1,10,-1
 15 444 l 1,11,12
 35 469 35 469 62.5 483.5 c 128,-1,13
 90 498 90 498 122 498 c 2,14,-1
 133 498 l 2,15,16
 181 498 181 498 206.5 474 c 128,-1,17
 232 450 232 450 232 408 c 0,18,19
 232 383 232 383 216 364 c 1,20,21
 231 351 231 351 239 333 c 128,-1,22
 247 315 247 315 247 297 c 0,23,24
 247 246 247 246 211.5 216.5 c 128,-1,25
 176 187 176 187 124 187 c 0,26,27
 86 187 86 187 59 202 c 128,-1,28
 32 217 32 217 7 247 c 1,29,-1
 48 280 l 1,30,31
 66 259 66 259 85.5 245 c 128,-1,32
 105 231 105 231 125 231 c 0,33,34
 151 231 151 231 171 250.5 c 128,-1,35
 191 270 191 270 191 297 c 0,36,37
 191 313 191 313 179.5 326.5 c 128,-1,38
 168 340 168 340 151 340 c 2,39,-1
 82 340 l 1,40,-1
 82 384 l 1,0,-1
EndSplineSet
EndChar
StartChar: acute
Encoding: 180 180 118
Width: 126
Flags: W
Fore
64 495 m 1,0,-1
 140 495 l 1,1,-1
 55 370 l 1,2,-1
 -22 370 l 1,3,-1
 64 495 l 1,0,-1
EndSplineSet
EndChar
StartChar: mu
Encoding: 956 181 119
AltUni: 956
Width: 393
Flags: W
Fore
31 -122 m 1,0,-1
 31 351 l 1,1,-1
 105 351 l 1,2,-1
 105 115 l 2,3,4
 105 91 105 91 119 70.5 c 128,-1,5
 133 50 133 50 156 50 c 2,6,-1
 197 50 l 2,7,8
 226 50 226 50 249.5 73 c 128,-1,9
 273 96 273 96 278 125 c 1,10,-1
 278 351 l 1,11,-1
 351 351 l 1,12,-1
 351 0 l 1,13,-1
 278 0 l 1,14,-1
 278 21 l 1,15,16
 261 10 261 10 240 2.5 c 128,-1,17
 219 -5 219 -5 197 -5 c 2,18,-1
 156 -5 l 2,19,20
 143 -5 143 -5 129.5 -2 c 128,-1,21
 116 1 116 1 105 6 c 1,22,-1
 105 -122 l 1,23,-1
 31 -122 l 1,0,-1
EndSplineSet
EndChar
StartChar: paragraph
Encoding: 182 182 120
Width: 446
Flags: W
Fore
429 486 m 1,0,-1
 429 -39 l 1,1,-1
 361 -39 l 1,2,-1
 361 426 l 1,3,-1
 313 426 l 1,4,-1
 313 -39 l 1,5,-1
 246 -39 l 1,6,-1
 246 186 l 1,7,-1
 167 186 l 2,8,9
 138 186 138 186 112 198.5 c 128,-1,10
 86 211 86 211 67 231.5 c 128,-1,11
 48 252 48 252 37 278.5 c 128,-1,12
 26 305 26 305 26 334 c 256,13,14
 26 363 26 363 37 390 c 128,-1,15
 48 417 48 417 67 438 c 128,-1,16
 86 459 86 459 112 471.5 c 128,-1,17
 138 484 138 484 167 484 c 2,18,-1
 429 486 l 1,0,-1
EndSplineSet
EndChar
StartChar: periodcentered
Encoding: 183 183 121
Width: 254
Flags: W
Fore
60 235 m 256,0,1
 60 260 60 260 78 276.5 c 128,-1,2
 96 293 96 293 125 293 c 256,3,4
 154 293 154 293 172 276.5 c 128,-1,5
 190 260 190 260 190 235 c 256,6,7
 190 210 190 210 172 194 c 128,-1,8
 154 178 154 178 125 178 c 256,9,10
 96 178 96 178 78 194 c 128,-1,11
 60 210 60 210 60 235 c 256,0,1
EndSplineSet
EndChar
StartChar: cedilla
Encoding: 184 184 122
Width: 229
Flags: W
Fore
103 -92 m 0,0,1
 111 -94 111 -94 121 -90.5 c 128,-1,2
 131 -87 131 -87 131 -77 c 0,3,4
 131 -62 131 -62 113 -54 c 0,5,6
 89 -43 89 -43 79.5 -33 c 128,-1,7
 70 -23 70 -23 71 -3 c 2,8,-1
 71 19 l 1,9,-1
 136 19 l 1,10,-1
 136 -3 l 1,11,-1
 135 -1 l 1,12,13
 138 -12 138 -12 142 -15 c 128,-1,14
 146 -18 146 -18 152 -21 c 1,15,-1
 148 -20 l 1,16,17
 152 -22 152 -22 153 -22 c 1,18,19
 165 -30 165 -30 176 -42 c 128,-1,20
 187 -54 187 -54 187 -71 c 0,21,22
 187 -103 187 -103 163.5 -115 c 128,-1,23
 140 -127 140 -127 108 -127 c 2,24,-1
 99 -127 l 2,25,26
 67 -123 67 -123 47.5 -106 c 128,-1,27
 28 -89 28 -89 28 -53 c 1,28,-1
 77 -53 l 1,29,30
 77 -68 77 -68 82.5 -78 c 128,-1,31
 88 -88 88 -88 103 -92 c 0,0,1
EndSplineSet
EndChar
StartChar: onesuperior
Encoding: 185 185 123
Width: 239
Flags: W
Fore
99 189 m 1,0,-1
 99 389 l 1,1,2
 75 379 75 379 33 379 c 1,3,-1
 33 423 l 1,4,5
 59 423 59 423 78.5 441.5 c 128,-1,6
 98 460 98 460 99 484 c 1,7,-1
 153 484 l 1,8,-1
 153 189 l 1,9,-1
 99 189 l 1,0,-1
EndSplineSet
EndChar
StartChar: onequarter
Encoding: 188 188 126
Width: 590
Flags: W
Fore
498 8 m 1,0,-1
 498 64 l 1,1,-1
 535 64 l 1,2,-1
 535 108 l 1,3,-1
 498 108 l 1,4,-1
 498 303 l 1,5,-1
 449 303 l 1,6,-1
 306 102 l 1,7,8
 306 64 306 64 347 64 c 2,9,-1
 444 64 l 1,10,-1
 444 8 l 1,11,-1
 498 8 l 1,0,-1
444 108 m 1,12,-1
 375 108 l 1,13,-1
 444 204 l 1,14,-1
 444 108 l 1,12,-1
138 191 m 1,15,-1
 138 486 l 1,16,-1
 83 486 l 1,17,18
 82 462 82 462 63 443.5 c 128,-1,19
 44 425 44 425 18 425 c 1,20,-1
 18 381 l 1,21,22
 59 381 59 381 83 391 c 1,23,-1
 83 191 l 1,24,-1
 138 191 l 1,15,-1
93 -16 m 1,25,-1
 364 500 l 1,26,-1
 437 500 l 1,27,-1
 168 -16 l 1,28,-1
 93 -16 l 1,25,-1
EndSplineSet
Ligature: 0 0 'frac' one fraction four
Ligature: 0 0 'frac' one slash four
EndChar
StartChar: onehalf
Encoding: 189 189 127
Width: 590
Flags: W
Fore
458 304 m 2,0,1
 505 304 505 304 529.5 281 c 128,-1,2
 554 258 554 258 554 218 c 0,3,4
 554 197 554 197 545.5 182 c 128,-1,5
 537 167 537 167 513 149 c 1,6,-1
 514 149 l 1,7,-1
 416 79 l 2,8,9
 401 68 401 68 398 51 c 1,10,-1
 559 51 l 1,11,-1
 559 8 l 1,12,-1
 342 8 l 1,13,-1
 342 43 l 2,14,15
 342 66 342 66 352 83.5 c 128,-1,16
 362 101 362 101 378 113 c 2,17,-1
 489 192 l 2,18,19
 494 195 494 195 497 202.5 c 128,-1,20
 500 210 500 210 500 218 c 0,21,22
 500 261 500 261 459 261 c 2,23,-1
 450 261 l 2,24,25
 433 261 433 261 416.5 249.5 c 128,-1,26
 400 238 400 238 386 223 c 1,27,-1
 346 252 l 1,28,29
 366 275 366 275 393 289.5 c 128,-1,30
 420 304 420 304 450 304 c 2,31,-1
 458 304 l 2,0,1
138 191 m 1,32,-1
 138 486 l 1,33,-1
 83 486 l 1,34,35
 82 462 82 462 63 443.5 c 128,-1,36
 44 425 44 425 18 425 c 1,37,-1
 18 381 l 1,38,39
 59 381 59 381 83 391 c 1,40,-1
 83 191 l 1,41,-1
 138 191 l 1,32,-1
84 -16 m 1,42,-1
 355 500 l 1,43,-1
 428 500 l 1,44,-1
 159 -16 l 1,45,-1
 84 -16 l 1,42,-1
EndSplineSet
Ligature: 0 0 'frac' one fraction two
Ligature: 0 0 'frac' one slash two
EndChar
StartChar: threequarters
Encoding: 190 190 128
Width: 590
Flags: W
Fore
96 386 m 1,0,-1
 167 386 l 2,1,2
 189 388 189 388 189 410 c 0,3,4
 189 455 189 455 146 455 c 2,5,-1
 136 455 l 2,6,7
 118 455 118 455 100.5 443.5 c 128,-1,8
 83 432 83 432 68 415 c 1,9,-1
 28 446 l 1,10,11
 48 471 48 471 76 485.5 c 128,-1,12
 104 500 104 500 136 500 c 2,13,-1
 146 500 l 2,14,15
 194 500 194 500 220 476 c 128,-1,16
 246 452 246 452 246 410 c 0,17,18
 246 384 246 384 230 365 c 1,19,20
 245 351 245 351 253 333 c 128,-1,21
 261 315 261 315 261 298 c 0,22,23
 261 247 261 247 225.5 217.5 c 128,-1,24
 190 188 190 188 138 188 c 0,25,26
 100 188 100 188 73 203 c 128,-1,27
 46 218 46 218 20 248 c 1,28,-1
 61 281 l 1,29,30
 80 260 80 260 99 246 c 128,-1,31
 118 232 118 232 139 232 c 0,32,33
 165 232 165 232 185 251.5 c 128,-1,34
 205 271 205 271 205 298 c 0,35,36
 205 315 205 315 193.5 328 c 128,-1,37
 182 341 182 341 165 341 c 2,38,-1
 96 341 l 1,39,-1
 96 386 l 1,0,-1
493 8 m 1,40,-1
 493 64 l 1,41,-1
 396 64 l 2,42,43
 355 64 355 64 355 102 c 1,44,-1
 498 303 l 1,45,-1
 547 303 l 1,46,-1
 547 108 l 1,47,-1
 584 108 l 1,48,-1
 584 64 l 1,49,-1
 547 64 l 1,50,-1
 547 8 l 1,51,-1
 493 8 l 1,40,-1
493 204 m 1,52,-1
 424 108 l 1,53,-1
 493 108 l 1,54,-1
 493 204 l 1,52,-1
166 -16 m 1,55,-1
 437 500 l 1,56,-1
 510 500 l 1,57,-1
 241 -16 l 1,58,-1
 166 -16 l 1,55,-1
EndSplineSet
Ligature: 0 0 'frac' three fraction four
Ligature: 0 0 'frac' three slash four
EndChar
StartChar: Aring
Encoding: 197 197 134
Width: 572
Flags: W
Fore
232 467 m 1,0,1
 215 478 215 478 203.5 496 c 128,-1,2
 192 514 192 514 192 534 c 0,3,4
 192 566 192 566 217 589 c 128,-1,5
 242 612 242 612 280 612 c 0,6,7
 316 612 316 612 341 589 c 128,-1,8
 366 566 366 566 366 534 c 0,9,10
 366 511 366 511 353.5 493.5 c 128,-1,11
 341 476 341 476 321 465 c 1,12,13
 332 456 332 456 334 450 c 2,14,-1
 542 0 l 1,15,-1
 462 0 l 1,16,-1
 401 133 l 1,17,-1
 157 133 l 1,18,19
 142 101 142 101 126 66.5 c 128,-1,20
 110 32 110 32 96 0 c 1,21,-1
 16 0 l 1,22,-1
 232 467 l 1,0,1
181 188 m 1,23,-1
 375 188 l 1,24,25
 362 216 362 216 350 241.5 c 128,-1,26
 338 267 338 267 327 291.5 c 128,-1,27
 316 316 316 316 304 342 c 128,-1,28
 292 368 292 368 279 397 c 1,29,-1
 181 188 l 1,23,-1
254 534 m 0,30,31
 254 522 254 522 261.5 513.5 c 128,-1,32
 269 505 269 505 280 505 c 0,33,34
 290 505 290 505 296.5 513.5 c 128,-1,35
 303 522 303 522 303 534 c 0,36,37
 303 545 303 545 296.5 553.5 c 128,-1,38
 290 562 290 562 280 562 c 0,39,40
 269 562 269 562 261.5 553.5 c 128,-1,41
 254 545 254 545 254 534 c 0,30,31
EndSplineSet
EndChar
StartChar: AE
Encoding: 198 198 135
Width: 682
Flags: W
Fore
235 491 m 1,0,1
 240 491 240 491 249 491 c 128,-1,2
 258 491 258 491 261 490 c 2,3,4
 263 490 263 490 263.5 489.5 c 128,-1,5
 264 489 264 489 266 489 c 2,6,-1
 564 489 l 1,7,-1
 564 434 l 1,8,-1
 319 434 l 1,9,10
 327 398 327 398 337 358.5 c 128,-1,11
 347 319 347 319 355 283 c 1,12,-1
 608 283 l 1,13,-1
 608 228 l 1,14,-1
 368 228 l 1,15,-1
 408 56 l 1,16,-1
 659 56 l 1,17,-1
 659 0 l 1,18,-1
 345 0 l 1,19,-1
 314 133 l 1,20,-1
 149 133 l 1,21,22
 134 101 134 101 118.5 66.5 c 128,-1,23
 103 32 103 32 89 0 c 1,24,-1
 9 0 l 1,25,-1
 235 491 l 1,0,1
173 188 m 1,26,-1
 302 188 l 1,27,28
 295 216 295 216 289.5 239 c 128,-1,29
 284 262 284 262 279 284 c 128,-1,30
 274 306 274 306 268.5 329 c 128,-1,31
 263 352 263 352 256 382 c 1,32,-1
 173 188 l 1,26,-1
EndSplineSet
EndChar
StartChar: Ccedilla
Encoding: 199 199 136
Width: 499
Flags: W
Fore
395 332 m 1,0,1
 395 354 395 354 387 374.5 c 128,-1,2
 379 395 379 395 365.5 410.5 c 128,-1,3
 352 426 352 426 334 435 c 128,-1,4
 316 444 316 444 295 444 c 2,5,-1
 238 444 l 2,6,7
 211 444 211 444 186.5 431 c 128,-1,8
 162 418 162 418 143.5 397 c 128,-1,9
 125 376 125 376 114.5 349 c 128,-1,10
 104 322 104 322 104 293 c 2,11,-1
 104 162 l 2,12,13
 104 141 104 141 112 120 c 128,-1,14
 120 99 120 99 133.5 82.5 c 128,-1,15
 147 66 147 66 165 56 c 128,-1,16
 183 46 183 46 203 46 c 2,17,-1
 262 46 l 2,18,19
 289 46 289 46 313.5 56.5 c 128,-1,20
 338 67 338 67 356.5 86 c 128,-1,21
 375 105 375 105 386 130 c 128,-1,22
 397 155 397 155 397 184 c 1,23,-1
 471 184 l 1,24,25
 471 143 471 143 456 109 c 128,-1,26
 441 75 441 75 415.5 50 c 128,-1,27
 390 25 390 25 355 9.5 c 128,-1,28
 320 -6 320 -6 281 -9 c 1,29,30
 284 -14 284 -14 287 -16.5 c 128,-1,31
 290 -19 290 -19 295 -21 c 1,32,-1
 291 -20 l 1,33,34
 295 -22 295 -22 296 -22 c 1,35,36
 308 -30 308 -30 319 -42 c 128,-1,37
 330 -54 330 -54 330 -71 c 0,38,39
 330 -103 330 -103 306.5 -115 c 128,-1,40
 283 -127 283 -127 251 -127 c 2,41,-1
 242 -127 l 2,42,43
 210 -123 210 -123 190.5 -106 c 128,-1,44
 171 -89 171 -89 171 -53 c 1,45,-1
 220 -53 l 1,46,47
 220 -68 220 -68 225.5 -78 c 128,-1,48
 231 -88 231 -88 246 -92 c 0,49,50
 254 -94 254 -94 264 -90.5 c 128,-1,51
 274 -87 274 -87 274 -77 c 0,52,53
 274 -62 274 -62 256 -54 c 0,54,55
 234 -43 234 -43 224.5 -34.5 c 128,-1,56
 215 -26 215 -26 214 -10 c 1,57,-1
 203 -10 l 2,58,59
 167 -10 167 -10 135.5 4 c 128,-1,60
 104 18 104 18 80 42 c 128,-1,61
 56 66 56 66 42.5 97 c 128,-1,62
 29 128 29 128 29 162 c 2,63,-1
 29 293 l 2,64,65
 29 334 29 334 45.5 371.5 c 128,-1,66
 62 409 62 409 90.5 437.5 c 128,-1,67
 119 466 119 466 157 483 c 128,-1,68
 195 500 195 500 238 500 c 2,69,-1
 295 500 l 2,70,71
 332 500 332 500 363.5 487 c 128,-1,72
 395 474 395 474 418.5 451.5 c 128,-1,73
 442 429 442 429 455.5 398.5 c 128,-1,74
 469 368 469 368 469 332 c 1,75,-1
 395 332 l 1,0,1
EndSplineSet
EndChar
StartChar: Eth
Encoding: 208 208 145
Width: 575
Flags: W
Fore
143 0 m 2,0,1
 120 0 120 0 103 15.5 c 128,-1,2
 86 31 86 31 86 51 c 2,3,-1
 86 221 l 1,4,-1
 40 221 l 1,5,-1
 40 279 l 1,6,-1
 86 279 l 1,7,-1
 86 489 l 1,8,-1
 353 489 l 2,9,10
 390 489 390 489 422 476 c 128,-1,11
 454 463 454 463 477.5 441 c 128,-1,12
 501 419 501 419 514.5 389.5 c 128,-1,13
 528 360 528 360 528 326 c 2,14,-1
 528 197 l 2,15,16
 528 156 528 156 511.5 120 c 128,-1,17
 495 84 495 84 466.5 57.5 c 128,-1,18
 438 31 438 31 400 15.5 c 128,-1,19
 362 0 362 0 319 0 c 2,20,-1
 143 0 l 2,0,1
161 279 m 1,21,-1
 335 279 l 1,22,-1
 335 221 l 1,23,-1
 161 221 l 1,24,-1
 161 56 l 1,25,-1
 319 56 l 2,26,27
 346 56 346 56 371 67 c 128,-1,28
 396 78 396 78 414.5 97 c 128,-1,29
 433 116 433 116 444 142 c 128,-1,30
 455 168 455 168 455 197 c 2,31,-1
 455 326 l 2,32,33
 455 348 455 348 447 367.5 c 128,-1,34
 439 387 439 387 425.5 402 c 128,-1,35
 412 417 412 417 393 425.5 c 128,-1,36
 374 434 374 434 353 434 c 2,37,-1
 161 434 l 1,38,-1
 161 279 l 1,21,-1
EndSplineSet
EndChar
StartChar: multiply
Encoding: 215 215 152
Width: 465
Flags: W
Fore
276 225 m 1,0,1
 282 219 282 219 291 210 c 128,-1,2
 300 201 300 201 311 190.5 c 128,-1,3
 322 180 322 180 333.5 169 c 128,-1,4
 345 158 345 158 355 149 c 2,5,-1
 368 137 l 1,6,7
 376 126 376 126 385 120 c 1,8,-1
 338 78 l 1,9,-1
 229 182 l 1,10,-1
 122 78 l 1,11,-1
 82 113 l 1,12,-1
 76 121 l 1,13,-1
 183 226 l 1,14,15
 174 234 174 234 158.5 249 c 128,-1,16
 143 264 143 264 127 279.5 c 128,-1,17
 111 295 111 295 96.5 309.5 c 128,-1,18
 82 324 82 324 75 331 c 1,19,-1
 122 374 l 1,20,-1
 229 270 l 1,21,-1
 339 375 l 1,22,-1
 373 342 l 1,23,-1
 369 343 l 1,24,-1
 385 332 l 1,25,-1
 276 225 l 1,0,1
EndSplineSet
EndChar
StartChar: Oslash
Encoding: 216 216 153
Width: 518
Flags: W
Fore
28 -17 m 1,0,-1
 75 48 l 1,1,2
 55 71 55 71 42.5 102 c 128,-1,3
 30 133 30 133 30 163 c 2,4,-1
 30 292 l 2,5,6
 30 334 30 334 46.5 371.5 c 128,-1,7
 63 409 63 409 91.5 437.5 c 128,-1,8
 120 466 120 466 158.5 483 c 128,-1,9
 197 500 197 500 240 500 c 2,10,-1
 297 500 l 2,11,12
 322 500 322 500 341.5 494.5 c 128,-1,13
 361 489 361 489 380 478 c 1,14,-1
 399 504 l 1,15,-1
 473 504 l 1,16,-1
 427 440 l 1,17,18
 472 390 472 390 472 326 c 2,19,-1
 472 197 l 2,20,21
 472 156 472 156 455.5 118.5 c 128,-1,22
 439 81 439 81 410.5 52.5 c 128,-1,23
 382 24 382 24 344 7 c 128,-1,24
 306 -10 306 -10 263 -10 c 2,25,-1
 205 -10 l 2,26,27
 185 -10 185 -10 163 -4.5 c 128,-1,28
 141 1 141 1 123 10 c 1,29,30
 112 -4 112 -4 105 -17 c 1,31,-1
 28 -17 l 1,0,-1
105 163 m 2,32,33
 105 151 105 151 108.5 135.5 c 128,-1,34
 112 120 112 120 117 109 c 1,35,36
 175 190 175 190 231 268 c 128,-1,37
 287 346 287 346 345 427 c 1,38,39
 320 444 320 444 297 444 c 2,40,-1
 240 444 l 2,41,42
 213 444 213 444 188.5 431 c 128,-1,43
 164 418 164 418 145.5 397 c 128,-1,44
 127 376 127 376 116 348.5 c 128,-1,45
 105 321 105 321 105 292 c 2,46,-1
 105 163 l 2,32,33
398 326 m 2,47,48
 398 353 398 353 385 379 c 1,49,50
 326 296 326 296 271.5 219.5 c 128,-1,51
 217 143 217 143 158 60 c 1,52,53
 180 46 180 46 205 46 c 2,54,-1
 263 46 l 2,55,56
 290 46 290 46 314.5 58.5 c 128,-1,57
 339 71 339 71 357.5 92 c 128,-1,58
 376 113 376 113 387 140.5 c 128,-1,59
 398 168 398 168 398 197 c 2,60,-1
 398 326 l 2,47,48
EndSplineSet
KernsSLIFO: 314 -60 0 0 59 -18 0 0 58 -20 0 0 57 -20 0 0 53 -20 0 0 15 -50 0 0 13 -50 0 0
EndChar
StartChar: Thorn
Encoding: 222 222 159
Width: 429
Flags: W
Fore
209 405 m 2,0,1
 246 405 246 405 278.5 396 c 128,-1,2
 311 387 311 387 336 369.5 c 128,-1,3
 361 352 361 352 375.5 325.5 c 128,-1,4
 390 299 390 299 390 265 c 0,5,6
 390 223 390 223 373.5 193.5 c 128,-1,7
 357 164 357 164 328.5 145.5 c 128,-1,8
 300 127 300 127 262 118.5 c 128,-1,9
 224 110 224 110 181 110 c 2,10,-1
 130 110 l 1,11,-1
 130 0 l 1,12,-1
 56 0 l 1,13,-1
 56 501 l 1,14,-1
 130 501 l 1,15,-1
 130 405 l 1,16,-1
 209 405 l 2,0,1
130 166 m 1,17,-1
 181 166 l 2,18,19
 209 166 209 166 233.5 171 c 128,-1,20
 258 176 258 176 276.5 187.5 c 128,-1,21
 295 199 295 199 305.5 218 c 128,-1,22
 316 237 316 237 316 265 c 0,23,24
 316 286 316 286 306.5 302 c 128,-1,25
 297 318 297 318 281.5 328.5 c 128,-1,26
 266 339 266 339 247 344 c 128,-1,27
 228 349 228 349 209 349 c 2,28,-1
 130 349 l 1,29,-1
 130 166 l 1,17,-1
EndSplineSet
EndChar
StartChar: uni00DF
Encoding: 223 223 160
Width: 436
Flags: W
Fore
40 -125 m 1,0,-1
 40 347 l 2,1,2
 40 376 40 376 52 402.5 c 128,-1,3
 64 429 64 429 84.5 449 c 128,-1,4
 105 469 105 469 132.5 481 c 128,-1,5
 160 493 160 493 192 493 c 2,6,-1
 233 493 l 2,7,8
 260 493 260 493 283.5 483 c 128,-1,9
 307 473 307 473 324 456 c 128,-1,10
 341 439 341 439 351 417 c 128,-1,11
 361 395 361 395 361 370 c 2,12,-1
 361 320 l 1,13,14
 334 310 334 310 309.5 296.5 c 128,-1,15
 285 283 285 283 285 266 c 0,16,17
 285 247 285 247 293.5 237 c 128,-1,18
 302 227 302 227 317 214 c 1,19,-1
 316 215 l 1,20,-1
 324 208 l 2,21,22
 332 202 332 202 338 196.5 c 128,-1,23
 344 191 344 191 349 187 c 0,24,25
 369 172 369 172 382 156 c 128,-1,26
 395 140 395 140 395 110 c 0,27,28
 395 86 395 86 386 64.5 c 128,-1,29
 377 43 377 43 359 26.5 c 128,-1,30
 341 10 341 10 314.5 0.5 c 128,-1,31
 288 -9 288 -9 254 -9 c 0,32,33
 230 -9 230 -9 197 0 c 128,-1,34
 164 9 164 9 141 22 c 1,35,-1
 169 78 l 1,36,37
 195 65 195 65 216.5 58 c 128,-1,38
 238 51 238 51 254 51 c 0,39,40
 286 51 286 51 303.5 69 c 128,-1,41
 321 87 321 87 321 108 c 0,42,43
 321 126 321 126 315.5 133 c 128,-1,44
 310 140 310 140 299 148 c 0,45,46
 294 152 294 152 288 156.5 c 128,-1,47
 282 161 282 161 276 166 c 0,48,49
 244 194 244 194 228 217 c 128,-1,50
 212 240 212 240 212 266 c 256,51,52
 212 292 212 292 232.5 315 c 128,-1,53
 253 338 253 338 287 356 c 1,54,-1
 287 370 l 2,55,56
 287 382 287 382 282.5 394 c 128,-1,57
 278 406 278 406 270.5 416 c 128,-1,58
 263 426 263 426 253.5 432 c 128,-1,59
 244 438 244 438 233 438 c 2,60,-1
 192 438 l 2,61,62
 176 438 176 438 161.5 430 c 128,-1,63
 147 422 147 422 136.5 409.5 c 128,-1,64
 126 397 126 397 119.5 380.5 c 128,-1,65
 113 364 113 364 113 347 c 2,66,-1
 113 -125 l 1,67,-1
 40 -125 l 1,0,-1
EndSplineSet
EndChar
StartChar: ae
Encoding: 230 230 167
Width: 647
Flags: W
Fore
68 321 m 1,0,1
 91 338 91 338 115 347.5 c 128,-1,2
 139 357 139 357 165 357 c 2,3,-1
 228 357 l 2,4,5
 256 357 256 357 282 343.5 c 128,-1,6
 308 330 308 330 325 311 c 1,7,8
 345 330 345 330 373.5 343 c 128,-1,9
 402 356 402 356 434 356 c 2,10,-1
 475 356 l 2,11,12
 502 356 502 356 525.5 346 c 128,-1,13
 549 336 549 336 566 319 c 128,-1,14
 583 302 583 302 593 280 c 128,-1,15
 603 258 603 258 603 234 c 2,16,-1
 603 175 l 1,17,-1
 355 175 l 1,18,-1
 355 117 l 2,19,20
 355 106 355 106 359 94 c 128,-1,21
 363 82 363 82 370.5 72.5 c 128,-1,22
 378 63 378 63 388 56.5 c 128,-1,23
 398 50 398 50 409 50 c 2,24,-1
 451 50 l 2,25,26
 467 50 467 50 481.5 57 c 128,-1,27
 496 64 496 64 506.5 76 c 128,-1,28
 517 88 517 88 523 104 c 128,-1,29
 529 120 529 120 529 139 c 1,30,-1
 603 139 l 1,31,32
 603 108 603 108 591 81.5 c 128,-1,33
 579 55 579 55 558 36 c 128,-1,34
 537 17 537 17 509.5 6 c 128,-1,35
 482 -5 482 -5 451 -5 c 2,36,-1
 409 -5 l 2,37,38
 376 -5 376 -5 350 8.5 c 128,-1,39
 324 22 324 22 307 45 c 1,40,41
 286 23 286 23 256 9.5 c 128,-1,42
 226 -4 226 -4 193 -4 c 2,43,-1
 151 -4 l 2,44,45
 127 -4 127 -4 106 4 c 128,-1,46
 85 12 85 12 69 26.5 c 128,-1,47
 53 41 53 41 44 60 c 128,-1,48
 35 79 35 79 35 101 c 0,49,50
 35 128 35 128 48.5 151 c 128,-1,51
 62 174 62 174 83.5 190.5 c 128,-1,52
 105 207 105 207 132 216 c 128,-1,53
 159 225 159 225 186 225 c 2,54,-1
 282 225 l 1,55,-1
 282 238 l 1,56,57
 279 259 279 259 264 280 c 128,-1,58
 249 301 249 301 228 301 c 2,59,-1
 165 301 l 2,60,61
 139 301 139 301 107 271 c 1,62,-1
 68 321 l 1,0,1
186 175 m 2,63,64
 173 175 173 175 159.5 169 c 128,-1,65
 146 163 146 163 135 153 c 128,-1,66
 124 143 124 143 116.5 130 c 128,-1,67
 109 117 109 117 109 103 c 0,68,69
 109 83 109 83 120.5 67 c 128,-1,70
 132 51 132 51 151 51 c 2,71,-1
 193 51 l 2,72,73
 209 51 209 51 224.5 58.5 c 128,-1,74
 240 66 240 66 252.5 78.5 c 128,-1,75
 265 91 265 91 272.5 107 c 128,-1,76
 280 123 280 123 282 140 c 2,77,-1
 282 175 l 1,78,-1
 186 175 l 2,63,64
434 300 m 2,79,80
 404 300 404 300 381.5 278 c 128,-1,81
 359 256 359 256 355 225 c 1,82,-1
 529 225 l 1,83,-1
 529 234 l 2,84,85
 529 245 529 245 525 256.5 c 128,-1,86
 521 268 521 268 513.5 278 c 128,-1,87
 506 288 506 288 496 294 c 128,-1,88
 486 300 486 300 475 300 c 2,89,-1
 434 300 l 2,79,80
EndSplineSet
EndChar
StartChar: ccedilla
Encoding: 231 231 168
Width: 380
Flags: W
Fore
273 235 m 1,0,1
 273 261 273 261 257.5 280.5 c 128,-1,2
 242 300 242 300 219 300 c 2,3,-1
 179 300 l 2,4,5
 163 300 163 300 148.5 292.5 c 128,-1,6
 134 285 134 285 123.5 272 c 128,-1,7
 113 259 113 259 107 243 c 128,-1,8
 101 227 101 227 101 209 c 2,9,-1
 101 117 l 2,10,11
 101 93 101 93 116.5 71.5 c 128,-1,12
 132 50 132 50 155 50 c 2,13,-1
 196 50 l 2,14,15
 228 50 228 50 251 73.5 c 128,-1,16
 274 97 274 97 274 135 c 1,17,-1
 348 135 l 1,18,19
 348 76 348 76 310.5 39.5 c 128,-1,20
 273 3 273 3 218 -3 c 1,21,22
 221 -12 221 -12 224.5 -15 c 128,-1,23
 228 -18 228 -18 234 -21 c 1,24,-1
 230 -20 l 1,25,26
 234 -22 234 -22 235 -22 c 1,27,28
 247 -30 247 -30 258 -42 c 128,-1,29
 269 -54 269 -54 269 -71 c 0,30,31
 269 -103 269 -103 245.5 -115 c 128,-1,32
 222 -127 222 -127 190 -127 c 2,33,-1
 181 -127 l 2,34,35
 149 -123 149 -123 129.5 -106 c 128,-1,36
 110 -89 110 -89 110 -53 c 1,37,-1
 159 -53 l 1,38,39
 159 -68 159 -68 164.5 -78 c 128,-1,40
 170 -88 170 -88 185 -92 c 0,41,42
 193 -94 193 -94 203 -90.5 c 128,-1,43
 213 -87 213 -87 213 -77 c 0,44,45
 213 -62 213 -62 195 -54 c 0,46,47
 172 -43 172 -43 162 -33.5 c 128,-1,48
 152 -24 152 -24 153 -5 c 1,49,50
 126 -5 126 -5 103 5 c 128,-1,51
 80 15 80 15 63 32 c 128,-1,52
 46 49 46 49 36.5 71 c 128,-1,53
 27 93 27 93 27 117 c 2,54,-1
 27 209 l 2,55,56
 27 239 27 239 39 265.5 c 128,-1,57
 51 292 51 292 72 312.5 c 128,-1,58
 93 333 93 333 120.5 344.5 c 128,-1,59
 148 356 148 356 179 356 c 2,60,-1
 219 356 l 2,61,62
 246 356 246 356 269.5 347 c 128,-1,63
 293 338 293 338 310 322 c 128,-1,64
 327 306 327 306 337 283.5 c 128,-1,65
 347 261 347 261 347 235 c 1,66,-1
 273 235 l 1,0,1
EndSplineSet
EndChar
StartChar: eth
Encoding: 240 240 177
Width: 451
Flags: W
Fore
414 189 m 0,0,1
 414 137 414 137 396.5 99.5 c 128,-1,2
 379 62 379 62 351 38 c 128,-1,3
 323 14 323 14 287.5 2.5 c 128,-1,4
 252 -9 252 -9 216 -9 c 0,5,6
 174 -9 174 -9 139 5 c 128,-1,7
 104 19 104 19 79 43.5 c 128,-1,8
 54 68 54 68 40 101.5 c 128,-1,9
 26 135 26 135 26 174 c 0,10,11
 26 219 26 219 42.5 255 c 128,-1,12
 59 291 59 291 86.5 315.5 c 128,-1,13
 114 340 114 340 148.5 353.5 c 128,-1,14
 183 367 183 367 219 367 c 0,15,16
 253 367 253 367 288 356 c 1,17,18
 274 373 274 373 257 389.5 c 128,-1,19
 240 406 240 406 223 420 c 1,20,-1
 209 412 l 1,21,-1
 100 363 l 1,22,-1
 78 412 l 1,23,-1
 169 453 l 1,24,25
 152 462 152 462 133 470 c 128,-1,26
 114 478 114 478 88 486 c 1,27,-1
 114 539 l 1,28,29
 146 525 146 525 177.5 511 c 128,-1,30
 209 497 209 497 232 482 c 1,31,32
 242 486 242 486 251 489.5 c 128,-1,33
 260 493 260 493 269 498 c 0,34,35
 280 503 280 503 297 511.5 c 128,-1,36
 314 520 314 520 336 531 c 1,37,-1
 360 480 l 1,38,-1
 282 446 l 1,39,40
 343 395 343 395 378.5 332.5 c 128,-1,41
 414 270 414 270 414 189 c 0,0,1
342 184 m 0,42,43
 341 217 341 217 333 240.5 c 128,-1,44
 325 264 325 264 310 279 c 128,-1,45
 295 294 295 294 272 302.5 c 128,-1,46
 249 311 249 311 217 315 c 0,47,48
 185 315 185 315 162 302 c 128,-1,49
 139 289 139 289 124 269 c 128,-1,50
 109 249 109 249 101.5 224 c 128,-1,51
 94 199 94 199 94 175 c 0,52,53
 94 143 94 143 104.5 118.5 c 128,-1,54
 115 94 115 94 132.5 77.5 c 128,-1,55
 150 61 150 61 171.5 52.5 c 128,-1,56
 193 44 193 44 215 44 c 0,57,58
 242 44 242 44 265 53 c 128,-1,59
 288 62 288 62 305 79.5 c 128,-1,60
 322 97 322 97 332 123 c 128,-1,61
 342 149 342 149 342 184 c 0,42,43
EndSplineSet
EndChar
StartChar: divide
Encoding: 247 247 184
Width: 465
Flags: W
Fore
32 197 m 1,0,-1
 32 254 l 1,1,-1
 376 254 l 1,2,-1
 376 197 l 1,3,-1
 32 197 l 1,0,-1
160 321 m 0,4,5
 160 340 160 340 174.5 351.5 c 128,-1,6
 189 363 189 363 210 363 c 256,7,8
 231 363 231 363 245 351.5 c 128,-1,9
 259 340 259 340 259 321 c 0,10,11
 259 303 259 303 245 291 c 128,-1,12
 231 279 231 279 210 279 c 256,13,14
 189 279 189 279 174.5 291 c 128,-1,15
 160 303 160 303 160 321 c 0,4,5
160 123 m 0,16,17
 160 142 160 142 174.5 154 c 128,-1,18
 189 166 189 166 210 166 c 256,19,20
 231 166 231 166 245 154 c 128,-1,21
 259 142 259 142 259 123 c 0,22,23
 259 105 259 105 245 93 c 128,-1,24
 231 81 231 81 210 81 c 256,25,26
 189 81 189 81 174.5 93 c 128,-1,27
 160 105 160 105 160 123 c 0,16,17
EndSplineSet
EndChar
StartChar: oslash
Encoding: 248 248 185
Width: 391
Flags: W
Fore
15 -16 m 1,0,-1
 58 44 l 1,1,2
 44 61 44 61 37.5 79 c 128,-1,3
 31 97 31 97 31 117 c 2,4,-1
 31 209 l 2,5,6
 31 239 31 239 43 265.5 c 128,-1,7
 55 292 55 292 76 312.5 c 128,-1,8
 97 333 97 333 124.5 344.5 c 128,-1,9
 152 356 152 356 183 356 c 2,10,-1
 225 356 l 2,11,12
 255 356 255 356 276 345 c 1,13,14
 281 351 281 351 284.5 356.5 c 128,-1,15
 288 362 288 362 293 367 c 1,16,-1
 368 367 l 1,17,-1
 325 307 l 1,18,19
 339 290 339 290 345.5 272 c 128,-1,20
 352 254 352 254 352 234 c 2,21,-1
 352 141 l 2,22,23
 352 111 352 111 340 84.5 c 128,-1,24
 328 58 328 58 307.5 38 c 128,-1,25
 287 18 287 18 259 6.5 c 128,-1,26
 231 -5 231 -5 200 -5 c 2,27,-1
 159 -5 l 2,28,29
 145 -5 145 -5 131.5 -2.5 c 128,-1,30
 118 0 118 0 107 5 c 1,31,32
 102 0 102 0 98.5 -5.5 c 128,-1,33
 95 -11 95 -11 91 -16 c 1,34,-1
 15 -16 l 1,0,-1
279 234 m 2,35,36
 279 240 279 240 278 243 c 1,37,-1
 143 54 l 1,38,39
 150 50 150 50 159 50 c 2,40,-1
 200 50 l 2,41,42
 216 50 216 50 230.5 57.5 c 128,-1,43
 245 65 245 65 255.5 78 c 128,-1,44
 266 91 266 91 272.5 107.5 c 128,-1,45
 279 124 279 124 279 141 c 2,46,-1
 279 234 l 2,35,36
105 117 m 2,47,48
 105 113 105 113 104 112.5 c 128,-1,49
 103 112 103 112 102.5 112.5 c 129,-1,50
 102 113 102 113 102.5 112.5 c 129,-1,51
 103 112 103 112 105 108 c 1,52,-1
 241 296 l 1,53,54
 231 300 231 300 225 300 c 2,55,-1
 183 300 l 2,56,57
 167 300 167 300 152.5 292.5 c 128,-1,58
 138 285 138 285 127.5 272 c 128,-1,59
 117 259 117 259 111 243 c 128,-1,60
 105 227 105 227 105 209 c 2,61,-1
 105 117 l 2,47,48
EndSplineSet
KernsSLIFO: 314 -40 0 0 90 -12 0 0 89 -18 0 0 87 -12 0 0 15 -18 0 0 13 -29 0 0
EndChar
StartChar: thorn
Encoding: 254 254 191
Width: 477
Flags: W
Fore
403 141 m 2,0,1
 403 111 403 111 391 84.5 c 128,-1,2
 379 58 379 58 358.5 38 c 128,-1,3
 338 18 338 18 310 6.5 c 128,-1,4
 282 -5 282 -5 251 -5 c 2,5,-1
 210 -5 l 2,6,7
 196 -5 196 -5 182 -2 c 128,-1,8
 168 1 168 1 156 6 c 1,9,-1
 156 -149 l 1,10,-1
 82 -149 l 1,11,-1
 82 484 l 1,12,-1
 156 484 l 1,13,-1
 156 334 l 1,14,15
 191 356 191 356 235 356 c 2,16,-1
 276 356 l 2,17,18
 303 356 303 356 326 346 c 128,-1,19
 349 336 349 336 366 319 c 128,-1,20
 383 302 383 302 393 280 c 128,-1,21
 403 258 403 258 403 234 c 2,22,-1
 403 141 l 2,0,1
330 234 m 2,23,24
 330 246 330 246 325.5 257.5 c 128,-1,25
 321 269 321 269 313.5 278.5 c 128,-1,26
 306 288 306 288 296.5 294 c 128,-1,27
 287 300 287 300 276 300 c 2,28,-1
 235 300 l 2,29,30
 219 300 219 300 204.5 292.5 c 128,-1,31
 190 285 190 285 179.5 273 c 128,-1,32
 169 261 169 261 162.5 245.5 c 128,-1,33
 156 230 156 230 156 213 c 2,34,-1
 156 117 l 2,35,36
 156 93 156 93 172 71.5 c 128,-1,37
 188 50 188 50 210 50 c 2,38,-1
 251 50 l 2,39,40
 267 50 267 50 281.5 57.5 c 128,-1,41
 296 65 296 65 307 78 c 128,-1,42
 318 91 318 91 324 107.5 c 128,-1,43
 330 124 330 124 330 141 c 2,44,-1
 330 234 l 2,23,24
EndSplineSet
EndChar
StartChar: Lslash
Encoding: 321 321 193
Width: 475
Flags: W
Fore
5 209 m 1,0,-1
 61 249 l 1,1,-1
 61 489 l 1,2,-1
 136 489 l 1,3,-1
 136 300 l 1,4,-1
 211 356 l 1,5,-1
 211 279 l 1,6,-1
 136 226 l 1,7,-1
 136 56 l 1,8,-1
 441 56 l 1,9,-1
 441 0 l 1,10,-1
 61 0 l 1,11,-1
 61 172 l 1,12,-1
 5 132 l 1,13,-1
 5 209 l 1,0,-1
EndSplineSet
EndChar
StartChar: lslash
Encoding: 322 322 194
Width: 215
Flags: W
Fore
15 208 m 1,0,-1
 70 253 l 1,1,-1
 70 484 l 1,2,-1
 143 484 l 1,3,-1
 143 313 l 1,4,-1
 195 355 l 1,5,-1
 195 273 l 1,6,-1
 143 232 l 1,7,-1
 143 0 l 1,8,-1
 70 0 l 1,9,-1
 70 172 l 1,10,-1
 18 130 l 1,11,-1
 15 208 l 1,0,-1
EndSplineSet
EndChar
StartChar: OE
Encoding: 338 338 195
Width: 806
Flags: W
Fore
209 0 m 2,0,1
 172 0 172 0 140 12.5 c 128,-1,2
 108 25 108 25 84 47 c 128,-1,3
 60 69 60 69 46.5 99 c 128,-1,4
 33 129 33 129 33 163 c 2,5,-1
 33 292 l 2,6,7
 33 334 33 334 49.5 370 c 128,-1,8
 66 406 66 406 95 432.5 c 128,-1,9
 124 459 124 459 162 474 c 128,-1,10
 200 489 200 489 244 489 c 2,11,-1
 759 489 l 1,12,-1
 759 429 l 1,13,-1
 430 429 l 1,14,-1
 430 284 l 1,15,-1
 708 284 l 1,16,-1
 708 224 l 1,17,-1
 430 224 l 1,18,-1
 430 61 l 1,19,-1
 759 61 l 1,20,-1
 759 0 l 1,21,-1
 209 0 l 2,0,1
266 61 m 2,22,23
 291 61 291 61 313.5 69 c 128,-1,24
 336 77 336 77 356 95 c 1,25,-1
 356 412 l 1,26,27
 342 420 342 420 328 424.5 c 128,-1,28
 314 429 314 429 300 429 c 2,29,-1
 244 429 l 2,30,31
 216 429 216 429 191 418.5 c 128,-1,32
 166 408 166 408 147.5 389.5 c 128,-1,33
 129 371 129 371 118 346 c 128,-1,34
 107 321 107 321 107 292 c 2,35,-1
 107 163 l 2,36,37
 107 120 107 120 136.5 90.5 c 128,-1,38
 166 61 166 61 209 61 c 2,39,-1
 266 61 l 2,22,23
EndSplineSet
EndChar
StartChar: oe
Encoding: 339 339 196
Width: 657
Flags: W
Fore
353 117 m 2,0,1
 353 93 353 93 369 71.5 c 128,-1,2
 385 50 385 50 407 50 c 2,3,-1
 449 50 l 2,4,5
 481 50 481 50 504 75.5 c 128,-1,6
 527 101 527 101 527 139 c 1,7,-1
 601 139 l 1,8,9
 601 107 601 107 589 81 c 128,-1,10
 577 55 577 55 556 35.5 c 128,-1,11
 535 16 535 16 507.5 5.5 c 128,-1,12
 480 -5 480 -5 449 -5 c 2,13,-1
 407 -5 l 2,14,15
 377 -5 377 -5 351.5 7 c 128,-1,16
 326 19 326 19 309 39 c 1,17,18
 288 19 288 19 260.5 7 c 128,-1,19
 233 -5 233 -5 201 -5 c 2,20,-1
 160 -5 l 2,21,22
 133 -5 133 -5 109.5 5 c 128,-1,23
 86 15 86 15 69 31.5 c 128,-1,24
 52 48 52 48 42 70.5 c 128,-1,25
 32 93 32 93 32 117 c 2,26,-1
 32 209 l 2,27,28
 32 239 32 239 44 265.5 c 128,-1,29
 56 292 56 292 77 312.5 c 128,-1,30
 98 333 98 333 125.5 344.5 c 128,-1,31
 153 356 153 356 184 356 c 2,32,-1
 226 356 l 2,33,34
 256 356 256 356 281 343 c 128,-1,35
 306 330 306 330 323 310 c 1,36,37
 344 333 344 333 370.5 344.5 c 128,-1,38
 397 356 397 356 432 356 c 2,39,-1
 473 356 l 2,40,41
 500 356 500 356 523.5 346 c 128,-1,42
 547 336 547 336 564 319 c 128,-1,43
 581 302 581 302 591 280 c 128,-1,44
 601 258 601 258 601 234 c 2,45,-1
 601 175 l 1,46,-1
 353 175 l 1,47,-1
 353 117 l 2,0,1
280 234 m 2,48,49
 280 246 280 246 275.5 257.5 c 128,-1,50
 271 269 271 269 263.5 278.5 c 128,-1,51
 256 288 256 288 246.5 294 c 128,-1,52
 237 300 237 300 226 300 c 2,53,-1
 184 300 l 2,54,55
 168 300 168 300 153.5 292.5 c 128,-1,56
 139 285 139 285 128.5 272 c 128,-1,57
 118 259 118 259 112 243 c 128,-1,58
 106 227 106 227 106 209 c 2,59,-1
 106 117 l 2,60,61
 106 93 106 93 122 71.5 c 128,-1,62
 138 50 138 50 160 50 c 2,63,-1
 201 50 l 2,64,65
 217 50 217 50 231.5 57.5 c 128,-1,66
 246 65 246 65 256.5 78 c 128,-1,67
 267 91 267 91 273.5 107.5 c 128,-1,68
 280 124 280 124 280 141 c 2,69,-1
 280 234 l 2,48,49
432 300 m 2,70,71
 402 300 402 300 379.5 278 c 128,-1,72
 357 256 357 256 353 225 c 1,73,-1
 527 225 l 1,74,-1
 527 234 l 2,75,76
 527 246 527 246 522.5 257.5 c 128,-1,77
 518 269 518 269 510.5 278.5 c 128,-1,78
 503 288 503 288 493.5 294 c 128,-1,79
 484 300 484 300 473 300 c 2,80,-1
 432 300 l 2,70,71
EndSplineSet
EndChar
StartChar: florin
Encoding: 402 402 202
Width: 525
Flags: W
Fore
280 49 m 0,0,1
 275 1 275 1 252 -35 c 128,-1,2
 229 -71 229 -71 194 -96 c 128,-1,3
 159 -121 159 -121 115 -133.5 c 128,-1,4
 71 -146 71 -146 24 -146 c 1,5,-1
 29 -86 l 1,6,7
 64 -86 64 -86 95 -77 c 128,-1,8
 126 -68 126 -68 150 -50.5 c 128,-1,9
 174 -33 174 -33 189 -7.5 c 128,-1,10
 204 18 204 18 207 51 c 2,11,-1
 230 305 l 1,12,-1
 153 305 l 1,13,-1
 155 351 l 1,14,-1
 234 351 l 1,15,16
 240 397 240 397 263 432 c 128,-1,17
 286 467 286 467 320.5 491 c 128,-1,18
 355 515 355 515 398.5 527.5 c 128,-1,19
 442 540 442 540 489 540 c 1,20,-1
 484 480 l 1,21,22
 415 480 415 480 366 447 c 128,-1,23
 317 414 317 414 307 351 c 1,24,-1
 380 351 l 1,25,-1
 378 305 l 1,26,-1
 303 305 l 1,27,28
 297 242 297 242 291.5 177 c 128,-1,29
 286 112 286 112 280 49 c 0,0,1
EndSplineSet
EndChar
StartChar: circumflex
Encoding: 710 710 203
Width: 340
Flags: W
Fore
145 619 m 1,0,-1
 202 619 l 1,1,-1
 298 488 l 1,2,-1
 224 488 l 1,3,-1
 173 560 l 1,4,-1
 123 488 l 1,5,-1
 49 488 l 1,6,-1
 145 619 l 1,0,-1
EndSplineSet
EndChar
StartChar: caron
Encoding: 711 711 204
Width: 340
Flags: W
Fore
49 619 m 1,0,-1
 123 619 l 1,1,-1
 173 547 l 1,2,-1
 224 619 l 1,3,-1
 298 619 l 1,4,-1
 202 488 l 1,5,-1
 145 488 l 1,6,-1
 49 619 l 1,0,-1
EndSplineSet
EndChar
StartChar: breve
Encoding: 728 728 205
Width: 328
Flags: W
Fore
285 538 m 1,0,1
 285 512 285 512 275.5 490 c 128,-1,2
 266 468 266 468 249 451 c 128,-1,3
 232 434 232 434 209.5 424.5 c 128,-1,4
 187 415 187 415 162 415 c 0,5,6
 136 415 136 415 113.5 424.5 c 128,-1,7
 91 434 91 434 74 451 c 128,-1,8
 57 468 57 468 47.5 490 c 128,-1,9
 38 512 38 512 38 538 c 1,10,-1
 101 538 l 1,11,12
 101 507 101 507 118 484.5 c 128,-1,13
 135 462 135 462 162 462 c 0,14,15
 188 462 188 462 205 484.5 c 128,-1,16
 222 507 222 507 222 538 c 1,17,-1
 285 538 l 1,0,1
EndSplineSet
EndChar
StartChar: dotaccent
Encoding: 729 729 206
Width: 177
Flags: W
Fore
38 465 m 0,0,1
 38 484 38 484 52.5 496 c 128,-1,2
 67 508 67 508 88 508 c 256,3,4
 109 508 109 508 123 496 c 128,-1,5
 137 484 137 484 137 465 c 0,6,7
 137 447 137 447 123 435 c 128,-1,8
 109 423 109 423 88 423 c 256,9,10
 67 423 67 423 52.5 435 c 128,-1,11
 38 447 38 447 38 465 c 0,0,1
EndSplineSet
EndChar
StartChar: ring
Encoding: 730 730 207
Width: 305
Flags: W
Fore
63 472 m 256,0,1
 63 504 63 504 88 527 c 128,-1,2
 113 550 113 550 150 550 c 0,3,4
 186 550 186 550 211 527 c 128,-1,5
 236 504 236 504 236 472 c 256,6,7
 236 440 236 440 211 417.5 c 128,-1,8
 186 395 186 395 150 395 c 0,9,10
 113 395 113 395 88 417.5 c 128,-1,11
 63 440 63 440 63 472 c 256,0,1
124 472 m 256,12,13
 124 459 124 459 131.5 451 c 128,-1,14
 139 443 139 443 150 443 c 256,15,16
 161 443 161 443 168.5 451 c 128,-1,17
 176 459 176 459 176 472 c 256,18,19
 176 485 176 485 168.5 494 c 128,-1,20
 161 503 161 503 150 503 c 256,21,22
 139 503 139 503 131.5 494 c 128,-1,23
 124 485 124 485 124 472 c 256,12,13
EndSplineSet
EndChar
StartChar: tilde
Encoding: 732 732 209
Width: 211
Flags: W
Fore
162 455 m 0,0,1
 173 455 173 455 183.5 472 c 128,-1,2
 194 489 194 489 197 516 c 1,3,-1
 253 516 l 1,4,5
 253 487 253 487 243.5 466.5 c 128,-1,6
 234 446 234 446 220 432 c 128,-1,7
 206 418 206 418 190.5 411.5 c 128,-1,8
 175 405 175 405 162 405 c 0,9,10
 125 405 125 405 106.5 418.5 c 128,-1,11
 88 432 88 432 74 447 c 0,12,13
 66 456 66 456 58 463.5 c 128,-1,14
 50 471 50 471 42 471 c 0,15,16
 31 471 31 471 21 454 c 128,-1,17
 11 437 11 437 7 410 c 1,18,-1
 -48 410 l 1,19,20
 -48 438 -48 438 -38.5 459 c 128,-1,21
 -29 480 -29 480 -15.5 493.5 c 128,-1,22
 -2 507 -2 507 13.5 513.5 c 128,-1,23
 29 520 29 520 42 520 c 0,24,25
 71 520 71 520 87.5 508.5 c 128,-1,26
 104 497 104 497 116 484 c 0,27,28
 126 473 126 473 136.5 464 c 128,-1,29
 147 455 147 455 162 455 c 0,0,1
EndSplineSet
EndChar
StartChar: uni0E01
Encoding: 3585 3585 212
Width: 428
Flags: W
Fore
297 300 m 1,0,1
 296 320 296 320 281 336 c 128,-1,2
 266 352 266 352 237 352 c 2,3,-1
 187 352 l 2,4,5
 155 352 155 352 130 331.5 c 128,-1,6
 105 311 105 311 94 286 c 1,7,8
 105 282 105 282 113.5 273 c 128,-1,9
 122 264 122 264 128 253.5 c 128,-1,10
 134 243 134 243 137 232 c 128,-1,11
 140 221 140 221 140 212 c 2,12,-1
 140 0 l 1,13,-1
 66 0 l 1,14,-1
 66 212 l 2,15,16
 66 229 66 229 53 243 c 128,-1,17
 40 257 40 257 21 259 c 1,18,19
 24 290 24 290 39 317 c 128,-1,20
 54 344 54 344 77 364 c 128,-1,21
 100 384 100 384 129 395.5 c 128,-1,22
 158 407 158 407 190 407 c 2,23,-1
 270 407 l 2,24,25
 288 407 288 407 305.5 398 c 128,-1,26
 323 389 323 389 337.5 374.5 c 128,-1,27
 352 360 352 360 360.5 340.5 c 128,-1,28
 369 321 369 321 369 300 c 2,29,-1
 369 0 l 1,30,-1
 297 0 l 1,31,-1
 297 300 l 1,32,-1
 297 300 l 1,0,1
EndSplineSet
EndChar
StartChar: uni0E02
Encoding: 3586 3586 213
Width: 403
Flags: W
Fore
241 55 m 1,0,1
 248 55 248 55 256.5 59 c 128,-1,2
 265 63 265 63 272 69 c 128,-1,3
 279 75 279 75 284 83.5 c 128,-1,4
 289 92 289 92 289 101 c 2,5,-1
 289 407 l 1,6,-1
 352 407 l 1,7,-1
 352 108 l 2,8,9
 352 88 352 88 343 68.5 c 128,-1,10
 334 49 334 49 318.5 34 c 128,-1,11
 303 19 303 19 283 10 c 128,-1,12
 263 1 263 1 241 1 c 2,13,-1
 224 1 l 2,14,15
 201 1 201 1 183.5 16.5 c 128,-1,16
 166 32 166 32 166 53 c 2,17,-1
 166 171 l 2,18,19
 166 189 166 189 170 203 c 128,-1,20
 174 217 174 217 179.5 230 c 128,-1,21
 185 243 185 243 189 257 c 128,-1,22
 193 271 193 271 193 289 c 0,23,24
 193 304 193 304 187 317 c 128,-1,25
 181 330 181 330 171.5 340.5 c 128,-1,26
 162 351 162 351 149.5 357 c 128,-1,27
 137 363 137 363 125 363 c 0,28,29
 114 363 114 363 108.5 360 c 128,-1,30
 103 357 103 357 101 355 c 1,31,32
 130 355 130 355 147.5 333 c 128,-1,33
 165 311 165 311 165 285 c 0,34,35
 165 257 165 257 146 235.5 c 128,-1,36
 127 214 127 214 96 214 c 0,37,38
 76 214 76 214 61 221.5 c 128,-1,39
 46 229 46 229 35 241 c 128,-1,40
 24 253 24 253 18.5 268 c 128,-1,41
 13 283 13 283 13 298 c 0,42,43
 13 311 13 311 16 325 c 128,-1,44
 19 339 19 339 26 352 c 0,45,46
 41 378 41 378 66 392.5 c 128,-1,47
 91 407 91 407 125 407 c 0,48,49
 180 406 180 406 209.5 373 c 128,-1,50
 239 340 239 340 239 290 c 2,51,-1
 241 55 l 1,0,1
59 285 m 256,52,53
 59 270 59 270 69.5 259.5 c 128,-1,54
 80 249 80 249 95 249 c 256,55,56
 110 249 110 249 120.5 259.5 c 128,-1,57
 131 270 131 270 131 285 c 256,58,59
 131 300 131 300 120.5 310.5 c 128,-1,60
 110 321 110 321 95 321 c 256,61,62
 80 321 80 321 69.5 310.5 c 128,-1,63
 59 300 59 300 59 285 c 256,52,53
EndSplineSet
EndChar
StartChar: uni0E03
Encoding: 3587 3587 214
Width: 415
Flags: W
Fore
117 362 m 1,0,1
 97 360 97 360 86.5 352 c 128,-1,2
 76 344 76 344 71 337 c 1,3,-1
 84 337 l 2,4,5
 94 337 94 337 105.5 332 c 128,-1,6
 117 327 117 327 127 318 c 128,-1,7
 137 309 137 309 143 297 c 128,-1,8
 149 285 149 285 149 271 c 0,9,10
 149 241 149 241 130.5 222.5 c 128,-1,11
 112 204 112 204 83 204 c 0,12,13
 64 204 64 204 49 212 c 128,-1,14
 34 220 34 220 24 232.5 c 128,-1,15
 14 245 14 245 9 261 c 128,-1,16
 4 277 4 277 4 294 c 0,17,18
 4 318 4 318 14 338.5 c 128,-1,19
 24 359 24 359 41.5 374.5 c 128,-1,20
 59 390 59 390 81 399.5 c 128,-1,21
 103 409 103 409 127 409 c 1,22,-1
 178 366 l 1,23,-1
 224 409 l 1,24,25
 253 396 253 396 265 370 c 128,-1,26
 277 344 277 344 277 314 c 0,27,28
 277 299 277 299 272.5 284 c 128,-1,29
 268 269 268 269 262 253.5 c 128,-1,30
 256 238 256 238 251.5 222 c 128,-1,31
 247 206 247 206 247 190 c 2,32,-1
 247 55 l 1,33,34
 254 56 254 56 263 59.5 c 128,-1,35
 272 63 272 63 279.5 69 c 128,-1,36
 287 75 287 75 292 83.5 c 128,-1,37
 297 92 297 92 297 101 c 2,38,-1
 297 407 l 1,39,-1
 360 407 l 1,40,-1
 360 108 l 2,41,42
 360 87 360 87 350.5 67.5 c 128,-1,43
 341 48 341 48 325.5 33 c 128,-1,44
 310 18 310 18 290 9 c 128,-1,45
 270 0 270 0 248 0 c 2,46,-1
 231 0 l 2,47,48
 209 0 209 0 191 15.5 c 128,-1,49
 173 31 173 31 173 52 c 2,50,-1
 173 180 l 2,51,52
 173 199 173 199 175 211 c 128,-1,53
 177 223 177 223 181.5 231.5 c 128,-1,54
 186 240 186 240 193.5 248 c 128,-1,55
 201 256 201 256 212 268 c 0,56,57
 222 279 222 279 228 295 c 128,-1,58
 234 311 234 311 234 326 c 0,59,60
 234 343 234 343 225 354 c 1,61,-1
 177 311 l 1,62,-1
 117 362 l 1,0,1
47 271 m 256,63,64
 47 256 47 256 57.5 245.5 c 128,-1,65
 68 235 68 235 83 235 c 256,66,67
 98 235 98 235 108.5 245.5 c 128,-1,68
 119 256 119 256 119 271 c 256,69,70
 119 286 119 286 108.5 296.5 c 128,-1,71
 98 307 98 307 83 307 c 256,72,73
 68 307 68 307 57.5 296.5 c 128,-1,74
 47 286 47 286 47 271 c 256,63,64
EndSplineSet
EndChar
StartChar: uni0E04
Encoding: 3588 3588 215
Width: 456
Flags: W
Fore
285 407 m 2,0,1
 335 407 335 407 368.5 377 c 128,-1,2
 402 347 402 347 402 300 c 2,3,-1
 402 0 l 1,4,-1
 328 0 l 1,5,-1
 328 300 l 2,6,7
 328 319 328 319 315 335.5 c 128,-1,8
 302 352 302 352 285 352 c 2,9,-1
 214 352 l 2,10,11
 197 352 197 352 181 343 c 128,-1,12
 165 334 165 334 152 320 c 128,-1,13
 139 306 139 306 131.5 288.5 c 128,-1,14
 124 271 124 271 124 254 c 2,15,-1
 124 130 l 1,16,-1
 150 225 l 2,17,18
 158 247 158 247 178.5 260.5 c 128,-1,19
 199 274 199 274 226 274 c 0,20,21
 260 274 260 274 282 252.5 c 128,-1,22
 304 231 304 231 304 203 c 0,23,24
 304 174 304 174 280 154 c 128,-1,25
 256 134 256 134 226 134 c 0,26,27
 214 134 214 134 204.5 136 c 128,-1,28
 195 138 195 138 187 142 c 1,29,-1
 134 0 l 1,30,-1
 50 0 l 1,31,-1
 50 254 l 2,32,33
 50 282 50 282 63.5 309.5 c 128,-1,34
 77 337 77 337 99.5 358.5 c 128,-1,35
 122 380 122 380 151 393.5 c 128,-1,36
 180 407 180 407 211 407 c 2,37,-1
 285 407 l 2,0,1
190 203 m 256,38,39
 190 188 190 188 200.5 177.5 c 128,-1,40
 211 167 211 167 226 167 c 256,41,42
 241 167 241 167 251.5 177.5 c 128,-1,43
 262 188 262 188 262 203 c 256,44,45
 262 218 262 218 251.5 228.5 c 128,-1,46
 241 239 241 239 226 239 c 256,47,48
 211 239 211 239 200.5 228.5 c 128,-1,49
 190 218 190 218 190 203 c 256,38,39
EndSplineSet
EndChar
StartChar: uni0E05
Encoding: 3589 3589 216
Width: 459
Flags: W
Fore
50 255 m 2,0,1
 50 282 50 282 63.5 309 c 128,-1,2
 77 336 77 336 98 357.5 c 128,-1,3
 119 379 119 379 143.5 392.5 c 128,-1,4
 168 406 168 406 191 408 c 1,5,-1
 250 346 l 1,6,-1
 304 407 l 1,7,8
 317 406 317 406 334 397.5 c 128,-1,9
 351 389 351 389 366 374.5 c 128,-1,10
 381 360 381 360 391.5 341 c 128,-1,11
 402 322 402 322 402 301 c 2,12,-1
 402 0 l 1,13,-1
 328 0 l 1,14,-1
 328 301 l 2,15,16
 328 315 328 315 322 329 c 128,-1,17
 316 343 316 343 305 349 c 1,18,-1
 250 290 l 1,19,-1
 191 349 l 1,20,21
 163 341 163 341 143.5 313 c 128,-1,22
 124 285 124 285 124 255 c 2,23,-1
 124 131 l 1,24,-1
 150 226 l 2,25,26
 158 248 158 248 178.5 261.5 c 128,-1,27
 199 275 199 275 226 275 c 0,28,29
 260 275 260 275 282 253.5 c 128,-1,30
 304 232 304 232 304 204 c 0,31,32
 304 175 304 175 280 155 c 128,-1,33
 256 135 256 135 226 135 c 0,34,35
 214 135 214 135 204.5 137 c 128,-1,36
 195 139 195 139 187 143 c 1,37,-1
 134 1 l 1,38,-1
 50 1 l 1,39,-1
 50 255 l 2,0,1
190 204 m 256,40,41
 190 189 190 189 200.5 178.5 c 128,-1,42
 211 168 211 168 226 168 c 256,43,44
 241 168 241 168 251.5 178.5 c 128,-1,45
 262 189 262 189 262 204 c 256,46,47
 262 219 262 219 251.5 229.5 c 128,-1,48
 241 240 241 240 226 240 c 256,49,50
 211 240 211 240 200.5 229.5 c 128,-1,51
 190 219 190 219 190 204 c 256,40,41
EndSplineSet
EndChar
StartChar: uni0E06
Encoding: 3590 3590 217
Width: 512
Flags: W
Fore
248 164 m 1,0,1
 291 153 291 153 324.5 134 c 128,-1,2
 358 115 358 115 382 95 c 1,3,-1
 382 407 l 1,4,-1
 454 407 l 1,5,-1
 454 0 l 1,6,-1
 387 0 l 1,7,8
 360 37 360 37 324 61 c 128,-1,9
 288 85 288 85 250 97 c 1,10,-1
 250 36 l 1,11,12
 239 19 239 19 227 9 c 128,-1,13
 215 -1 215 -1 181 -1 c 0,14,15
 164 -1 164 -1 148.5 6 c 128,-1,16
 133 13 133 13 121 25 c 128,-1,17
 109 37 109 37 102 51.5 c 128,-1,18
 95 66 95 66 95 81 c 0,19,20
 95 95 95 95 101.5 109 c 128,-1,21
 108 123 108 123 119.5 134.5 c 128,-1,22
 131 146 131 146 145 153 c 128,-1,23
 159 160 159 160 174 160 c 1,24,-1
 174 180 l 2,25,26
 174 199 174 199 176 211 c 128,-1,27
 178 223 178 223 182.5 231.5 c 128,-1,28
 187 240 187 240 194.5 248 c 128,-1,29
 202 256 202 256 213 268 c 0,30,31
 223 279 223 279 229 295 c 128,-1,32
 235 311 235 311 235 326 c 0,33,34
 235 343 235 343 226 354 c 1,35,-1
 178 311 l 1,36,-1
 118 362 l 1,37,38
 98 360 98 360 87.5 352 c 128,-1,39
 77 344 77 344 72 337 c 1,40,-1
 85 337 l 2,41,42
 95 337 95 337 106.5 332 c 128,-1,43
 118 327 118 327 128 318 c 128,-1,44
 138 309 138 309 144 297 c 128,-1,45
 150 285 150 285 150 271 c 0,46,47
 150 241 150 241 131.5 222.5 c 128,-1,48
 113 204 113 204 84 204 c 0,49,50
 65 204 65 204 50 212 c 128,-1,51
 35 220 35 220 25 232.5 c 128,-1,52
 15 245 15 245 10 261 c 128,-1,53
 5 277 5 277 5 294 c 0,54,55
 5 318 5 318 15 338.5 c 128,-1,56
 25 359 25 359 42.5 374.5 c 128,-1,57
 60 390 60 390 82 399.5 c 128,-1,58
 104 409 104 409 128 409 c 1,59,-1
 179 366 l 1,60,-1
 225 409 l 1,61,62
 254 396 254 396 266 370 c 128,-1,63
 278 344 278 344 278 314 c 0,64,65
 278 299 278 299 273.5 284 c 128,-1,66
 269 269 269 269 263 253.5 c 128,-1,67
 257 238 257 238 252.5 222 c 128,-1,68
 248 206 248 206 248 190 c 2,69,-1
 248 164 l 1,0,1
48 271 m 256,70,71
 48 256 48 256 58.5 245.5 c 128,-1,72
 69 235 69 235 84 235 c 256,73,74
 99 235 99 235 109.5 245.5 c 128,-1,75
 120 256 120 256 120 271 c 256,76,77
 120 286 120 286 109.5 296.5 c 128,-1,78
 99 307 99 307 84 307 c 256,79,80
 69 307 69 307 58.5 296.5 c 128,-1,81
 48 286 48 286 48 271 c 256,70,71
142 79 m 0,82,83
 142 63 142 63 152 50 c 128,-1,84
 162 37 162 37 176 30 c 1,85,-1
 176 127 l 1,86,87
 159 123 159 123 150.5 109.5 c 128,-1,88
 142 96 142 96 142 79 c 0,82,83
EndSplineSet
EndChar
StartChar: uni0E07
Encoding: 3591 3591 218
Width: 374
Flags: W
Fore
245 267 m 1,0,1
 230 267 230 267 216 272.5 c 128,-1,2
 202 278 202 278 190.5 287.5 c 128,-1,3
 179 297 179 297 172.5 310 c 128,-1,4
 166 323 166 323 166 337 c 0,5,6
 166 364 166 364 189.5 384.5 c 128,-1,7
 213 405 213 405 243 405 c 0,8,9
 258 405 258 405 271.5 399.5 c 128,-1,10
 285 394 285 394 295.5 385 c 128,-1,11
 306 376 306 376 312.5 363.5 c 128,-1,12
 319 351 319 351 319 338 c 2,13,-1
 319 0 l 1,14,-1
 259 0 l 2,15,16
 227 0 227 0 202.5 14.5 c 128,-1,17
 178 29 178 29 162 52 c 0,18,19
 126 103 126 103 86.5 162 c 128,-1,20
 47 221 47 221 12 272 c 1,21,-1
 95 272 l 1,22,-1
 230 69 l 2,23,24
 234 64 234 64 237 62.5 c 128,-1,25
 240 61 240 61 245 59 c 1,26,-1
 245 267 l 1,0,1
204 336 m 256,27,28
 204 321 204 321 214.5 310.5 c 128,-1,29
 225 300 225 300 240 300 c 256,30,31
 255 300 255 300 265.5 310.5 c 128,-1,32
 276 321 276 321 276 336 c 256,33,34
 276 351 276 351 265.5 361.5 c 128,-1,35
 255 372 255 372 240 372 c 256,36,37
 225 372 225 372 214.5 361.5 c 128,-1,38
 204 351 204 351 204 336 c 256,27,28
EndSplineSet
EndChar
StartChar: uni0E08
Encoding: 3592 3592 219
Width: 417
Flags: W
Fore
182 128 m 1,0,1
 167 128 167 128 153 133.5 c 128,-1,2
 139 139 139 139 127.5 148.5 c 128,-1,3
 116 158 116 158 109.5 171 c 128,-1,4
 103 184 103 184 103 198 c 0,5,6
 103 225 103 225 126.5 245.5 c 128,-1,7
 150 266 150 266 180 266 c 0,8,9
 195 266 195 266 208.5 260.5 c 128,-1,10
 222 255 222 255 232.5 246 c 128,-1,11
 243 237 243 237 249.5 224.5 c 128,-1,12
 256 212 256 212 256 199 c 2,13,-1
 256 67 l 1,14,15
 270 68 270 68 282.5 81.5 c 128,-1,16
 295 95 295 95 295 122 c 2,17,-1
 295 299 l 2,18,19
 295 318 295 318 282 335 c 128,-1,20
 269 352 269 352 252 352 c 2,21,-1
 179 352 l 2,22,23
 147 352 147 352 117.5 329 c 128,-1,24
 88 306 88 306 74 275 c 1,25,-1
 17 294 l 1,26,27
 38 342 38 342 81 374 c 128,-1,28
 124 406 124 406 179 407 c 2,29,-1
 245 407 l 2,30,31
 268 407 268 407 289 398 c 128,-1,32
 310 389 310 389 325.5 374 c 128,-1,33
 341 359 341 359 350.5 339.5 c 128,-1,34
 360 320 360 320 360 299 c 2,35,-1
 360 104 l 2,36,37
 360 84 360 84 350.5 65.5 c 128,-1,38
 341 47 341 47 325.5 32.5 c 128,-1,39
 310 18 310 18 290 9 c 128,-1,40
 270 0 270 0 249 0 c 2,41,-1
 182 0 l 1,42,-1
 182 128 l 1,0,1
141 197 m 256,43,44
 141 182 141 182 151.5 171.5 c 128,-1,45
 162 161 162 161 177 161 c 256,46,47
 192 161 192 161 202.5 171.5 c 128,-1,48
 213 182 213 182 213 197 c 256,49,50
 213 212 213 212 202.5 222.5 c 128,-1,51
 192 233 192 233 177 233 c 256,52,53
 162 233 162 233 151.5 222.5 c 128,-1,54
 141 212 141 212 141 197 c 256,43,44
EndSplineSet
EndChar
StartChar: uni0E09
Encoding: 3593 3593 220
Width: 439
Flags: W
Fore
60 154 m 256,0,1
 60 139 60 139 70.5 128.5 c 128,-1,2
 81 118 81 118 96 118 c 256,3,4
 111 118 111 118 121.5 128.5 c 128,-1,5
 132 139 132 139 132 154 c 256,6,7
 132 169 132 169 121.5 179.5 c 128,-1,8
 111 190 111 190 96 190 c 256,9,10
 81 190 81 190 70.5 179.5 c 128,-1,11
 60 169 60 169 60 154 c 256,0,1
272 65 m 1,12,13
 248 51 248 51 222.5 32.5 c 128,-1,14
 197 14 197 14 174 0 c 1,15,-1
 115 0 l 1,16,-1
 115 87 l 1,17,18
 112 86 112 86 109 86 c 2,19,20
 106 85 106 85 101 85 c 0,21,22
 86 85 86 85 72 90.5 c 128,-1,23
 58 96 58 96 46.5 105.5 c 128,-1,24
 35 115 35 115 28.5 128 c 128,-1,25
 22 141 22 141 22 155 c 0,26,27
 22 182 22 182 45.5 202.5 c 128,-1,28
 69 223 69 223 99 223 c 0,29,30
 114 223 114 223 127.5 217.5 c 128,-1,31
 141 212 141 212 151.5 203 c 128,-1,32
 162 194 162 194 168.5 181.5 c 128,-1,33
 175 169 175 169 175 156 c 2,34,-1
 175 70 l 1,35,36
 208 90 208 90 241 114 c 128,-1,37
 274 138 274 138 309 158 c 1,38,-1
 309 298 l 2,39,40
 309 318 309 318 296.5 335 c 128,-1,41
 284 352 284 352 265 352 c 2,42,-1
 175 352 l 2,43,44
 137 352 137 352 108.5 327.5 c 128,-1,45
 80 303 80 303 70 272 c 1,46,-1
 12 272 l 1,47,48
 15 295 15 295 27 319 c 128,-1,49
 39 343 39 343 59.5 362.5 c 128,-1,50
 80 382 80 382 109 394.5 c 128,-1,51
 138 407 138 407 175 407 c 2,52,-1
 267 407 l 2,53,54
 290 407 290 407 311 398 c 128,-1,55
 332 389 332 389 348 374 c 128,-1,56
 364 359 364 359 373.5 339.5 c 128,-1,57
 383 320 383 320 383 298 c 2,58,-1
 383 147 l 1,59,60
 406 138 406 138 418.5 119.5 c 128,-1,61
 431 101 431 101 431 78 c 0,62,63
 431 62 431 62 424 48 c 128,-1,64
 417 34 417 34 405 23.5 c 128,-1,65
 393 13 393 13 377.5 6.5 c 128,-1,66
 362 0 362 0 346 0 c 0,67,68
 311 0 311 0 291.5 19.5 c 128,-1,69
 272 39 272 39 272 65 c 1,12,13
314 76 m 256,70,71
 314 61 314 61 324.5 50.5 c 128,-1,72
 335 40 335 40 350 40 c 256,73,74
 365 40 365 40 375.5 50.5 c 128,-1,75
 386 61 386 61 386 76 c 256,76,77
 386 91 386 91 375.5 101.5 c 128,-1,78
 365 112 365 112 350 112 c 256,79,80
 335 112 335 112 324.5 101.5 c 128,-1,81
 314 91 314 91 314 76 c 256,70,71
EndSplineSet
EndChar
StartChar: uni0E0A
Encoding: 3594 3594 221
Width: 412
Flags: W
Fore
289 250 m 2,0,1
 289 255 289 255 274 264.5 c 128,-1,2
 259 274 259 274 239 274 c 1,3,-1
 239 55 l 1,4,5
 254 55 254 55 271.5 68.5 c 128,-1,6
 289 82 289 82 289 102 c 2,7,-1
 289 250 l 2,0,1
125 407 m 0,8,9
 173 406 173 406 201.5 380.5 c 128,-1,10
 230 355 230 355 237 314 c 1,11,12
 262 325 262 325 277.5 339 c 128,-1,13
 293 353 293 353 302 371.5 c 128,-1,14
 311 390 311 390 315 413 c 128,-1,15
 319 436 319 436 321 464 c 1,16,-1
 396 464 l 1,17,18
 392 438 392 438 387 412.5 c 128,-1,19
 382 387 382 387 373 364 c 128,-1,20
 364 341 364 341 349 322 c 128,-1,21
 334 303 334 303 310 291 c 1,22,23
 324 283 324 283 335.5 273.5 c 128,-1,24
 347 264 347 264 352 256 c 1,25,-1
 352 108 l 2,26,27
 352 87 352 87 343 67.5 c 128,-1,28
 334 48 334 48 319 33 c 128,-1,29
 304 18 304 18 284 9 c 128,-1,30
 264 0 264 0 242 0 c 2,31,-1
 224 0 l 2,32,33
 201 0 201 0 183.5 15.5 c 128,-1,34
 166 31 166 31 166 52 c 2,35,-1
 166 171 l 2,36,37
 166 189 166 189 170 203 c 128,-1,38
 174 217 174 217 179.5 230 c 128,-1,39
 185 243 185 243 189 257 c 128,-1,40
 193 271 193 271 193 289 c 0,41,42
 193 304 193 304 187 317 c 128,-1,43
 181 330 181 330 171.5 340.5 c 128,-1,44
 162 351 162 351 149.5 357 c 128,-1,45
 137 363 137 363 125 363 c 0,46,47
 114 363 114 363 108.5 360 c 128,-1,48
 103 357 103 357 101 355 c 1,49,50
 130 355 130 355 147.5 333 c 128,-1,51
 165 311 165 311 165 285 c 0,52,53
 165 257 165 257 146 235.5 c 128,-1,54
 127 214 127 214 96 214 c 0,55,56
 76 214 76 214 61 221.5 c 128,-1,57
 46 229 46 229 35 241 c 128,-1,58
 24 253 24 253 18.5 268 c 128,-1,59
 13 283 13 283 13 298 c 0,60,61
 13 311 13 311 16 325 c 128,-1,62
 19 339 19 339 26 352 c 0,63,64
 41 378 41 378 66 392.5 c 128,-1,65
 91 407 91 407 125 407 c 0,8,9
59 285 m 256,66,67
 59 270 59 270 69.5 259.5 c 128,-1,68
 80 249 80 249 95 249 c 256,69,70
 110 249 110 249 120.5 259.5 c 128,-1,71
 131 270 131 270 131 285 c 256,72,73
 131 300 131 300 120.5 310.5 c 128,-1,74
 110 321 110 321 95 321 c 256,75,76
 80 321 80 321 69.5 310.5 c 128,-1,77
 59 300 59 300 59 285 c 256,66,67
EndSplineSet
EndChar
StartChar: uni0E0B
Encoding: 3595 3595 222
Width: 413
Flags: W
Fore
116 362 m 1,0,1
 96 360 96 360 85.5 352 c 128,-1,2
 75 344 75 344 70 337 c 1,3,-1
 83 337 l 2,4,5
 93 337 93 337 104.5 332 c 128,-1,6
 116 327 116 327 126 318 c 128,-1,7
 136 309 136 309 142 297 c 128,-1,8
 148 285 148 285 148 271 c 0,9,10
 148 241 148 241 129.5 222.5 c 128,-1,11
 111 204 111 204 82 204 c 0,12,13
 63 204 63 204 48 212 c 128,-1,14
 33 220 33 220 23 232.5 c 128,-1,15
 13 245 13 245 8 261 c 128,-1,16
 3 277 3 277 3 294 c 0,17,18
 3 318 3 318 13 338.5 c 128,-1,19
 23 359 23 359 40.5 374.5 c 128,-1,20
 58 390 58 390 80 399.5 c 128,-1,21
 102 409 102 409 126 409 c 1,22,-1
 177 366 l 1,23,-1
 223 409 l 1,24,25
 246 398 246 398 258.5 378.5 c 128,-1,26
 271 359 271 359 274 336 c 1,27,28
 291 346 291 346 300.5 358.5 c 128,-1,29
 310 371 310 371 315.5 387 c 128,-1,30
 321 403 321 403 323.5 422.5 c 128,-1,31
 326 442 326 442 328 467 c 1,32,-1
 401 467 l 1,33,-1
 397 438 l 2,34,35
 395 418 395 418 391 397.5 c 128,-1,36
 387 377 387 377 379.5 359 c 128,-1,37
 372 341 372 341 358.5 325 c 128,-1,38
 345 309 345 309 324 298 c 1,39,40
 359 277 359 277 359 261 c 2,41,-1
 359 108 l 2,42,43
 359 87 359 87 350 67.5 c 128,-1,44
 341 48 341 48 325.5 33 c 128,-1,45
 310 18 310 18 289.5 9 c 128,-1,46
 269 0 269 0 247 0 c 2,47,-1
 230 0 l 2,48,49
 208 0 208 0 190 15.5 c 128,-1,50
 172 31 172 31 172 52 c 2,51,-1
 172 180 l 2,52,53
 172 199 172 199 174 211 c 128,-1,54
 176 223 176 223 180.5 231.5 c 128,-1,55
 185 240 185 240 192.5 248 c 128,-1,56
 200 256 200 256 211 268 c 0,57,58
 220 278 220 278 226.5 294.5 c 128,-1,59
 233 311 233 311 233 327 c 0,60,61
 233 345 233 345 224 354 c 1,62,-1
 176 311 l 1,63,-1
 116 362 l 1,0,1
267 270 m 1,64,65
 259 250 259 250 252 230 c 128,-1,66
 245 210 245 210 245 190 c 2,67,-1
 245 55 l 1,68,69
 260 55 260 55 277.5 68.5 c 128,-1,70
 295 82 295 82 295 102 c 2,71,-1
 295 251 l 1,72,73
 293 256 293 256 285 263 c 128,-1,74
 277 270 277 270 267 270 c 1,64,65
46 271 m 256,75,76
 46 256 46 256 56.5 245.5 c 128,-1,77
 67 235 67 235 82 235 c 256,78,79
 97 235 97 235 107.5 245.5 c 128,-1,80
 118 256 118 256 118 271 c 256,81,82
 118 286 118 286 107.5 296.5 c 128,-1,83
 97 307 97 307 82 307 c 256,84,85
 67 307 67 307 56.5 296.5 c 128,-1,86
 46 286 46 286 46 271 c 256,75,76
EndSplineSet
EndChar
StartChar: uni0E0C
Encoding: 3596 3596 223
Width: 611
Flags: W
Fore
265 73 m 0,0,1
 265 59 265 59 274 45.5 c 128,-1,2
 283 32 283 32 294 29 c 1,3,-1
 294 116 l 1,4,5
 282 115 282 115 273.5 101.5 c 128,-1,6
 265 88 265 88 265 73 c 0,0,1
294 300 m 2,7,8
 294 320 294 320 281.5 336 c 128,-1,9
 269 352 269 352 252 352 c 2,10,-1
 187 352 l 2,11,12
 174 352 174 352 160.5 346.5 c 128,-1,13
 147 341 147 341 134 331.5 c 128,-1,14
 121 322 121 322 111 310 c 128,-1,15
 101 298 101 298 96 286 c 1,16,17
 119 275 119 275 129.5 252 c 128,-1,18
 140 229 140 229 140 211 c 2,19,-1
 140 141 l 1,20,-1
 146 141 l 2,21,22
 161 141 161 141 174 135 c 128,-1,23
 187 129 187 129 196 119 c 128,-1,24
 205 109 205 109 210.5 96.5 c 128,-1,25
 216 84 216 84 216 71 c 0,26,27
 216 42 216 42 197 21 c 128,-1,28
 178 0 178 0 146 0 c 0,29,30
 118 0 118 0 94 16.5 c 128,-1,31
 70 33 70 33 66 58 c 1,32,-1
 66 212 l 2,33,34
 66 229 66 229 53 243 c 128,-1,35
 40 257 40 257 21 259 c 1,36,37
 24 290 24 290 39 317 c 128,-1,38
 54 344 54 344 77 364 c 128,-1,39
 100 384 100 384 129 395.5 c 128,-1,40
 158 407 158 407 190 407 c 2,41,-1
 252 407 l 2,42,43
 274 407 274 407 295 398 c 128,-1,44
 316 389 316 389 332.5 374.5 c 128,-1,45
 349 360 349 360 359 340.5 c 128,-1,46
 369 321 369 321 369 300 c 2,47,-1
 369 141 l 1,48,49
 398 131 398 131 425.5 116.5 c 128,-1,50
 453 102 453 102 476 82 c 1,51,-1
 476 407 l 1,52,-1
 549 407 l 1,53,-1
 549 0 l 1,54,-1
 482 0 l 1,55,56
 453 29 453 29 427 52 c 128,-1,57
 401 75 401 75 369 86 c 1,58,-1
 369 29 l 1,59,60
 356 18 356 18 340.5 9.5 c 128,-1,61
 325 1 325 1 308 1 c 0,62,63
 273 1 273 1 253.5 21.5 c 128,-1,64
 234 42 234 42 234 72 c 0,65,66
 234 103 234 103 248.5 123.5 c 128,-1,67
 263 144 263 144 294 149 c 1,68,-1
 294 300 l 2,7,8
110 71 m 256,69,70
 110 56 110 56 120.5 45.5 c 128,-1,71
 131 35 131 35 146 35 c 256,72,73
 161 35 161 35 171.5 45.5 c 128,-1,74
 182 56 182 56 182 71 c 256,75,76
 182 86 182 86 171.5 96.5 c 128,-1,77
 161 107 161 107 146 107 c 256,78,79
 131 107 131 107 120.5 96.5 c 128,-1,80
 110 86 110 86 110 71 c 256,69,70
EndSplineSet
EndChar
StartChar: uni0E0D
Encoding: 3597 3597 224
Width: 615
Flags: W
Fore
430 -87 m 0,0,1
 430 -99 430 -99 424 -108 c 128,-1,2
 418 -117 418 -117 410 -125 c 1,3,-1
 414 -125 l 2,4,5
 446 -125 446 -125 472.5 -99.5 c 128,-1,6
 499 -74 499 -74 507 -37 c 1,7,-1
 571 -37 l 1,8,9
 565 -65 565 -65 549.5 -90 c 128,-1,10
 534 -115 534 -115 512 -133.5 c 128,-1,11
 490 -152 490 -152 463 -162.5 c 128,-1,12
 436 -173 436 -173 407 -173 c 0,13,14
 384 -173 384 -173 361.5 -167.5 c 128,-1,15
 339 -162 339 -162 321 -151.5 c 128,-1,16
 303 -141 303 -141 291.5 -125 c 128,-1,17
 280 -109 280 -109 280 -87 c 0,18,19
 280 -74 280 -74 286 -61.5 c 128,-1,20
 292 -49 292 -49 302 -39.5 c 128,-1,21
 312 -30 312 -30 326 -24.5 c 128,-1,22
 340 -19 340 -19 355 -19 c 0,23,24
 386 -19 386 -19 408 -38.5 c 128,-1,25
 430 -58 430 -58 430 -87 c 0,0,1
257 407 m 2,26,27
 279 407 279 407 300.5 398 c 128,-1,28
 322 389 322 389 338.5 374.5 c 128,-1,29
 355 360 355 360 365 340.5 c 128,-1,30
 375 321 375 321 375 300 c 2,31,-1
 375 65 l 1,32,-1
 441 65 l 2,33,34
 458 67 458 67 470.5 83 c 128,-1,35
 483 99 483 99 483 119 c 2,36,-1
 483 407 l 1,37,-1
 557 407 l 1,38,-1
 557 109 l 2,39,40
 557 88 557 88 548 68 c 128,-1,41
 539 48 539 48 523 33 c 128,-1,42
 507 18 507 18 486 9 c 128,-1,43
 465 0 465 0 441 0 c 2,44,-1
 362 0 l 2,45,46
 337 0 337 0 320 15.5 c 128,-1,47
 303 31 303 31 301 51 c 2,48,-1
 301 300 l 2,49,50
 301 320 301 320 287.5 336 c 128,-1,51
 274 352 274 352 257 352 c 2,52,-1
 192 352 l 2,53,54
 179 352 179 352 165.5 346.5 c 128,-1,55
 152 341 152 341 139 331.5 c 128,-1,56
 126 322 126 322 116 310 c 128,-1,57
 106 298 106 298 101 286 c 1,58,59
 124 275 124 275 134.5 252 c 128,-1,60
 145 229 145 229 145 211 c 2,61,-1
 145 141 l 1,62,-1
 151 141 l 2,63,64
 166 141 166 141 180 135 c 128,-1,65
 194 129 194 129 205.5 119 c 128,-1,66
 217 109 217 109 223.5 96.5 c 128,-1,67
 230 84 230 84 230 71 c 0,68,69
 230 42 230 42 206.5 21 c 128,-1,70
 183 0 183 0 151 0 c 0,71,72
 123 0 123 0 99 16.5 c 128,-1,73
 75 33 75 33 71 58 c 1,74,-1
 71 212 l 2,75,76
 71 229 71 229 58 243 c 128,-1,77
 45 257 45 257 26 259 c 1,78,79
 29 290 29 290 44 317 c 128,-1,80
 59 344 59 344 82 364 c 128,-1,81
 105 384 105 384 134 395.5 c 128,-1,82
 163 407 163 407 195 407 c 2,83,-1
 257 407 l 2,26,27
115 71 m 256,84,85
 115 56 115 56 125.5 45.5 c 128,-1,86
 136 35 136 35 151 35 c 256,87,88
 166 35 166 35 176.5 45.5 c 128,-1,89
 187 56 187 56 187 71 c 256,90,91
 187 86 187 86 176.5 96.5 c 128,-1,92
 166 107 166 107 151 107 c 256,93,94
 136 107 136 107 125.5 96.5 c 128,-1,95
 115 86 115 86 115 71 c 256,84,85
318 -83 m 256,96,97
 318 -98 318 -98 328.5 -108.5 c 128,-1,98
 339 -119 339 -119 354 -119 c 256,99,100
 369 -119 369 -119 379.5 -108.5 c 128,-1,101
 390 -98 390 -98 390 -83 c 256,102,103
 390 -68 390 -68 379.5 -57.5 c 128,-1,104
 369 -47 369 -47 354 -47 c 256,105,106
 339 -47 339 -47 328.5 -57.5 c 128,-1,107
 318 -68 318 -68 318 -83 c 256,96,97
EndSplineSet
Substitution: 0 65534 'L026' uni0E0D.alt1
Substitution: 0 65534 'L026' uni0E0D.alt1
EndChar
StartChar: uni0E0E
Encoding: 3598 3598 225
Width: 442
Flags: W
Fore
268 407 m 2,0,1
 290 407 290 407 311 398 c 128,-1,2
 332 389 332 389 348.5 374.5 c 128,-1,3
 365 360 365 360 375 340.5 c 128,-1,4
 385 321 385 321 385 300 c 2,5,-1
 385 -89 l 1,6,7
 367 -125 367 -125 338 -154 c 128,-1,8
 309 -183 309 -183 266 -200 c 1,9,-1
 201 -151 l 1,10,11
 197 -171 197 -171 179 -182.5 c 128,-1,12
 161 -194 161 -194 139 -194 c 0,13,14
 124 -194 124 -194 110 -188 c 128,-1,15
 96 -182 96 -182 84.5 -172.5 c 128,-1,16
 73 -163 73 -163 66.5 -150 c 128,-1,17
 60 -137 60 -137 60 -123 c 0,18,19
 60 -94 60 -94 84 -73.5 c 128,-1,20
 108 -53 108 -53 139 -53 c 0,21,22
 155 -53 155 -53 169.5 -58.5 c 128,-1,23
 184 -64 184 -64 195 -72 c 2,24,-1
 272 -121 l 1,25,26
 293 -107 293 -107 312 -74 c 1,27,-1
 312 300 l 2,28,29
 312 320 312 320 298.5 336 c 128,-1,30
 285 352 285 352 268 352 c 2,31,-1
 203 352 l 2,32,33
 191 352 191 352 177 346.5 c 128,-1,34
 163 341 163 341 149.5 332 c 128,-1,35
 136 323 136 323 125 312 c 128,-1,36
 114 301 114 301 108 290 c 1,37,38
 124 288 124 288 137 279 c 128,-1,39
 150 270 150 270 159 258 c 128,-1,40
 168 246 168 246 173 233.5 c 128,-1,41
 178 221 178 221 178 212 c 2,42,-1
 178 67 l 2,43,44
 178 54 178 54 171.5 42 c 128,-1,45
 165 30 165 30 153.5 20.5 c 128,-1,46
 142 11 142 11 128 5.5 c 128,-1,47
 114 0 114 0 99 0 c 0,48,49
 83 0 83 0 69 6 c 128,-1,50
 55 12 55 12 44.5 22 c 128,-1,51
 34 32 34 32 28 44.5 c 128,-1,52
 22 57 22 57 22 70 c 0,53,54
 22 99 22 99 45.5 120 c 128,-1,55
 69 141 69 141 100 141 c 2,56,-1
 104 141 l 1,57,-1
 104 211 l 2,58,59
 104 218 104 218 97.5 226.5 c 128,-1,60
 91 235 91 235 81 242 c 128,-1,61
 71 249 71 249 59 254.5 c 128,-1,62
 47 260 47 260 36 261 c 1,63,64
 39 292 39 292 54 319 c 128,-1,65
 69 346 69 346 92.5 365.5 c 128,-1,66
 116 385 116 385 145 396 c 128,-1,67
 174 407 174 407 206 407 c 2,68,-1
 268 407 l 2,0,1
63 71 m 256,69,70
 63 56 63 56 73.5 45.5 c 128,-1,71
 84 35 84 35 99 35 c 256,72,73
 114 35 114 35 124.5 45.5 c 128,-1,74
 135 56 135 56 135 71 c 256,75,76
 135 86 135 86 124.5 96.5 c 128,-1,77
 114 107 114 107 99 107 c 256,78,79
 84 107 84 107 73.5 96.5 c 128,-1,80
 63 86 63 86 63 71 c 256,69,70
100 -121 m 256,81,82
 100 -136 100 -136 110.5 -146.5 c 128,-1,83
 121 -157 121 -157 136 -157 c 256,84,85
 151 -157 151 -157 161.5 -146.5 c 128,-1,86
 172 -136 172 -136 172 -121 c 256,87,88
 172 -106 172 -106 161.5 -95.5 c 128,-1,89
 151 -85 151 -85 136 -85 c 256,90,91
 121 -85 121 -85 110.5 -95.5 c 128,-1,92
 100 -106 100 -106 100 -121 c 256,81,82
EndSplineSet
Substitution: 0 65534 'L026' uni0E0E.alt1
Substitution: 0 65534 'L026' uni0E0E.alt1
EndChar
StartChar: uni0E0F
Encoding: 3599 3599 226
Width: 441
Flags: W
Fore
268 407 m 2,0,1
 290 407 290 407 311 398 c 128,-1,2
 332 389 332 389 348.5 374.5 c 128,-1,3
 365 360 365 360 375 340.5 c 128,-1,4
 385 321 385 321 385 300 c 2,5,-1
 385 -79 l 2,6,7
 385 -100 385 -100 380.5 -116 c 128,-1,8
 376 -132 376 -132 366 -145.5 c 128,-1,9
 356 -159 356 -159 341 -172 c 128,-1,10
 326 -185 326 -185 304 -200 c 1,11,-1
 248 -111 l 1,12,13
 242 -120 242 -120 235.5 -133 c 128,-1,14
 229 -146 229 -146 222 -158.5 c 128,-1,15
 215 -171 215 -171 209 -182.5 c 128,-1,16
 203 -194 203 -194 198 -201 c 1,17,-1
 165 -147 l 1,18,19
 157 -162 157 -162 140.5 -169 c 128,-1,20
 124 -176 124 -176 107 -176 c 0,21,22
 91 -176 91 -176 76.5 -170 c 128,-1,23
 62 -164 62 -164 51 -154.5 c 128,-1,24
 40 -145 40 -145 33.5 -132 c 128,-1,25
 27 -119 27 -119 27 -105 c 0,26,27
 27 -90 27 -90 33.5 -77 c 128,-1,28
 40 -64 40 -64 51 -54.5 c 128,-1,29
 62 -45 62 -45 76.5 -39 c 128,-1,30
 91 -33 91 -33 107 -33 c 0,31,32
 126 -33 126 -33 143 -42.5 c 128,-1,33
 160 -52 160 -52 176 -68 c 0,34,35
 184 -75 184 -75 188.5 -87.5 c 128,-1,36
 193 -100 193 -100 198 -111 c 1,37,-1
 245 -22 l 1,38,-1
 302 -111 l 1,39,40
 305 -106 305 -106 308.5 -100 c 128,-1,41
 312 -94 312 -94 312 -77 c 2,42,-1
 312 300 l 2,43,44
 312 320 312 320 298.5 336 c 128,-1,45
 285 352 285 352 268 352 c 2,46,-1
 203 352 l 2,47,48
 191 352 191 352 177 346.5 c 128,-1,49
 163 341 163 341 149.5 332 c 128,-1,50
 136 323 136 323 125 312 c 128,-1,51
 114 301 114 301 108 290 c 1,52,53
 124 288 124 288 137 279 c 128,-1,54
 150 270 150 270 159 258 c 128,-1,55
 168 246 168 246 173 233.5 c 128,-1,56
 178 221 178 221 178 212 c 2,57,-1
 178 67 l 2,58,59
 178 54 178 54 171.5 42 c 128,-1,60
 165 30 165 30 153.5 20.5 c 128,-1,61
 142 11 142 11 128 5.5 c 128,-1,62
 114 0 114 0 99 0 c 0,63,64
 83 0 83 0 69 6 c 128,-1,65
 55 12 55 12 44.5 22 c 128,-1,66
 34 32 34 32 28 44.5 c 128,-1,67
 22 57 22 57 22 70 c 0,68,69
 22 99 22 99 45.5 120 c 128,-1,70
 69 141 69 141 100 141 c 2,71,-1
 104 141 l 1,72,-1
 104 211 l 2,73,74
 104 218 104 218 97.5 226.5 c 128,-1,75
 91 235 91 235 81 242 c 128,-1,76
 71 249 71 249 59 254.5 c 128,-1,77
 47 260 47 260 36 261 c 1,78,79
 39 292 39 292 54 319 c 128,-1,80
 69 346 69 346 92.5 365.5 c 128,-1,81
 116 385 116 385 145 396 c 128,-1,82
 174 407 174 407 206 407 c 2,83,-1
 268 407 l 2,0,1
63 71 m 256,84,85
 63 56 63 56 73.5 45.5 c 128,-1,86
 84 35 84 35 99 35 c 256,87,88
 114 35 114 35 124.5 45.5 c 128,-1,89
 135 56 135 56 135 71 c 256,90,91
 135 86 135 86 124.5 96.5 c 128,-1,92
 114 107 114 107 99 107 c 256,93,94
 84 107 84 107 73.5 96.5 c 128,-1,95
 63 86 63 86 63 71 c 256,84,85
68 -104 m 256,96,97
 68 -119 68 -119 78.5 -129.5 c 128,-1,98
 89 -140 89 -140 104 -140 c 256,99,100
 119 -140 119 -140 129.5 -129.5 c 128,-1,101
 140 -119 140 -119 140 -104 c 256,102,103
 140 -89 140 -89 129.5 -78.5 c 128,-1,104
 119 -68 119 -68 104 -68 c 256,105,106
 89 -68 89 -68 78.5 -78.5 c 128,-1,107
 68 -89 68 -89 68 -104 c 256,96,97
EndSplineSet
Substitution: 0 65534 'L026' uni0E0F.alt1
Substitution: 0 65534 'L026' uni0E0F.alt1
EndChar
StartChar: uni0E10
Encoding: 3600 3600 227
Width: 388
Flags: W
Fore
310 108 m 2,0,1
 310 87 310 87 301.5 68 c 128,-1,2
 293 49 293 49 278 34 c 128,-1,3
 263 19 263 19 242.5 9.5 c 128,-1,4
 222 0 222 0 198 0 c 2,5,-1
 137 0 l 1,6,-1
 137 79 l 1,7,-1
 133 79 l 2,8,9
 101 79 101 79 77 100.5 c 128,-1,10
 53 122 53 122 53 151 c 256,11,12
 53 180 53 180 77 201.5 c 128,-1,13
 101 223 101 223 133 223 c 256,14,15
 165 223 165 223 188 203 c 128,-1,16
 211 183 211 183 211 151 c 2,17,-1
 211 60 l 1,18,19
 223 65 223 65 235 73.5 c 128,-1,20
 247 82 247 82 247 108 c 2,21,-1
 247 211 l 1,22,23
 209 231 209 231 149.5 246 c 128,-1,24
 90 261 90 261 22 270 c 1,25,26
 22 298 22 298 30.5 327.5 c 128,-1,27
 39 357 39 357 62 376 c 0,28,29
 79 390 79 390 98.5 398.5 c 128,-1,30
 118 407 118 407 143 407 c 0,31,32
 166 407 166 407 183.5 401.5 c 128,-1,33
 201 396 201 396 218 391 c 0,34,35
 232 385 232 385 246.5 380.5 c 128,-1,36
 261 376 261 376 273 375 c 0,37,38
 288 375 288 375 308 388.5 c 128,-1,39
 328 402 328 402 357 428 c 1,40,-1
 366 373 l 1,41,42
 348 354 348 354 324 336.5 c 128,-1,43
 300 319 300 319 277 319 c 0,44,45
 256 319 256 319 239 326.5 c 128,-1,46
 222 334 222 334 205 340 c 256,47,48
 188 346 188 346 172.5 351 c 128,-1,49
 157 356 157 356 143 356 c 0,50,51
 126 356 126 356 111.5 341 c 128,-1,52
 97 326 97 326 95 309 c 1,53,54
 150 300 150 300 203 282 c 128,-1,55
 256 264 256 264 310 235 c 1,56,-1
 310 108 l 2,0,1
330 -62 m 2,57,58
 330 -126 330 -126 304 -155.5 c 128,-1,59
 278 -185 278 -185 231 -199 c 1,60,-1
 175 -121 l 1,61,-1
 130 -199 l 1,62,-1
 101 -140 l 1,63,64
 90 -154 90 -154 77.5 -160.5 c 128,-1,65
 65 -167 65 -167 53 -167 c 0,66,67
 18 -167 18 -167 -1.5 -145.5 c 128,-1,68
 -21 -124 -21 -124 -21 -95 c 256,69,70
 -21 -66 -21 -66 -2 -44.5 c 128,-1,71
 17 -23 17 -23 51 -23 c 0,72,73
 71 -23 71 -23 90 -31.5 c 128,-1,74
 109 -40 109 -40 113 -53 c 2,75,-1
 135 -113 l 1,76,-1
 175 -44 l 1,77,-1
 244 -141 l 1,78,79
 258 -138 258 -138 266.5 -129.5 c 128,-1,80
 275 -121 275 -121 275 -109 c 1,81,82
 254 -109 254 -109 237.5 -94 c 128,-1,83
 221 -79 221 -79 221 -53 c 0,84,85
 221 -32 221 -32 237 -16.5 c 128,-1,86
 253 -1 253 -1 276 -1 c 256,87,88
 299 -1 299 -1 314.5 -14 c 128,-1,89
 330 -27 330 -27 330 -50 c 2,90,-1
 330 -62 l 2,57,58
96 152 m 256,91,92
 96 137 96 137 106.5 126.5 c 128,-1,93
 117 116 117 116 132 116 c 256,94,95
 147 116 147 116 157.5 126.5 c 128,-1,96
 168 137 168 137 168 152 c 256,97,98
 168 167 168 167 157.5 177.5 c 128,-1,99
 147 188 147 188 132 188 c 256,100,101
 117 188 117 188 106.5 177.5 c 128,-1,102
 96 167 96 167 96 152 c 256,91,92
16 -92 m 256,103,104
 16 -107 16 -107 26.5 -117.5 c 128,-1,105
 37 -128 37 -128 52 -128 c 256,106,107
 67 -128 67 -128 77.5 -117.5 c 128,-1,108
 88 -107 88 -107 88 -92 c 256,109,110
 88 -77 88 -77 77.5 -66.5 c 128,-1,111
 67 -56 67 -56 52 -56 c 256,112,113
 37 -56 37 -56 26.5 -66.5 c 128,-1,114
 16 -77 16 -77 16 -92 c 256,103,104
248 -54 m 256,115,116
 248 -67 248 -67 257 -76 c 128,-1,117
 266 -85 266 -85 279 -85 c 256,118,119
 292 -85 292 -85 301 -76 c 128,-1,120
 310 -67 310 -67 310 -54 c 256,121,122
 310 -41 310 -41 301 -32 c 128,-1,123
 292 -23 292 -23 279 -23 c 256,124,125
 266 -23 266 -23 257 -32 c 128,-1,126
 248 -41 248 -41 248 -54 c 256,115,116
EndSplineSet
Substitution: 0 65534 'L026' uni0E10.alt1
Substitution: 0 65534 'L026' uni0E10.alt1
EndChar
StartChar: uni0E11
Encoding: 3601 3601 228
Width: 559
Flags: W
Fore
173 180 m 2,0,1
 173 199 173 199 175 211 c 128,-1,2
 177 223 177 223 181.5 231.5 c 128,-1,3
 186 240 186 240 193.5 248 c 128,-1,4
 201 256 201 256 212 268 c 0,5,6
 222 279 222 279 228 295 c 128,-1,7
 234 311 234 311 234 326 c 0,8,9
 234 343 234 343 225 354 c 1,10,-1
 177 311 l 1,11,-1
 117 362 l 1,12,13
 97 360 97 360 86.5 352 c 128,-1,14
 76 344 76 344 71 337 c 1,15,-1
 84 337 l 2,16,17
 94 337 94 337 105.5 332 c 128,-1,18
 117 327 117 327 127 318 c 128,-1,19
 137 309 137 309 143 297 c 128,-1,20
 149 285 149 285 149 271 c 0,21,22
 149 241 149 241 130.5 222.5 c 128,-1,23
 112 204 112 204 83 204 c 0,24,25
 64 204 64 204 49 212 c 128,-1,26
 34 220 34 220 24 232.5 c 128,-1,27
 14 245 14 245 9 261 c 128,-1,28
 4 277 4 277 4 294 c 0,29,30
 4 318 4 318 14 338.5 c 128,-1,31
 24 359 24 359 41.5 374.5 c 128,-1,32
 59 390 59 390 81 399.5 c 128,-1,33
 103 409 103 409 127 409 c 1,34,-1
 178 366 l 1,35,-1
 224 409 l 1,36,37
 253 396 253 396 265 370 c 128,-1,38
 277 344 277 344 277 314 c 0,39,40
 277 299 277 299 272.5 284 c 128,-1,41
 268 269 268 269 262 253.5 c 128,-1,42
 256 238 256 238 251.5 222 c 128,-1,43
 247 206 247 206 247 190 c 2,44,-1
 247 111 l 1,45,46
 248 125 248 125 250 136.5 c 128,-1,47
 252 148 252 148 253 154 c 1,48,-1
 377 407 l 1,49,50
 430 407 430 407 465.5 377.5 c 128,-1,51
 501 348 501 348 501 298 c 2,52,-1
 501 0 l 1,53,-1
 429 0 l 1,54,-1
 429 277 l 2,55,56
 429 305 429 305 406 318 c 1,57,-1
 246 0 l 1,58,-1
 173 0 l 1,59,-1
 173 180 l 2,0,1
47 271 m 256,60,61
 47 256 47 256 57.5 245.5 c 128,-1,62
 68 235 68 235 83 235 c 256,63,64
 98 235 98 235 108.5 245.5 c 128,-1,65
 119 256 119 256 119 271 c 256,66,67
 119 286 119 286 108.5 296.5 c 128,-1,68
 98 307 98 307 83 307 c 256,69,70
 68 307 68 307 57.5 296.5 c 128,-1,71
 47 286 47 286 47 271 c 256,60,61
EndSplineSet
EndChar
StartChar: uni0E12
Encoding: 3602 3602 229
Width: 644
Flags: W
Fore
414 150 m 1,0,1
 446 139 446 139 469.5 120 c 128,-1,2
 493 101 493 101 510 82 c 1,3,-1
 510 407 l 1,4,-1
 584 407 l 1,5,-1
 584 0 l 1,6,-1
 507 0 l 1,7,8
 490 26 490 26 468 50.5 c 128,-1,9
 446 75 446 75 414 86 c 1,10,-1
 414 29 l 1,11,12
 401 18 401 18 391 9.5 c 128,-1,13
 381 1 381 1 364 1 c 0,14,15
 329 1 329 1 309.5 21.5 c 128,-1,16
 290 42 290 42 290 72 c 0,17,18
 290 103 290 103 304.5 123.5 c 128,-1,19
 319 144 319 144 350 149 c 1,20,-1
 350 299 l 2,21,22
 350 306 350 306 346 313.5 c 128,-1,23
 342 321 342 321 336.5 327.5 c 128,-1,24
 331 334 331 334 324 338.5 c 128,-1,25
 317 343 317 343 311 343 c 1,26,-1
 239 277 l 1,27,-1
 164 344 l 1,28,29
 150 334 150 334 134.5 307.5 c 128,-1,30
 119 281 119 281 119 249 c 2,31,-1
 119 64 l 1,32,33
 139 67 139 67 154.5 73 c 128,-1,34
 170 79 170 79 186 95 c 1,35,36
 170 103 170 103 158.5 119 c 128,-1,37
 147 135 147 135 147 159 c 0,38,39
 147 188 147 188 168 209 c 128,-1,40
 189 230 189 230 216 230 c 0,41,42
 229 230 229 230 241 224.5 c 128,-1,43
 253 219 253 219 262 209 c 128,-1,44
 271 199 271 199 276.5 186.5 c 128,-1,45
 282 174 282 174 282 159 c 0,46,47
 282 130 282 130 267 101.5 c 128,-1,48
 252 73 252 73 228 50.5 c 128,-1,49
 204 28 204 28 173.5 14.5 c 128,-1,50
 143 1 143 1 111 1 c 2,51,-1
 50 1 l 1,52,-1
 50 251 l 2,53,54
 50 279 50 279 62 307 c 128,-1,55
 74 335 74 335 92 357.5 c 128,-1,56
 110 380 110 380 132 394 c 128,-1,57
 154 408 154 408 174 408 c 1,58,-1
 239 351 l 1,59,-1
 300 407 l 1,60,61
 322 407 322 407 342.5 398.5 c 128,-1,62
 363 390 363 390 379 375 c 128,-1,63
 395 360 395 360 404.5 340.5 c 128,-1,64
 414 321 414 321 414 299 c 2,65,-1
 414 150 l 1,0,1
181 159 m 256,66,67
 181 144 181 144 191.5 133.5 c 128,-1,68
 202 123 202 123 217 123 c 256,69,70
 232 123 232 123 242.5 133.5 c 128,-1,71
 253 144 253 144 253 159 c 256,72,73
 253 174 253 174 242.5 184.5 c 128,-1,74
 232 195 232 195 217 195 c 256,75,76
 202 195 202 195 191.5 184.5 c 128,-1,77
 181 174 181 174 181 159 c 256,66,67
321 73 m 0,78,79
 321 59 321 59 330 45.5 c 128,-1,80
 339 32 339 32 350 29 c 1,81,-1
 350 116 l 1,82,83
 338 115 338 115 329.5 101.5 c 128,-1,84
 321 88 321 88 321 73 c 0,78,79
EndSplineSet
EndChar
StartChar: uni0E13
Encoding: 3603 3603 230
Width: 613
Flags: W
Fore
110 71 m 256,0,1
 110 56 110 56 120.5 45.5 c 128,-1,2
 131 35 131 35 146 35 c 256,3,4
 161 35 161 35 171.5 45.5 c 128,-1,5
 182 56 182 56 182 71 c 256,6,7
 182 86 182 86 171.5 96.5 c 128,-1,8
 161 107 161 107 146 107 c 256,9,10
 131 107 131 107 120.5 96.5 c 128,-1,11
 110 86 110 86 110 71 c 256,0,1
439 68 m 1,12,13
 425 57 425 57 406.5 38.5 c 128,-1,14
 388 20 388 20 368 0 c 1,15,-1
 297 0 l 1,16,-1
 297 300 l 2,17,18
 297 320 297 320 283 336 c 128,-1,19
 269 352 269 352 252 352 c 2,20,-1
 187 352 l 2,21,22
 174 352 174 352 160.5 346.5 c 128,-1,23
 147 341 147 341 134 331.5 c 128,-1,24
 121 322 121 322 111 310 c 128,-1,25
 101 298 101 298 96 286 c 1,26,27
 119 275 119 275 129.5 252 c 128,-1,28
 140 229 140 229 140 211 c 2,29,-1
 140 141 l 1,30,-1
 146 141 l 2,31,32
 161 141 161 141 175 135 c 128,-1,33
 189 129 189 129 200.5 119 c 128,-1,34
 212 109 212 109 218.5 96.5 c 128,-1,35
 225 84 225 84 225 71 c 0,36,37
 225 42 225 42 201.5 21 c 128,-1,38
 178 0 178 0 146 0 c 0,39,40
 118 0 118 0 94 16.5 c 128,-1,41
 70 33 70 33 66 58 c 1,42,-1
 66 212 l 2,43,44
 66 229 66 229 53 243 c 128,-1,45
 40 257 40 257 21 259 c 1,46,47
 24 290 24 290 39 317 c 128,-1,48
 54 344 54 344 77 364 c 128,-1,49
 100 384 100 384 129 395.5 c 128,-1,50
 158 407 158 407 190 407 c 2,51,-1
 252 407 l 2,52,53
 274 407 274 407 295 398 c 128,-1,54
 316 389 316 389 332.5 374.5 c 128,-1,55
 349 360 349 360 359 340.5 c 128,-1,56
 369 321 369 321 369 300 c 2,57,-1
 369 83 l 1,58,59
 392 105 392 105 420.5 128.5 c 128,-1,60
 449 152 449 152 479 171 c 1,61,-1
 479 407 l 1,62,-1
 552 407 l 1,63,-1
 552 147 l 1,64,65
 575 138 575 138 587.5 119.5 c 128,-1,66
 600 101 600 101 600 78 c 0,67,68
 600 62 600 62 593 48 c 128,-1,69
 586 34 586 34 574 23.5 c 128,-1,70
 562 13 562 13 546.5 6.5 c 128,-1,71
 531 0 531 0 515 0 c 0,72,73
 480 0 480 0 459.5 22 c 128,-1,74
 439 44 439 44 439 68 c 1,12,13
483 76 m 256,75,76
 483 61 483 61 493.5 50.5 c 128,-1,77
 504 40 504 40 519 40 c 256,78,79
 534 40 534 40 544.5 50.5 c 128,-1,80
 555 61 555 61 555 76 c 256,81,82
 555 91 555 91 544.5 101.5 c 128,-1,83
 534 112 534 112 519 112 c 256,84,85
 504 112 504 112 493.5 101.5 c 128,-1,86
 483 91 483 91 483 76 c 256,75,76
EndSplineSet
EndChar
StartChar: uni0E14
Encoding: 3604 3604 231
Width: 459
Flags: W
Fore
119 63 m 1,0,1
 139 66 139 66 156.5 72 c 128,-1,2
 174 78 174 78 191 94 c 1,3,4
 173 102 173 102 160 118 c 128,-1,5
 147 134 147 134 147 158 c 0,6,7
 147 186 147 186 171 207 c 128,-1,8
 195 228 195 228 226 228 c 0,9,10
 255 228 255 228 278 207.5 c 128,-1,11
 301 187 301 187 301 158 c 256,12,13
 301 129 301 129 283.5 100.5 c 128,-1,14
 266 72 266 72 238 49.5 c 128,-1,15
 210 27 210 27 176.5 13.5 c 128,-1,16
 143 0 143 0 111 0 c 2,17,-1
 50 0 l 1,18,-1
 50 250 l 2,19,20
 50 280 50 280 64.5 308.5 c 128,-1,21
 79 337 79 337 102.5 358.5 c 128,-1,22
 126 380 126 380 156.5 393.5 c 128,-1,23
 187 407 187 407 220 407 c 2,24,-1
 285 407 l 2,25,26
 308 407 308 407 329 398.5 c 128,-1,27
 350 390 350 390 366.5 375 c 128,-1,28
 383 360 383 360 392.5 340 c 128,-1,29
 402 320 402 320 402 298 c 2,30,-1
 402 0 l 1,31,-1
 327 0 l 1,32,-1
 327 301 l 2,33,34
 327 319 327 319 314 335.5 c 128,-1,35
 301 352 301 352 285 352 c 2,36,-1
 218 352 l 2,37,38
 199 352 199 352 181.5 342.5 c 128,-1,39
 164 333 164 333 150 318 c 128,-1,40
 136 303 136 303 127.5 284.5 c 128,-1,41
 119 266 119 266 119 248 c 2,42,-1
 119 63 l 1,0,1
191 159 m 256,43,44
 191 144 191 144 201.5 133.5 c 128,-1,45
 212 123 212 123 227 123 c 256,46,47
 242 123 242 123 252.5 133.5 c 128,-1,48
 263 144 263 144 263 159 c 256,49,50
 263 174 263 174 252.5 184.5 c 128,-1,51
 242 195 242 195 227 195 c 256,52,53
 212 195 212 195 201.5 184.5 c 128,-1,54
 191 174 191 174 191 159 c 256,43,44
EndSplineSet
EndChar
StartChar: uni0E15
Encoding: 3605 3605 232
Width: 458
Flags: W
Fore
50 251 m 2,0,1
 50 279 50 279 62 307 c 128,-1,2
 74 335 74 335 92 357.5 c 128,-1,3
 110 380 110 380 132 394 c 128,-1,4
 154 408 154 408 174 408 c 1,5,-1
 239 351 l 1,6,-1
 300 407 l 1,7,8
 322 407 322 407 341 398.5 c 128,-1,9
 360 390 360 390 373.5 375 c 128,-1,10
 387 360 387 360 394.5 340.5 c 128,-1,11
 402 321 402 321 402 299 c 2,12,-1
 402 0 l 1,13,-1
 328 0 l 1,14,-1
 328 299 l 2,15,16
 328 313 328 313 325.5 328 c 128,-1,17
 323 343 323 343 311 343 c 1,18,-1
 239 277 l 1,19,-1
 164 344 l 1,20,21
 150 334 150 334 134.5 307.5 c 128,-1,22
 119 281 119 281 119 249 c 2,23,-1
 119 64 l 1,24,25
 139 67 139 67 156.5 73 c 128,-1,26
 174 79 174 79 191 95 c 1,27,28
 173 103 173 103 160 119 c 128,-1,29
 147 135 147 135 147 159 c 0,30,31
 147 187 147 187 171 208 c 128,-1,32
 195 229 195 229 226 229 c 0,33,34
 255 229 255 229 278 208.5 c 128,-1,35
 301 188 301 188 301 159 c 256,36,37
 301 130 301 130 283.5 101.5 c 128,-1,38
 266 73 266 73 238 50.5 c 128,-1,39
 210 28 210 28 176.5 14.5 c 128,-1,40
 143 1 143 1 111 1 c 2,41,-1
 50 1 l 1,42,-1
 50 251 l 2,0,1
191 160 m 256,43,44
 191 145 191 145 201.5 134.5 c 128,-1,45
 212 124 212 124 227 124 c 256,46,47
 242 124 242 124 252.5 134.5 c 128,-1,48
 263 145 263 145 263 160 c 256,49,50
 263 175 263 175 252.5 185.5 c 128,-1,51
 242 196 242 196 227 196 c 256,52,53
 212 196 212 196 201.5 185.5 c 128,-1,54
 191 175 191 175 191 160 c 256,43,44
EndSplineSet
EndChar
StartChar: uni0E16
Encoding: 3606 3606 233
Width: 427
Flags: W
Fore
369 0 m 1,0,-1
 297 0 l 1,1,-1
 297 300 l 2,2,3
 297 320 297 320 283 336 c 128,-1,4
 269 352 269 352 252 352 c 2,5,-1
 187 352 l 2,6,7
 174 352 174 352 160.5 346.5 c 128,-1,8
 147 341 147 341 134 331.5 c 128,-1,9
 121 322 121 322 111 310 c 128,-1,10
 101 298 101 298 96 286 c 1,11,12
 119 275 119 275 129.5 252 c 128,-1,13
 140 229 140 229 140 211 c 2,14,-1
 140 141 l 1,15,-1
 146 141 l 2,16,17
 161 141 161 141 175 135 c 128,-1,18
 189 129 189 129 200.5 119 c 128,-1,19
 212 109 212 109 218.5 96.5 c 128,-1,20
 225 84 225 84 225 71 c 0,21,22
 225 42 225 42 201.5 21 c 128,-1,23
 178 0 178 0 146 0 c 0,24,25
 118 0 118 0 94 16.5 c 128,-1,26
 70 33 70 33 66 58 c 1,27,-1
 66 212 l 2,28,29
 66 229 66 229 53 243 c 128,-1,30
 40 257 40 257 21 259 c 1,31,32
 24 290 24 290 39 317 c 128,-1,33
 54 344 54 344 77 364 c 128,-1,34
 100 384 100 384 129 395.5 c 128,-1,35
 158 407 158 407 190 407 c 2,36,-1
 252 407 l 2,37,38
 274 407 274 407 295 398 c 128,-1,39
 316 389 316 389 332.5 374.5 c 128,-1,40
 349 360 349 360 359 340.5 c 128,-1,41
 369 321 369 321 369 300 c 2,42,-1
 369 0 l 1,0,-1
110 71 m 256,43,44
 110 56 110 56 120.5 45.5 c 128,-1,45
 131 35 131 35 146 35 c 256,46,47
 161 35 161 35 171.5 45.5 c 128,-1,48
 182 56 182 56 182 71 c 256,49,50
 182 86 182 86 171.5 96.5 c 128,-1,51
 161 107 161 107 146 107 c 256,52,53
 131 107 131 107 120.5 96.5 c 128,-1,54
 110 86 110 86 110 71 c 256,43,44
EndSplineSet
EndChar
StartChar: uni0E17
Encoding: 3607 3607 234
Width: 484
Flags: W
Fore
292 407 m 1,0,1
 318 407 318 407 342.5 399 c 128,-1,2
 367 391 367 391 386 377 c 128,-1,3
 405 363 405 363 416.5 343 c 128,-1,4
 428 323 428 323 428 298 c 2,5,-1
 428 0 l 1,6,-1
 354 0 l 1,7,-1
 354 291 l 2,8,9
 354 304 354 304 345.5 315 c 128,-1,10
 337 326 337 326 325 332 c 1,11,-1
 173 0 l 1,12,-1
 102 0 l 1,13,-1
 102 267 l 1,14,15
 87 267 87 267 73 272.5 c 128,-1,16
 59 278 59 278 47.5 287.5 c 128,-1,17
 36 297 36 297 29.5 310 c 128,-1,18
 23 323 23 323 23 337 c 0,19,20
 23 364 23 364 46.5 384.5 c 128,-1,21
 70 405 70 405 100 405 c 0,22,23
 115 405 115 405 128.5 399.5 c 128,-1,24
 142 394 142 394 152.5 385 c 128,-1,25
 163 376 163 376 169.5 363.5 c 128,-1,26
 176 351 176 351 176 338 c 2,27,-1
 176 119 l 1,28,29
 177 133 177 133 179 147 c 128,-1,30
 181 161 181 161 183 166 c 2,31,-1
 292 407 l 1,0,1
61 336 m 256,32,33
 61 321 61 321 71.5 310.5 c 128,-1,34
 82 300 82 300 97 300 c 256,35,36
 112 300 112 300 122.5 310.5 c 128,-1,37
 133 321 133 321 133 336 c 256,38,39
 133 351 133 351 122.5 361.5 c 128,-1,40
 112 372 112 372 97 372 c 256,41,42
 82 372 82 372 71.5 361.5 c 128,-1,43
 61 351 61 351 61 336 c 256,32,33
EndSplineSet
EndChar
StartChar: uni0E18
Encoding: 3608 3608 235
Width: 378
Flags: W
Fore
271 370 m 0,0,1
 294 370 294 370 314.5 390 c 128,-1,2
 335 410 335 410 353 433 c 1,3,-1
 365 381 l 1,4,5
 358 370 358 370 347 359 c 128,-1,6
 336 348 336 348 323 339 c 128,-1,7
 310 330 310 330 296 324 c 128,-1,8
 282 318 282 318 269 318 c 0,9,10
 249 318 249 318 234.5 324.5 c 128,-1,11
 220 331 220 331 206 338 c 0,12,13
 178 352 178 352 154 352 c 0,14,15
 145 352 145 352 134.5 349 c 128,-1,16
 124 346 124 346 115 341 c 128,-1,17
 106 336 106 336 99.5 328.5 c 128,-1,18
 93 321 93 321 92 311 c 1,19,20
 150 303 150 303 209.5 284 c 128,-1,21
 269 265 269 265 325 236 c 1,22,-1
 325 108 l 2,23,24
 325 87 325 87 315 67.5 c 128,-1,25
 305 48 305 48 288.5 33 c 128,-1,26
 272 18 272 18 250.5 9 c 128,-1,27
 229 0 229 0 206 0 c 2,28,-1
 123 0 l 2,29,30
 100 0 100 0 81 15 c 128,-1,31
 62 30 62 30 62 53 c 2,32,-1
 62 233 l 1,33,-1
 136 218 l 1,34,-1
 136 60 l 1,35,-1
 208 60 l 2,36,37
 225 60 225 60 238 77.5 c 128,-1,38
 251 95 251 95 251 114 c 2,39,-1
 251 210 l 1,40,41
 213 230 213 230 154.5 244.5 c 128,-1,42
 96 259 96 259 25 270 c 1,43,44
 25 297 25 297 33.5 325.5 c 128,-1,45
 42 354 42 354 63 375 c 0,46,47
 79 391 79 391 104 399 c 128,-1,48
 129 407 129 407 155 407 c 0,49,50
 172 407 172 407 188 402 c 128,-1,51
 204 397 204 397 219 390 c 0,52,53
 231 385 231 385 243 377.5 c 128,-1,54
 255 370 255 370 271 370 c 0,0,1
EndSplineSet
EndChar
StartChar: uni0E19
Encoding: 3609 3609 236
Width: 440
Flags: W
Fore
103 267 m 1,0,1
 88 267 88 267 74 272.5 c 128,-1,2
 60 278 60 278 48.5 287.5 c 128,-1,3
 37 297 37 297 30.5 310 c 128,-1,4
 24 323 24 323 24 337 c 0,5,6
 24 364 24 364 47.5 384.5 c 128,-1,7
 71 405 71 405 101 405 c 0,8,9
 116 405 116 405 129.5 399.5 c 128,-1,10
 143 394 143 394 153.5 385 c 128,-1,11
 164 376 164 376 170.5 363.5 c 128,-1,12
 177 351 177 351 177 338 c 2,13,-1
 177 84 l 1,14,15
 185 94 185 94 201 106 c 128,-1,16
 217 118 217 118 235.5 129.5 c 128,-1,17
 254 141 254 141 273.5 150 c 128,-1,18
 293 159 293 159 308 163 c 1,19,-1
 308 407 l 1,20,-1
 383 407 l 1,21,-1
 383 147 l 1,22,23
 406 138 406 138 418.5 119.5 c 128,-1,24
 431 101 431 101 431 78 c 0,25,26
 431 62 431 62 424 48 c 128,-1,27
 417 34 417 34 405 23.5 c 128,-1,28
 393 13 393 13 377.5 6.5 c 128,-1,29
 362 0 362 0 346 0 c 0,30,31
 311 0 311 0 290.5 23 c 128,-1,32
 270 46 270 46 270 74 c 0,33,34
 270 77 270 77 271.5 81.5 c 128,-1,35
 273 86 273 86 275 88 c 1,36,37
 250 74 250 74 221.5 48.5 c 128,-1,38
 193 23 193 23 172 0 c 1,39,-1
 103 0 l 1,40,-1
 103 267 l 1,0,1
62 336 m 256,41,42
 62 321 62 321 72.5 310.5 c 128,-1,43
 83 300 83 300 98 300 c 256,44,45
 113 300 113 300 123.5 310.5 c 128,-1,46
 134 321 134 321 134 336 c 256,47,48
 134 351 134 351 123.5 361.5 c 128,-1,49
 113 372 113 372 98 372 c 256,50,51
 83 372 83 372 72.5 361.5 c 128,-1,52
 62 351 62 351 62 336 c 256,41,42
314 76 m 256,53,54
 314 61 314 61 324.5 50.5 c 128,-1,55
 335 40 335 40 350 40 c 256,56,57
 365 40 365 40 375.5 50.5 c 128,-1,58
 386 61 386 61 386 76 c 256,59,60
 386 91 386 91 375.5 101.5 c 128,-1,61
 365 112 365 112 350 112 c 256,62,63
 335 112 335 112 324.5 101.5 c 128,-1,64
 314 91 314 91 314 76 c 256,53,54
EndSplineSet
EndChar
StartChar: uni0E1A
Encoding: 3610 3610 237
Width: 469
Flags: W
Fore
105 267 m 1,0,1
 90 267 90 267 76 272.5 c 128,-1,2
 62 278 62 278 50.5 287.5 c 128,-1,3
 39 297 39 297 32.5 310 c 128,-1,4
 26 323 26 323 26 337 c 0,5,6
 26 364 26 364 49.5 384.5 c 128,-1,7
 73 405 73 405 103 405 c 0,8,9
 118 405 118 405 131.5 399.5 c 128,-1,10
 145 394 145 394 155.5 385 c 128,-1,11
 166 376 166 376 172.5 363.5 c 128,-1,12
 179 351 179 351 179 338 c 2,13,-1
 179 65 l 1,14,-1
 294 65 l 2,15,16
 311 65 311 65 324 80.5 c 128,-1,17
 337 96 337 96 337 116 c 2,18,-1
 337 407 l 1,19,-1
 410 407 l 1,20,-1
 410 103 l 2,21,22
 410 82 410 82 400.5 63.5 c 128,-1,23
 391 45 391 45 375 30.5 c 128,-1,24
 359 16 359 16 338 8 c 128,-1,25
 317 0 317 0 294 0 c 2,26,-1
 162 0 l 2,27,28
 139 0 139 0 122 15.5 c 128,-1,29
 105 31 105 31 105 51 c 2,30,-1
 105 267 l 1,0,1
64 336 m 256,31,32
 64 321 64 321 74.5 310.5 c 128,-1,33
 85 300 85 300 100 300 c 256,34,35
 115 300 115 300 125.5 310.5 c 128,-1,36
 136 321 136 321 136 336 c 256,37,38
 136 351 136 351 125.5 361.5 c 128,-1,39
 115 372 115 372 100 372 c 256,40,41
 85 372 85 372 74.5 361.5 c 128,-1,42
 64 351 64 351 64 336 c 256,31,32
EndSplineSet
EndChar
StartChar: uni0E1B
Encoding: 3611 3611 238
Width: 469
Flags: W
Fore
105 267 m 1,0,1
 90 267 90 267 76 272.5 c 128,-1,2
 62 278 62 278 50.5 287.5 c 128,-1,3
 39 297 39 297 32.5 310 c 128,-1,4
 26 323 26 323 26 337 c 0,5,6
 26 364 26 364 49.5 384.5 c 128,-1,7
 73 405 73 405 103 405 c 0,8,9
 118 405 118 405 131.5 399.5 c 128,-1,10
 145 394 145 394 155.5 385 c 128,-1,11
 166 376 166 376 172.5 363.5 c 128,-1,12
 179 351 179 351 179 338 c 2,13,-1
 179 65 l 1,14,-1
 294 65 l 2,15,16
 311 65 311 65 324 80.5 c 128,-1,17
 337 96 337 96 337 116 c 2,18,-1
 337 602 l 1,19,-1
 410 602 l 1,20,-1
 410 103 l 2,21,22
 410 82 410 82 400.5 63.5 c 128,-1,23
 391 45 391 45 375 30.5 c 128,-1,24
 359 16 359 16 338 8 c 128,-1,25
 317 0 317 0 294 0 c 2,26,-1
 162 0 l 2,27,28
 139 0 139 0 122 15.5 c 128,-1,29
 105 31 105 31 105 51 c 2,30,-1
 105 267 l 1,0,1
64 336 m 256,31,32
 64 321 64 321 74.5 310.5 c 128,-1,33
 85 300 85 300 100 300 c 256,34,35
 115 300 115 300 125.5 310.5 c 128,-1,36
 136 321 136 321 136 336 c 256,37,38
 136 351 136 351 125.5 361.5 c 128,-1,39
 115 372 115 372 100 372 c 256,40,41
 85 372 85 372 74.5 361.5 c 128,-1,42
 64 351 64 351 64 336 c 256,31,32
EndSplineSet
KernsSLIFO: 275 60 0 0 274 60 0 0 273 60 0 0
EndChar
StartChar: uni0E1C
Encoding: 3612 3612 239
Width: 457
Flags: W
Fore
401 81 m 2,0,1
 401 70 401 70 399 56.5 c 128,-1,2
 397 43 397 43 389 31 c 128,-1,3
 381 19 381 19 366 10 c 128,-1,4
 351 1 351 1 325 -1 c 1,5,-1
 228 126 l 1,6,-1
 119 0 l 1,7,8
 88 0 88 0 69.5 18.5 c 128,-1,9
 51 37 51 37 51 58 c 2,10,-1
 51 338 l 2,11,12
 51 351 51 351 57.5 363.5 c 128,-1,13
 64 376 64 376 75 386 c 128,-1,14
 86 396 86 396 100.5 401.5 c 128,-1,15
 115 407 115 407 130 407 c 256,16,17
 145 407 145 407 159 401 c 128,-1,18
 173 395 173 395 184.5 385.5 c 128,-1,19
 196 376 196 376 202.5 363 c 128,-1,20
 209 350 209 350 209 336 c 256,21,22
 209 322 209 322 202.5 309.5 c 128,-1,23
 196 297 196 297 184.5 287 c 128,-1,24
 173 277 173 277 159 271.5 c 128,-1,25
 145 266 145 266 130 266 c 2,26,-1
 125 266 l 1,27,-1
 125 97 l 1,28,-1
 224 215 l 1,29,30
 234 215 234 215 241.5 205 c 128,-1,31
 249 195 249 195 257 184 c 2,32,-1
 327 95 l 1,33,-1
 327 407 l 1,34,-1
 401 407 l 1,35,-1
 401 81 l 2,0,1
96 337 m 256,36,37
 96 322 96 322 106.5 311.5 c 128,-1,38
 117 301 117 301 132 301 c 256,39,40
 147 301 147 301 157.5 311.5 c 128,-1,41
 168 322 168 322 168 337 c 256,42,43
 168 352 168 352 157.5 362.5 c 128,-1,44
 147 373 147 373 132 373 c 256,45,46
 117 373 117 373 106.5 362.5 c 128,-1,47
 96 352 96 352 96 337 c 256,36,37
EndSplineSet
EndChar
StartChar: uni0E1D
Encoding: 3613 3613 240
Width: 459
Flags: W
Fore
401 81 m 2,0,1
 401 70 401 70 399 56.5 c 128,-1,2
 397 43 397 43 389 31 c 128,-1,3
 381 19 381 19 366 10 c 128,-1,4
 351 1 351 1 325 -1 c 1,5,-1
 228 126 l 1,6,-1
 119 0 l 1,7,8
 88 0 88 0 69.5 18.5 c 128,-1,9
 51 37 51 37 51 58 c 2,10,-1
 51 338 l 2,11,12
 51 351 51 351 57.5 363.5 c 128,-1,13
 64 376 64 376 75 386 c 128,-1,14
 86 396 86 396 100.5 401.5 c 128,-1,15
 115 407 115 407 130 407 c 256,16,17
 145 407 145 407 159 401 c 128,-1,18
 173 395 173 395 184.5 385.5 c 128,-1,19
 196 376 196 376 202.5 363 c 128,-1,20
 209 350 209 350 209 336 c 256,21,22
 209 322 209 322 202.5 309.5 c 128,-1,23
 196 297 196 297 184.5 287 c 128,-1,24
 173 277 173 277 159 271.5 c 128,-1,25
 145 266 145 266 130 266 c 2,26,-1
 125 266 l 1,27,-1
 125 97 l 1,28,-1
 224 215 l 1,29,30
 234 215 234 215 241.5 205 c 128,-1,31
 249 195 249 195 257 184 c 2,32,-1
 327 95 l 1,33,-1
 327 602 l 1,34,-1
 401 602 l 1,35,-1
 401 81 l 2,0,1
96 337 m 256,36,37
 96 322 96 322 106.5 311.5 c 128,-1,38
 117 301 117 301 132 301 c 256,39,40
 147 301 147 301 157.5 311.5 c 128,-1,41
 168 322 168 322 168 337 c 256,42,43
 168 352 168 352 157.5 362.5 c 128,-1,44
 147 373 147 373 132 373 c 256,45,46
 117 373 117 373 106.5 362.5 c 128,-1,47
 96 352 96 352 96 337 c 256,36,37
EndSplineSet
KernsSLIFO: 275 60 0 0 274 60 0 0 273 60 0 0
EndChar
StartChar: uni0E1E
Encoding: 3614 3614 241
Width: 506
Flags: W
Fore
98 269 m 1,0,1
 83 269 83 269 69 274.5 c 128,-1,2
 55 280 55 280 43.5 289.5 c 128,-1,3
 32 299 32 299 25.5 312 c 128,-1,4
 19 325 19 325 19 339 c 0,5,6
 19 366 19 366 42.5 386.5 c 128,-1,7
 66 407 66 407 96 407 c 0,8,9
 111 407 111 407 124.5 401.5 c 128,-1,10
 138 396 138 396 148.5 387 c 128,-1,11
 159 378 159 378 165.5 365.5 c 128,-1,12
 172 353 172 353 172 340 c 2,13,-1
 172 90 l 1,14,15
 173 104 173 104 175 118 c 128,-1,16
 177 132 177 132 179 137 c 2,17,-1
 266 406 l 1,18,19
 287 404 287 404 297.5 393 c 128,-1,20
 308 382 308 382 310 373 c 2,21,-1
 378 137 l 2,22,23
 380 132 380 132 382 118 c 128,-1,24
 384 104 384 104 385 90 c 1,25,-1
 385 407 l 1,26,-1
 450 407 l 1,27,-1
 450 107 l 2,28,29
 450 89 450 89 443.5 71 c 128,-1,30
 437 53 437 53 425 37.5 c 128,-1,31
 413 22 413 22 396 11 c 128,-1,32
 379 0 379 0 357 -4 c 1,33,-1
 277 272 l 1,34,35
 261 218 261 218 244 168 c 0,36,37
 230 124 230 124 214 77.5 c 128,-1,38
 198 31 198 31 184 -4 c 1,39,40
 169 -4 169 -4 155 0 c 128,-1,41
 141 4 141 4 129.5 11 c 128,-1,42
 118 18 118 18 111 28 c 128,-1,43
 104 38 104 38 104 51 c 2,44,-1
 104 270 l 1,45,-1
 98 269 l 1,0,1
57 338 m 256,46,47
 57 323 57 323 67.5 312.5 c 128,-1,48
 78 302 78 302 93 302 c 256,49,50
 108 302 108 302 118.5 312.5 c 128,-1,51
 129 323 129 323 129 338 c 256,52,53
 129 353 129 353 118.5 363.5 c 128,-1,54
 108 374 108 374 93 374 c 256,55,56
 78 374 78 374 67.5 363.5 c 128,-1,57
 57 353 57 353 57 338 c 256,46,47
EndSplineSet
EndChar
StartChar: uni0E1F
Encoding: 3615 3615 242
Width: 506
Flags: W
Fore
184 -4 m 1,0,1
 169 -4 169 -4 155 0 c 128,-1,2
 141 4 141 4 129.5 11 c 128,-1,3
 118 18 118 18 111 28 c 128,-1,4
 104 38 104 38 104 51 c 2,5,-1
 104 270 l 1,6,-1
 98 269 l 1,7,8
 83 269 83 269 69 274.5 c 128,-1,9
 55 280 55 280 43.5 289.5 c 128,-1,10
 32 299 32 299 25.5 312 c 128,-1,11
 19 325 19 325 19 339 c 0,12,13
 19 366 19 366 42.5 386.5 c 128,-1,14
 66 407 66 407 96 407 c 0,15,16
 111 407 111 407 124.5 401.5 c 128,-1,17
 138 396 138 396 148.5 387 c 128,-1,18
 159 378 159 378 165.5 365.5 c 128,-1,19
 172 353 172 353 172 340 c 2,20,-1
 172 90 l 1,21,22
 173 104 173 104 175 118 c 128,-1,23
 177 132 177 132 179 137 c 2,24,-1
 266 406 l 1,25,26
 287 404 287 404 297.5 393 c 128,-1,27
 308 382 308 382 310 373 c 2,28,-1
 378 137 l 2,29,30
 380 132 380 132 382 119 c 128,-1,31
 384 106 384 106 385 92 c 1,32,-1
 385 602 l 1,33,-1
 450 602 l 1,34,-1
 450 107 l 2,35,36
 450 89 450 89 443.5 71 c 128,-1,37
 437 53 437 53 425 37.5 c 128,-1,38
 413 22 413 22 396 11 c 128,-1,39
 379 0 379 0 357 -4 c 1,40,-1
 277 272 l 1,41,42
 261 218 261 218 244 168 c 0,43,44
 230 124 230 124 214 77.5 c 128,-1,45
 198 31 198 31 184 -4 c 1,0,1
57 338 m 256,46,47
 57 323 57 323 67.5 312.5 c 128,-1,48
 78 302 78 302 93 302 c 256,49,50
 108 302 108 302 118.5 312.5 c 128,-1,51
 129 323 129 323 129 338 c 256,52,53
 129 353 129 353 118.5 363.5 c 128,-1,54
 108 374 108 374 93 374 c 256,55,56
 78 374 78 374 67.5 363.5 c 128,-1,57
 57 353 57 353 57 338 c 256,46,47
EndSplineSet
KernsSLIFO: 275 60 0 0 274 60 0 0 273 60 0 0
EndChar
StartChar: uni0E20
Encoding: 3616 3616 243
Width: 441
Flags: W
Fore
105 141 m 1,0,-1
 105 211 l 2,1,2
 105 218 105 218 98.5 226.5 c 128,-1,3
 92 235 92 235 82 242 c 128,-1,4
 72 249 72 249 60 254.5 c 128,-1,5
 48 260 48 260 37 261 c 1,6,7
 40 292 40 292 55 319 c 128,-1,8
 70 346 70 346 93.5 365.5 c 128,-1,9
 117 385 117 385 146 396 c 128,-1,10
 175 407 175 407 207 407 c 2,11,-1
 269 407 l 2,12,13
 291 407 291 407 312 398 c 128,-1,14
 333 389 333 389 349.5 374.5 c 128,-1,15
 366 360 366 360 376 340.5 c 128,-1,16
 386 321 386 321 386 300 c 2,17,-1
 386 0 l 1,18,-1
 313 0 l 1,19,-1
 313 300 l 2,20,21
 313 320 313 320 299.5 336 c 128,-1,22
 286 352 286 352 269 352 c 2,23,-1
 204 352 l 2,24,25
 192 352 192 352 178 346.5 c 128,-1,26
 164 341 164 341 150.5 332 c 128,-1,27
 137 323 137 323 126 312 c 128,-1,28
 115 301 115 301 109 290 c 1,29,30
 125 288 125 288 138 279 c 128,-1,31
 151 270 151 270 160 258 c 128,-1,32
 169 246 169 246 174 233.5 c 128,-1,33
 179 221 179 221 179 212 c 2,34,-1
 179 67 l 2,35,36
 179 54 179 54 172.5 42 c 128,-1,37
 166 30 166 30 154.5 20.5 c 128,-1,38
 143 11 143 11 129 5.5 c 128,-1,39
 115 0 115 0 100 0 c 0,40,41
 84 0 84 0 70 6 c 128,-1,42
 56 12 56 12 45.5 22 c 128,-1,43
 35 32 35 32 29 44.5 c 128,-1,44
 23 57 23 57 23 70 c 0,45,46
 23 99 23 99 46.5 120 c 128,-1,47
 70 141 70 141 101 141 c 2,48,-1
 105 141 l 1,0,-1
64 71 m 256,49,50
 64 56 64 56 74.5 45.5 c 128,-1,51
 85 35 85 35 100 35 c 256,52,53
 115 35 115 35 125.5 45.5 c 128,-1,54
 136 56 136 56 136 71 c 256,55,56
 136 86 136 86 125.5 96.5 c 128,-1,57
 115 107 115 107 100 107 c 256,58,59
 85 107 85 107 74.5 96.5 c 128,-1,60
 64 86 64 86 64 71 c 256,49,50
EndSplineSet
EndChar
StartChar: uni0E21
Encoding: 3617 3617 244
Width: 449
Flags: W
Fore
80 80 m 0,0,1
 80 64 80 64 90 51 c 128,-1,2
 100 38 100 38 114 31 c 1,3,-1
 114 128 l 1,4,5
 97 124 97 124 88.5 110.5 c 128,-1,6
 80 97 80 97 80 80 c 0,0,1
188 165 m 1,7,8
 231 154 231 154 263.5 135 c 128,-1,9
 296 116 296 116 320 96 c 1,10,-1
 320 407 l 1,11,-1
 394 407 l 1,12,-1
 394 0 l 1,13,-1
 325 0 l 1,14,15
 298 37 298 37 262 61.5 c 128,-1,16
 226 86 226 86 188 98 c 1,17,-1
 188 37 l 1,18,19
 177 20 177 20 165 10 c 128,-1,20
 153 0 153 0 119 0 c 0,21,22
 102 0 102 0 86.5 7 c 128,-1,23
 71 14 71 14 59 26 c 128,-1,24
 47 38 47 38 40 52.5 c 128,-1,25
 33 67 33 67 33 82 c 0,26,27
 33 96 33 96 39.5 110.5 c 128,-1,28
 46 125 46 125 57.5 136.5 c 128,-1,29
 69 148 69 148 83.5 156 c 128,-1,30
 98 164 98 164 114 165 c 1,31,-1
 114 267 l 1,32,33
 99 267 99 267 85 272.5 c 128,-1,34
 71 278 71 278 59.5 287.5 c 128,-1,35
 48 297 48 297 41.5 310 c 128,-1,36
 35 323 35 323 35 337 c 0,37,38
 35 364 35 364 58.5 384.5 c 128,-1,39
 82 405 82 405 112 405 c 0,40,41
 127 405 127 405 140.5 399.5 c 128,-1,42
 154 394 154 394 164.5 385 c 128,-1,43
 175 376 175 376 181.5 363.5 c 128,-1,44
 188 351 188 351 188 338 c 2,45,-1
 188 165 l 1,7,8
73 336 m 256,46,47
 73 321 73 321 83.5 310.5 c 128,-1,48
 94 300 94 300 109 300 c 256,49,50
 124 300 124 300 134.5 310.5 c 128,-1,51
 145 321 145 321 145 336 c 256,52,53
 145 351 145 351 134.5 361.5 c 128,-1,54
 124 372 124 372 109 372 c 256,55,56
 94 372 94 372 83.5 361.5 c 128,-1,57
 73 351 73 351 73 336 c 256,46,47
EndSplineSet
EndChar
StartChar: uni0E22
Encoding: 3618 3618 245
Width: 456
Flags: W
Fore
401 102 m 2,0,1
 401 80 401 80 391.5 61.5 c 128,-1,2
 382 43 382 43 366 29.5 c 128,-1,3
 350 16 350 16 328.5 8 c 128,-1,4
 307 0 307 0 284 0 c 2,5,-1
 128 0 l 2,6,7
 102 0 102 0 83.5 14 c 128,-1,8
 65 28 65 28 63 51 c 2,9,-1
 63 99 l 2,10,11
 63 115 63 115 68 130.5 c 128,-1,12
 73 146 73 146 82 158.5 c 128,-1,13
 91 171 91 171 103.5 178.5 c 128,-1,14
 116 186 116 186 131 187 c 1,15,16
 109 191 109 191 94.5 200.5 c 128,-1,17
 80 210 80 210 71 223.5 c 128,-1,18
 62 237 62 237 57.5 253.5 c 128,-1,19
 53 270 53 270 52 287 c 0,20,21
 52 307 52 307 59 328 c 128,-1,22
 66 349 66 349 80 366.5 c 128,-1,23
 94 384 94 384 114 395.5 c 128,-1,24
 134 407 134 407 160 407 c 2,25,-1
 167 407 l 2,26,27
 182 407 182 407 196.5 401 c 128,-1,28
 211 395 211 395 222.5 385.5 c 128,-1,29
 234 376 234 376 240.5 363 c 128,-1,30
 247 350 247 350 247 337 c 0,31,32
 247 322 247 322 240.5 309.5 c 128,-1,33
 234 297 234 297 223 287 c 128,-1,34
 212 277 212 277 197.5 271.5 c 128,-1,35
 183 266 183 266 167 266 c 0,36,37
 155 266 155 266 138 271.5 c 128,-1,38
 121 277 121 277 110 294 c 1,39,40
 110 268 110 268 124 252.5 c 128,-1,41
 138 237 138 237 158.5 229 c 128,-1,42
 179 221 179 221 202.5 218.5 c 128,-1,43
 226 216 226 216 244 216 c 1,44,-1
 244 159 l 1,45,46
 195 159 195 159 165.5 144 c 128,-1,47
 136 129 136 129 136 99 c 2,48,-1
 136 55 l 1,49,-1
 287 55 l 2,50,51
 303 55 303 55 315 69.5 c 128,-1,52
 327 84 327 84 327 102 c 2,53,-1
 327 407 l 1,54,-1
 401 407 l 1,55,-1
 401 102 l 2,0,1
132 338 m 256,56,57
 132 323 132 323 142.5 312.5 c 128,-1,58
 153 302 153 302 168 302 c 256,59,60
 183 302 183 302 193.5 312.5 c 128,-1,61
 204 323 204 323 204 338 c 256,62,63
 204 353 204 353 193.5 363.5 c 128,-1,64
 183 374 183 374 168 374 c 256,65,66
 153 374 153 374 142.5 363.5 c 128,-1,67
 132 353 132 353 132 338 c 256,56,57
EndSplineSet
EndChar
StartChar: uni0E23
Encoding: 3619 3619 246
Width: 388
Flags: W
Fore
245 138 m 1,0,-1
 245 202 l 1,1,2
 207 222 207 222 148.5 237.5 c 128,-1,3
 90 253 90 253 21 264 c 1,4,5
 21 291 21 291 31 322.5 c 128,-1,6
 41 354 41 354 63 374 c 0,7,8
 101 406 101 406 152 406 c 0,9,10
 172 406 172 406 190 400.5 c 128,-1,11
 208 395 208 395 225 390 c 2,12,13
 238 384 238 384 251 379.5 c 128,-1,14
 264 375 264 375 275 374 c 1,15,16
 301 376 301 376 358 431 c 1,17,-1
 371 376 l 1,18,19
 363 365 363 365 352 355 c 128,-1,20
 341 345 341 345 328 337.5 c 128,-1,21
 315 330 315 330 301.5 325 c 128,-1,22
 288 320 288 320 276 320 c 0,23,24
 256 322 256 322 240.5 325.5 c 128,-1,25
 225 329 225 329 211 334 c 0,26,27
 194 340 194 340 178.5 344.5 c 128,-1,28
 163 349 163 349 148 350 c 1,29,30
 129 348 129 348 113.5 336 c 128,-1,31
 98 324 98 324 93 305 c 1,32,33
 150 297 150 297 202.5 279 c 128,-1,34
 255 261 255 261 309 232 c 1,35,-1
 309 69 l 2,36,37
 309 42 309 42 286.5 21 c 128,-1,38
 264 0 264 0 233 0 c 256,39,40
 202 0 202 0 180.5 21 c 128,-1,41
 159 42 159 42 159 69 c 0,42,43
 159 82 159 82 165 94.5 c 128,-1,44
 171 107 171 107 181 116.5 c 128,-1,45
 191 126 191 126 204.5 132 c 128,-1,46
 218 138 218 138 233 138 c 2,47,-1
 245 138 l 1,0,-1
197 69 m 256,48,49
 197 54 197 54 207.5 43.5 c 128,-1,50
 218 33 218 33 233 33 c 256,51,52
 248 33 248 33 258.5 43.5 c 128,-1,53
 269 54 269 54 269 69 c 256,54,55
 269 84 269 84 258.5 94.5 c 128,-1,56
 248 105 248 105 233 105 c 256,57,58
 218 105 218 105 207.5 94.5 c 128,-1,59
 197 84 197 84 197 69 c 256,48,49
EndSplineSet
EndChar
StartChar: uni0E24
Encoding: 3620 3620 247
Width: 427
Flags: W
Fore
253 407 m 2,0,1
 275 407 275 407 296 398 c 128,-1,2
 317 389 317 389 333.5 374.5 c 128,-1,3
 350 360 350 360 360 340.5 c 128,-1,4
 370 321 370 321 370 300 c 2,5,-1
 370 -163 l 1,6,-1
 298 -163 l 1,7,-1
 298 300 l 2,8,9
 298 320 298 320 284 336 c 128,-1,10
 270 352 270 352 253 352 c 2,11,-1
 189 352 l 2,12,13
 176 352 176 352 162.5 346.5 c 128,-1,14
 149 341 149 341 136 331.5 c 128,-1,15
 123 322 123 322 113 310 c 128,-1,16
 103 298 103 298 98 286 c 1,17,18
 121 275 121 275 131.5 252 c 128,-1,19
 142 229 142 229 142 211 c 2,20,-1
 142 141 l 1,21,-1
 148 141 l 2,22,23
 163 141 163 141 177 135 c 128,-1,24
 191 129 191 129 202.5 119 c 128,-1,25
 214 109 214 109 220.5 96.5 c 128,-1,26
 227 84 227 84 227 71 c 0,27,28
 227 42 227 42 203.5 21 c 128,-1,29
 180 0 180 0 148 0 c 0,30,31
 120 0 120 0 96 16.5 c 128,-1,32
 72 33 72 33 68 58 c 1,33,-1
 68 212 l 2,34,35
 68 229 68 229 55 243 c 128,-1,36
 42 257 42 257 23 259 c 1,37,38
 26 290 26 290 41 317 c 128,-1,39
 56 344 56 344 79 364 c 128,-1,40
 102 384 102 384 131 395.5 c 128,-1,41
 160 407 160 407 192 407 c 2,42,-1
 253 407 l 2,0,1
112 71 m 256,43,44
 112 56 112 56 122.5 45.5 c 128,-1,45
 133 35 133 35 148 35 c 256,46,47
 163 35 163 35 173.5 45.5 c 128,-1,48
 184 56 184 56 184 71 c 256,49,50
 184 86 184 86 173.5 96.5 c 128,-1,51
 163 107 163 107 148 107 c 256,52,53
 133 107 133 107 122.5 96.5 c 128,-1,54
 112 86 112 86 112 71 c 256,43,44
EndSplineSet
EndChar
StartChar: uni0E25
Encoding: 3621 3621 248
Width: 433
Flags: W
Fore
376 0 m 1,0,-1
 302 0 l 1,1,-1
 302 124 l 2,2,3
 301 141 301 141 293 156.5 c 128,-1,4
 285 172 285 172 273 184 c 128,-1,5
 261 196 261 196 245.5 203.5 c 128,-1,6
 230 211 230 211 214 211 c 0,7,8
 200 211 200 211 185.5 206 c 128,-1,9
 171 201 171 201 158 192 c 128,-1,10
 145 183 145 183 136 170 c 128,-1,11
 127 157 127 157 124 142 c 1,12,-1
 130 142 l 2,13,14
 160 142 160 142 182 121 c 128,-1,15
 204 100 204 100 204 71 c 0,16,17
 204 43 204 43 182.5 21.5 c 128,-1,18
 161 0 161 0 130 0 c 0,19,20
 115 0 115 0 101 5.5 c 128,-1,21
 87 11 87 11 76.5 20.5 c 128,-1,22
 66 30 66 30 59 42.5 c 128,-1,23
 52 55 52 55 51 68 c 0,24,25
 50 75 50 75 50 83 c 128,-1,26
 50 91 50 91 50 97 c 0,27,28
 50 131 50 131 63 162.5 c 128,-1,29
 76 194 76 194 98.5 218 c 128,-1,30
 121 242 121 242 151 256.5 c 128,-1,31
 181 271 181 271 215 271 c 0,32,33
 228 271 228 271 242 268 c 128,-1,34
 256 265 256 265 268.5 260 c 128,-1,35
 281 255 281 255 291.5 246.5 c 128,-1,36
 302 238 302 238 308 228 c 1,37,-1
 308 299 l 2,38,39
 308 317 308 317 293 334.5 c 128,-1,40
 278 352 278 352 260 352 c 2,41,-1
 194 352 l 2,42,43
 176 352 176 352 158.5 343 c 128,-1,44
 141 334 141 334 126.5 320 c 128,-1,45
 112 306 112 306 102.5 289 c 128,-1,46
 93 272 93 272 93 257 c 1,47,-1
 26 257 l 1,48,49
 26 280 26 280 39 306 c 128,-1,50
 52 332 52 332 74.5 354.5 c 128,-1,51
 97 377 97 377 127.5 392 c 128,-1,52
 158 407 158 407 194 407 c 2,53,-1
 260 407 l 2,54,55
 284 407 284 407 305 398.5 c 128,-1,56
 326 390 326 390 342 375.5 c 128,-1,57
 358 361 358 361 367 341 c 128,-1,58
 376 321 376 321 376 299 c 2,59,-1
 376 0 l 1,0,-1
94 71 m 256,60,61
 94 56 94 56 104.5 45.5 c 128,-1,62
 115 35 115 35 130 35 c 256,63,64
 145 35 145 35 155.5 45.5 c 128,-1,65
 166 56 166 56 166 71 c 256,66,67
 166 86 166 86 155.5 96.5 c 128,-1,68
 145 107 145 107 130 107 c 256,69,70
 115 107 115 107 104.5 96.5 c 128,-1,71
 94 86 94 86 94 71 c 256,60,61
EndSplineSet
EndChar
StartChar: uni0E26
Encoding: 3622 3622 249
Width: 445
Flags: W
Fore
271 407 m 2,0,1
 293 407 293 407 314 398 c 128,-1,2
 335 389 335 389 351.5 374.5 c 128,-1,3
 368 360 368 360 378 340.5 c 128,-1,4
 388 321 388 321 388 300 c 2,5,-1
 388 -163 l 1,6,-1
 315 -163 l 1,7,-1
 315 300 l 2,8,9
 315 320 315 320 301.5 336 c 128,-1,10
 288 352 288 352 271 352 c 2,11,-1
 207 352 l 2,12,13
 195 352 195 352 181 346.5 c 128,-1,14
 167 341 167 341 153.5 332 c 128,-1,15
 140 323 140 323 129 312 c 128,-1,16
 118 301 118 301 112 290 c 1,17,18
 128 288 128 288 141 279 c 128,-1,19
 154 270 154 270 163 258 c 128,-1,20
 172 246 172 246 177 233.5 c 128,-1,21
 182 221 182 221 182 212 c 2,22,-1
 182 67 l 2,23,24
 182 54 182 54 175.5 42 c 128,-1,25
 169 30 169 30 157.5 20.5 c 128,-1,26
 146 11 146 11 132 5.5 c 128,-1,27
 118 0 118 0 103 0 c 0,28,29
 87 0 87 0 73 6 c 128,-1,30
 59 12 59 12 48.5 22 c 128,-1,31
 38 32 38 32 32 44.5 c 128,-1,32
 26 57 26 57 26 70 c 0,33,34
 26 99 26 99 49.5 120 c 128,-1,35
 73 141 73 141 104 141 c 2,36,-1
 108 141 l 1,37,-1
 108 211 l 2,38,39
 108 218 108 218 101.5 226.5 c 128,-1,40
 95 235 95 235 85 242 c 128,-1,41
 75 249 75 249 63 254.5 c 128,-1,42
 51 260 51 260 40 261 c 1,43,44
 43 292 43 292 58 319 c 128,-1,45
 73 346 73 346 96.5 365.5 c 128,-1,46
 120 385 120 385 149 396 c 128,-1,47
 178 407 178 407 210 407 c 2,48,-1
 271 407 l 2,0,1
67 71 m 256,49,50
 67 56 67 56 77.5 45.5 c 128,-1,51
 88 35 88 35 103 35 c 256,52,53
 118 35 118 35 128.5 45.5 c 128,-1,54
 139 56 139 56 139 71 c 256,55,56
 139 86 139 86 128.5 96.5 c 128,-1,57
 118 107 118 107 103 107 c 256,58,59
 88 107 88 107 77.5 96.5 c 128,-1,60
 67 86 67 86 67 71 c 256,49,50
EndSplineSet
EndChar
StartChar: uni0E27
Encoding: 3623 3623 250
Width: 378
Flags: W
Fore
250 305 m 2,0,1
 250 320 250 320 240.5 335 c 128,-1,2
 231 350 231 350 217 352 c 1,3,-1
 166 352 l 2,4,5
 134 352 134 352 111 328.5 c 128,-1,6
 88 305 88 305 74 276 c 1,7,-1
 17 294 l 1,8,9
 26 316 26 316 41 336.5 c 128,-1,10
 56 357 56 357 75 372.5 c 128,-1,11
 94 388 94 388 117 397 c 128,-1,12
 140 406 140 406 166 406 c 2,13,-1
 218 406 l 2,14,15
 238 404 238 404 257 395.5 c 128,-1,16
 276 387 276 387 290.5 373 c 128,-1,17
 305 359 305 359 314 341.5 c 128,-1,18
 323 324 323 324 323 305 c 2,19,-1
 323 70 l 2,20,21
 323 42 323 42 299.5 21 c 128,-1,22
 276 0 276 0 245 0 c 0,23,24
 229 0 229 0 214.5 5.5 c 128,-1,25
 200 11 200 11 189.5 21 c 128,-1,26
 179 31 179 31 173 43.5 c 128,-1,27
 167 56 167 56 167 70 c 0,28,29
 167 99 167 99 190.5 120 c 128,-1,30
 214 141 214 141 245 141 c 2,31,-1
 250 141 l 1,32,-1
 250 305 l 2,0,1
209 69 m 256,33,34
 209 54 209 54 219.5 43.5 c 128,-1,35
 230 33 230 33 245 33 c 256,36,37
 260 33 260 33 270.5 43.5 c 128,-1,38
 281 54 281 54 281 69 c 256,39,40
 281 84 281 84 270.5 94.5 c 128,-1,41
 260 105 260 105 245 105 c 256,42,43
 230 105 230 105 219.5 94.5 c 128,-1,44
 209 84 209 84 209 69 c 256,33,34
EndSplineSet
EndChar
